<?xml version="1.0" encoding="utf-8"?>
<!-- Generator: Adobe Illustrator 17.0.0, SVG Export Plug-In . SVG Version: 6.00 Build 0)  -->
<!DOCTYPE svg PUBLIC "-//W3C//DTD SVG 1.1//EN" "http://www.w3.org/Graphics/SVG/1.1/DTD/svg11.dtd">
<svg version="1.1" xmlns="http://www.w3.org/2000/svg" xmlns:xlink="http://www.w3.org/1999/xlink" x="0px" y="0px"
	 width="466.749px" height="376.51px" viewBox="0 0 466.749 376.51" enable-background="new 0 0 466.749 376.51"
	 xml:space="preserve">
<g id="Layer_2">
</g>
<g id="Layer_1">
	<g>
		<g>
			<g opacity="1">
				<g>
					<path fill="#ABFF4F" d="M347.86,247.413l-5.659,4.356l-8.626-2.27l4.994-10.82l-0.27-0.207l-16.551,13.562l-5.421-9.265
						l10.411-26.612l0.004-0.108l-10.231-39.338l4.913,1.299l8.289,59.067l1.218,0.36l16.7-19.271l-0.917,10.838l-1.515,12.366
						l0.297,0.144l0.593-0.593l0.818,0.382l11.998-11.998L347.86,247.413z M399.034,84.681l-4.76-10.433l-1.609-8.037l8.954,0.387
						L399.034,84.681z M408.811,113.073l-9.193-8.217l-0.445-19.069L408.811,113.073z M403.349,127.543l-3.668-6.073l9.13-5.633
						L403.349,127.543z M383.782,145.812l23.339-10.55l0.895,27.668L383.782,145.812z M345.752,240.765l-0.144,0.144l0.328-2.697
						l-0.211,2.54L345.752,240.765z M355.749,158.192l3.771,68.53l-12.25,12.25l1.928-22.818l-0.53-0.22L355.749,158.192z
						 M316.304,177.31l10.087,38.776l-10.087,25.776V177.31z M306.617,264.679l9.534-21.514l5.327,9.094L306.617,264.679z
						 M266.87,334.347l-18.435-4.949l-19.096-13.18V304.39l39.873,9.575l0.117-0.013l16.381-7.628l-7.458,11.229L266.87,334.347z
						 M175.041,245.184l42.606,2.234l10.366,55.404l-1.038-0.661L175.041,245.184z M123.494,233.006l22.431,6.995l-0.031,0.117
						l-14.695,3.574L123.494,233.006z M130.426,243.88l-11.265-9.458l-8.887-13.018l12.582,11.337l0.063,0.063l7.916,10.977
						L130.426,243.88z M108.583,218.927l7.296,7.062l-6.437-5.803L108.583,218.927z M66.71,109.081L56.587,126.91l-1.528-3.434
						l11.184-17.518L66.71,109.081z M87.424,102.177l5.853-1.65l20.143,0.593l-25.884,5.264l-17.904-1.942l4.972-0.751
						L87.424,102.177z M105.257,96.441l-3.587,1.29l0.103-0.184L105.257,96.441z M339.764,65.199l-7.804-2.931l1.412,0.121
						L339.764,65.199z M369.658,65.208l22.647,0.984l1.569,7.84L369.658,65.208z M367.738,65.123l0.764,0.036l9.764,3.556
						L367.738,65.123z M347.519,68.013l25.421,3.529l21.047,2.922l4.671,10.227L347.519,68.013z M363.351,95.038l-17.338-27.151
						l52.797,17.217l0.454,19.604L363.351,95.038z M399.268,121.237h-15.055l-20.507-25.74l35.562,9.57V121.237z M406.582,134.106
						l-21.802-12.519h14.565l3.825,6.338l-0.346,0.751L406.582,134.106z M384.182,131.782l0.099-2.378l22.75,5.52l-23.416,10.582
						L384.182,131.782z M360.483,226.047l22.705-78.797l-2.513,54.253l-1.78,38.421l-12.645-3.371l-5.134-2.14l-0.521-6.797
						l0.728-0.728L360.483,226.047z M329.394,134.039l0.022-0.049l25.699,21.869l-32.235-8.568L329.394,134.039z M252.139,122.873
						l-0.225,0.211l7.894,28.437l-8.393-28.904l1.061,0.373L252.139,122.873z M303.456,171.934l-0.135,0.009l-3.12,1.358
						l-13.67,5.039l16.313-18.997l2.153-1.277L303.456,171.934z M315.958,242.055l-30.797-60.695l18.493-8.042l12.303,3.25V242.055z
						 M306.046,265.102l-20.97-2.931l30.671-18.943l-2.126,4.787L306.046,265.102z M286.559,305.312l5.143-16.529l-0.117-0.112
						l13.095-3.187l2.486-0.607l-16.466,16.471L286.559,305.312z M257.12,300.52l11.634,12.978l-39.378-9.453L257.12,300.52z
						 M221.72,230.624l6.199,69.788l-9.948-53.156L221.72,230.624z M173.94,245.049l0.602,0.103l51.309,56.289l-18.574-11.858
						l-40.785-43.1l-0.117-0.121l-14.398-5.039L173.94,245.049z M131.613,229.235l9.188-3.915l0.067,0.378l0.09,0.067l-0.009,0.054
						l0.342,0.198l0.886,1.96l5.309,11.773l-0.031-0.013l-0.67,0.166l-23.227-7.237L131.613,229.235z M116.113,100.833l-0.076,0.013
						l-11.989-0.351L116.113,100.833z M114.351,94.27l14.776-1.263l-11.548,7.516L95.48,99.907l5.911-1.663l0.031-0.054
						l11.728-4.217L114.351,94.27z M112.449,93.802l-10.438,3.304l2.827-5.174L112.449,93.802z M345.626,67.393l-11.189-4.913
						l25.897,2.153L345.626,67.393z M362.425,64.808l-6.329,0.975l5.543-1.038L362.425,64.808z M345.1,67.896l0.427-0.121
						l9.597,15.028L345.1,67.896z M337.126,100.819l26.045-5.439l20.386,25.596L337.126,100.819z M369.312,125.399l-31.516-23.91
						l45.815,19.887L369.312,125.399z M241.404,186.278l-1.618,0.166l-0.288-1.83l11.692-61.526l16.453,56.68L241.404,186.278z
						 M268.434,179.351l-0.467,0.279l-0.072-0.265L268.434,179.351z M269.05,178.987l-0.737,0.018l19.986-11.436L269.05,178.987z
						 M301.627,160.071l0.099-0.063l0.184-0.112l-3.825,4.455L301.627,160.071z M284.419,179.895l1.623-1.002l8.568-3.16
						l-10.078,4.383L284.419,179.895z M282.981,180.789l1.142-0.71l0.09,0.175L282.981,180.789z M236.922,221.57l-7.831-34.308
						h9.413l0.009,0.049l0.76,0.584l40.381-4.176l0.202-0.054l4.985-2.167l31.062,61.221l-31.318,19.343L236.922,221.57z
						 M290.627,288.437l-3.974-6.397l33.543-28.248L290.627,288.437z M290.663,289.21l0.602-0.202l-3.174,10.209L290.663,289.21z
						 M228.507,303.136l-6.455-72.737l34.87,69.798l-27.583,3.502v-0.031L228.507,303.136z M93.871,179.391l4.095-0.166l0.063,0.441
						L93.871,179.391z M312.303,77.107l32.447-9.112l18.053,26.855L312.303,77.107z M351.047,119.762l-7.921-2.454L286.73,78.505
						l0.18,0.081l49.555,22.323l31.916,24.22L351.047,119.762z M384.173,128.672h-0.004l-0.004-0.005l-14.169-3.097l14.111-3.969
						l22.26,12.784L384.173,128.672z M372.171,142.593l-2.684-16.772l14.075,3.412l-2.634,3.088L372.171,142.593z M372.377,142.89
						l7.264-8.523l4.293-5.03l-0.67,16.223L372.377,142.89z M370.53,144.463l1.295-1.052l-11.777,81.328l-4.05-68.44L370.53,144.463
						z M369.235,126.451l2.634,16.471l-15.338,12.492l8.946-14.182L369.235,126.451z M383.215,145.906l-22.818,78.837l11.804-81.535
						l2.086,0.508L383.215,145.906z M331.682,132.155l5.673-4.338l0.027-0.045l0.018-0.009l5.736-10.087l25.785,7.984l0.144,0.045
						l-3.897,15.365l-9.391,14.888l-26.14-22.238L331.682,132.155z M267.863,180.075l0.602,0.157l8.793,2.333l-33.373,3.452
						l16.542-4.1L267.863,180.075z M276.975,179.135l-8.402,0.539l0.575-0.342L276.975,179.135z M285.88,178.56l-16.12,0.409
						l31.008-18.395L285.88,178.56z M279.402,182.345l-1.169,0.121l-8.644-2.297l-0.652-0.171l16.178-1.038l-1.088,0.544
						l-0.076,0.234l0.013,0.031l-3.187,1.978L279.402,182.345z M231.007,164.741l3.295-0.216l3.349,17.271l0.8,5.116h-9.341
						L231.007,164.741z M222.066,229.163l5.12-19.811v-0.004l0.004-0.022l1.798-20.97l7.579,33.22L222.066,229.163z
						 M257.358,270.325l-20.152-48.059l47.007,39.936L257.358,270.325z M265.175,286.342l21.168-4.145l3.879,6.248L265.175,286.342z
						 M205.654,238.517l0.508,0.297l-30.806,5.857l18.08-13.225L205.654,238.517z M141.552,225.746l0.261-0.054l11.584,6.882
						l-11.836-6.806L141.552,225.746z M100.438,186.755l0.724-1.78l-0.737,1.866l-0.148-1.074l6.554-49.996L100.438,186.755z
						 M109.649,110.92l-21.321-4.046l28.882-5.911L109.649,110.92z M185.115,80.128l81.206-33.427l7.7-2.634l-2.365,12.461
						L185.115,80.128z M271.226,57.004l-21.541,21.77l-65.756,2.036L271.226,57.004z M284.725,77.39l-6.307,0.247l-28.221,1.115
						l21.582-21.806l2.774,4.378L284.725,77.39z M311.651,77.264l5.188,4.945l18.857,17.972l-49.884-22.467L296.7,77.52
						L311.651,77.264z M312.429,77.52l50.167,17.626l-25.987,5.421L312.429,77.52z M337.162,127.48l-100.599-24.054l13.306-24.31
						l35.117-1.389l14.641,10.074l43.195,29.718l-2.158,3.798L337.162,127.48z M325.429,125.031l11.422,2.733l-7.525,5.754
						l-88.772-28.778L325.429,125.031z M230.935,164.395l-9.391-13.243l9.233-13.297l3.718,23.771l0.472,3.902h0.009l0.957,5.579
						l-1.317-6.797l-0.18-0.139L230.935,164.395z M226.898,208.651l-17.284-36.51l-2.257-4.765l3.506-1.088l0.364-0.27l10.105-14.56
						l9.337,13.167l-1.969,22.449l-1.767,21.173L226.898,208.651z M194.015,231.379l27.102-1.663l-14.466,8.977L194.015,231.379z
						 M171.359,227.913l13.167,2.729l2.243,0.589l0.049-0.031l0.004,0.04v-0.04l0.162-0.112l0.058-0.423l0.283-0.202l1.29-9.233
						l4.594,9.952l-18.466,13.504l-1.434-7.102L171.359,227.913z M124.164,173.363l-9.984-20.422l3.578-31.759l14.434-6.154
						l1.551-0.661l-7.435,61.297l-0.993-2.311L124.164,173.363z M117.417,121.115l-3.587,31.813l-12.717,31.246l9.067-72.306
						L117.417,121.115z M133.883,105.265l-23.744,5.826l7.556-10.191L133.883,105.265z M209.056,120.185l-36.308-5.74l15.446-2.607
						l47.258-7.975l-13.67,8.456L209.056,120.185z M239.795,121.241l-0.121,0.099l-0.04-0.013l-0.171,0.292l-29.803-1.398
						l26.603-16.448l14.506,18.363L239.795,121.241z M235.794,160.938l4.104-38.951l11.045,0.517l-11.602,61.086L235.794,160.938z
						 M190.442,208.138l8.509,0.8l-5.574,21.784l-4.671-10.128L190.442,208.138z M143.354,182.826l0.414,0.589l-0.423-0.562
						L143.354,182.826z M146.577,134.43l0.054,0.814l-1.937,13.18l3.556,12.982l-5.205,18.534l-1.349,3.246l-1.047-0.261
						l-12.852-3.78l-0.76-1.771L146.577,134.43z M171.688,114.273L157.523,109l75.327-5.053l-56.568,9.548L171.688,114.273z
						 M231.488,135.603l-9.067-6.671h-0.009l0.004-0.009l-12.699-8.352l29.552,1.385L231.488,135.603z M235.587,159.599
						l-3.704-23.676l-0.157-0.031l7.795-13.67L235.587,159.599z M230.625,135.635l-18.597,26.792l10.384-33.071l8.68,6.388
						L230.625,135.635z M206.202,208.745l-6.842-0.13l1.96-25.425l1.106-14.277l4.594-1.434l19.721,41.648L206.202,208.745z
						 M219.706,209.343l7.089,0.135l-5.093,19.694L199.63,208.97L219.706,209.343z M199.266,209.109l22.112,20.238l-27.722,1.704
						L199.266,209.109z M149.674,167.627v0.009l0.243,23.766l0.022,0.184l-6.428-9.139L149.674,167.627z M148.515,162.368
						l-1.982,6.442l1.897-6.752L148.515,162.368z M146.744,136.866l1.659,23.78l-3.358-12.209L146.744,136.866z M146.555,132.079
						l-0.103,0.225l-0.018,0.085l0.09,1.313l-19.671,43.235l-0.27-0.634l7.489-61.747L146.555,132.079z M136.683,105.301
						l84.133-1.335l-64.107,4.738l-15.185-2.504L136.683,105.301z M234.243,103.319l0.908-0.067l-0.013-0.346l-9.777,0.202
						l-104.699-2.508l128.775-21.424l-13.238,24.193L234.243,103.319z M229.487,103.826l-22.269,1.492l19.617-1.452L229.487,103.826
						z M134.962,104.977l-15.67-4.028l98.149,2.324L134.962,104.977z M225.289,103.458l1.803,0.04l-0.279,0.022l-19.869,0.315
						L225.289,103.458z M208.769,120.495l-7.156,9.022l-0.441,0.553l-0.4,0.022l-28.131-15.311L208.769,120.495z M201.639,130.047
						l7.489-9.444l12.654,8.325L201.639,130.047z M190.491,207.792l2.221-15.9l6.199,16.691L190.491,207.792z M168.096,225.692
						l14.636-50.162l3.637,51.722l-0.319,2.284l-17.118-3.547L168.096,225.692z M148.861,162.422v-0.022h0.009l0.71-4.279
						l0.058,6.019l-0.018-0.005l-4.936,11.858L148.861,162.422z M147.103,134.439l0.477,9.427l-0.598-8.608L147.103,134.439z
						 M200.25,130.205l-0.022,0.018l-0.126,0.315l-21.011,5.462l-0.984-2.931l-6.131-18.251l9.08,4.94L200.25,130.205z
						 M210.221,165.029l-15.437,4.801l-0.481,0.566l-0.04,0.301l-10.91,3.115l-0.018-0.328l17.869-42.858l20.871-1.367
						l-10.717,34.128L210.221,165.029z M192.811,191.164l2.81-20.134l6.446-2.009l-3.007,38.96L192.811,191.164z M183.375,174.168
						l10.834-3.093l-7.579,54.334L183.375,174.168z M183.047,174.456l0.378,5.983l-0.409-5.871L183.047,174.456z M158.966,128.564
						L158.966,128.564l8.289,96.351l-15.086-24.863l-0.288-8.465l5.65-79.993L158.966,128.564z M149.913,156.758l7.161-43.658
						l-5.304,75.151l-0.814-23.874l-0.899-0.162L149.913,156.758z M157.119,110.673l-7.813,46.984l-0.571,2.027l-1.371-26.985
						L157.119,110.673z M147.153,132.317l-0.193-0.274l4.85-10.249L147.153,132.317z M159.312,128.092l-1.6-18.493l13.657,4.927
						L159.312,128.092z M200.358,130.834l0.432-0.112l-9.916,23.78L200.358,130.834z M199.94,130.942l-16.7,41.671l-4.068-36.277
						L199.94,130.942z M159.434,128.474l12.169-13.683l7.093,21.119l-5.925-2.288L159.434,128.474z M159.375,128.829l12.357,4.769
						l7.084,2.733l4.149,36.96l-0.319,0.796l0.022,0.027l-0.031,0.049l0.022,0.342l-14.996,49.987L159.375,128.829z
						 M134.251,114.206l22.957-4.621l-10.483,22.135l-11.863-16.659L134.251,114.206z M167.759,225.575l-0.013-0.144l2.306-7.691
						l-2.288,7.84L167.759,225.575z M146.784,132.412v-0.005l0.202,0.279l-0.157,0.351L146.784,132.412z M117.619,120.809
						l-7.26-9.274l24.018-6.033l-11.661,10.649L117.619,120.809z M241.112,121.695l-1.178-0.054l0.005-0.04L241.112,121.695z
						 M133.887,113.927l-10.64,4.54l-4.774,2.036l10.892-9.948l5.57-5.089l6.536,1.079l15.122,2.805l-22.467,4.477L133.887,113.927z
						 M120.213,100.1l62.277-18.893l64.646-2.005L120.213,100.1z M100.519,187.541l13.499-34.137l1.474,3.012l8.415,17.217
						l-7.278,17.621l-16.048-3.241L100.519,187.541z M141.196,224.924l-7.458-42.579l8.145,2.396l0.841-0.405l0.463-1.11
						l6.846,9.125l0.661,5.291l0.09,2.639l0.099,0.337l12.447,20.516l-21.456,4.194L141.196,224.924z M174.38,244.64l-32.051-19.046
						l21.195-4.145l3.201,5.277l0.454,0.319l3.807,0.791l2.639,13.068L174.38,244.64z M257.497,270.654v-0.004l27.088-8.195
						l21.159,2.958l-19.352,16.39L257.497,270.654z M257.686,271.099l22.26,8.59l5.857,2.261l-21.779,4.266L257.686,271.099z
						 M263.723,286.409l-6.541,13.531l-35.153-70.368l14.645-7.664l20.121,48.791v0.005L263.723,286.409z M290.371,288.94
						l-32.847,11.099l6.496-13.445l26.383,2.216L290.371,288.94z M147.939,239.906l-6.132-13.594l31.889,18.341l-23.708-4.028
						L147.939,239.906z M131.869,92.773l129-44.202l-6.819,2.805l-71.645,29.493l-62.897,19.078l-0.459,0.139l12.78-7.309
						L131.869,92.773z M131.001,92.845l-8.222,4.707l7.071-4.608L131.001,92.845z M88.144,109.185l-0.27-1.713l21.532,3.763
						l-0.067,0.094l0.18,0.274l0.13-0.036l-9.552,72.899l-0.841-6.06l-0.216-0.184l-3.96-25.088l0.04-0.072l0.031-0.054
						L88.144,109.185z M257.493,300.417l32.775-11.072l-4.221,16.439l-16.749,7.799L257.493,300.417z M321.136,253.23
						l-11.849,29.192l-0.881,1.218l-0.764,0.764l-16.556,4.032l13.634-15.972L321.136,253.23z M322.543,147.188l-71.285-24.993
						l-14.466-18.309l55.588,18.021l36.735,11.908l-6.235,12.69L322.543,147.188z M385.261,72.899l-38.452-5.336l17.104-2.63
						l0.647,0.054l1.942,0.081l25.825,8.811L385.261,72.899z M345.046,67.55l-0.148,0.04l-0.076-0.117l-0.193-0.067l-32.761,9.458
						l-3.07-22.139l17.086,5.637L345.046,67.55z M275.712,43.802l32.716,10.802l3.093,22.314l-26.392,0.459l-13.14-20.745
						l2.409-12.695l0.823-0.283L275.712,43.802z M62.507,117.182l4.491-7.907l19.837-2.45l-0.306,0.058l0.922,0.175l0.342,2.144
						l6.923,43.86l-14.052,23.573l-2.351-0.787l-21.55-48.544L62.507,117.182z M81.001,176.748l13.639-22.809l3.668,23.874
						l-12.533,0.521L81.001,176.748z M106.246,215.502L87.195,179.67l3.3-0.135l7.583,0.485l1.196,8.671l0.548,0.584l17.23,3.484
						l0.787-0.423l6.788-16.736l1.277,3.538l0.117,0.108l0.355,0.108l0.27,0.638l0.445,0.396l6.275,1.843l7.372,42.736
						l-17.648,7.516l-15.459-14.951L106.246,215.502z M176.079,244.891l30.608-5.826l0.036-0.022h0.022l14.789-9.179l-3.879,17.208
						L176.079,244.891z M305.228,157.527l-0.094-0.058l-2.284,1.425l-0.031-0.036l-35.045,20.058l-15.437-55.606l69.883,24.135
						L305.228,157.527z M392.26,215.879l-12.955,24.153l-0.067-0.018l4.356-93.91l24.432,17.262l-7.386,36.483L392.26,215.879z
						 M409.369,114.647l-0.288,0.616l-9.462,5.839v-15.778l9.436,8.433L409.369,114.647z M67.358,104.546l18.678,2.027
						l-18.997,2.347l-0.512-3.407l0.602-0.939L67.358,104.546z M333.197,249.49l-23.056,31.759l11.706-28.846l16.088-13.185
						L333.197,249.49z M347.977,215.641l-17.095,19.725l-8.141-58.006l-0.512-0.575l-18.417-4.864l1.564-14.079l17.28-10.249
						l32.968,8.761l-7.287,59.436L347.977,215.641z M408.488,134.412l-4.068-5.875l6.451-13.818L400.387,85.05l2.827-19.775
						l-38.565-1.677l-28.99-2.418l-4.019-0.382l-56.411-18.619l-143.65,49.218l-17.118,1.465l-10.33-2.54l-3.313,6.06l-0.548,0.733
						l-13.063,3.682l-20.898,2.472l-12.825,20.085l23.676,53.34l0.126,0.283l8.082,2.693v0.076l0.207-0.009l0.094,0.031
						l19.361,36.42l8.55,12.528l4.163,6.271l0.261,0.207l0.063,0.09l11.998,10.114l17.32-4.212l18.21,6.374l26.297,27.794
						l13.764,14.659l0.256,0.157l0.409,0.432l0.058,0.063l21.564,13.764v7.57l-0.175,4.805l0.081,0.153l2.81,1.861l17.077,11.796
						l0.099,0.067l16.151,4.329l2.427,0.764l0.18-0.063l0.868,0.234l19.734-29.134l22.233-22.229l24.391-33.579l8.689,2.284
						l6.406-4.927l10.546-17.298l0.333,4.306l5.965,2.486l14.547,3.884l21.609-41.334l0.049-0.09l7.444-36.762l0.013-0.081
						l-0.93-28.855L408.488,134.412z"/>
				</g>
			</g>
		</g>
	</g>
</g>
</svg>
