<?xml version="1.0" standalone="no"?>
<!DOCTYPE svg PUBLIC "-//W3C//DTD SVG 1.1//EN" "http://www.w3.org/Graphics/SVG/1.1/DTD/svg11.dtd">
<svg xmlns="http://www.w3.org/2000/svg" xmlns:xlink="http://www.w3.org/1999/xlink" version="1.1" id="Layer_1" x="0px" y="0px" width="517.6380004882812" height="509.14300537109375" viewBox="95.247 62.098 517.638 509.143" enable-background="new 95.247 62.098 517.638 509.143" xml:space="preserve">
<g>
	<polygon fill="#212121" points="594.509,271.913 605.219,266.283 605.199,266.273 605.189,266.263 587.789,255.713    583.159,246.593 574.499,243.833 560.869,238.233 563.379,237.393 564.449,234.103 564.449,231.343 568.189,230.933    570.009,227.523 569.599,223.673 569.529,223.023 565.269,217.423 556.259,214.373 554.919,212.793 544.839,209.173    543.719,208.773 529.849,205.123 528.859,204.383 521.079,198.553 520.639,198.973 518.769,200.793 516.819,203.543    501.119,200.953 494.259,199.956 471.889,170.823 469.939,168.253 461.509,166.603 411.549,166.603 405.409,165.543    398.029,160.133 397.129,159.473 387.809,158.813 386.139,155.943 383.799,150.923 381.629,148.753 381.129,145.083    377.699,135.883 375.299,131.363 375.699,130.793 374.949,119.923 374.949,110.153 374.339,109.543 372.519,107.733    371.359,107.023 369.608,105.71 371.099,104.633 371.484,100.575 371.519,98.283 376.029,94.023 378.619,89.183 377.699,86.753    376.279,86.423 373.499,88.873 369.099,93.793 364.329,92.693 365.249,87.593 362.829,83.583 359.989,86.593 359.239,90.853    360.659,97.033 360.319,100.213 360.489,103.713 361.999,106.143 356.229,109.313 352.549,117.753 351.549,119.513    348.539,125.523 350.299,129.703 353.219,128.783 352.719,125.613 355.559,119.513 358.569,115.753 359.699,122.353    359.739,122.603 358.239,129.873 355.389,137.563 354.309,145.163 354.309,151.683 352.799,154.183 352.339,158.313    336.259,163.703 337.329,155.013 333.909,144.403 330.409,138.143 329.639,136.763 329.399,136.653 329.389,136.653    321.509,133.243 321.509,128.616 319.029,120.563 316.929,116.153 313.659,109.273 310.629,108.033 304.839,106.653    304.359,106.413 303.159,105.813 302.639,105.553 302.389,102.763 302.389,102.713 302.359,102.383 303.639,97.783 303.739,97.423    303.739,94.253 299.879,89.713 299.879,80.483 297.089,71.433 296.989,71.113 294.239,68.493 292.439,74.283 292.169,79.513    292.999,87.923 288.999,91.223 288.169,91.083 283.559,80.933 277.708,74.103 280.179,88.743 284.729,94.393 290.739,102.853    294.339,105.643 294.409,105.763 295.439,107.623 293.459,110.273 289.139,113.143 288.829,113.353 284.199,127.893    282.439,133.623 284.199,140.013 284.199,141.773 281.779,141.773 281.559,149.263 284.199,150.803 281.929,184.273    257.249,188.583 225.08,208.632 212.609,214.433 202.819,225.003 200.069,232.833 195.569,242.083 184.149,247.533    187.879,257.883 187.879,257.893 185.839,262.073 185.579,262.603 173.469,271.793 179.529,278.983 168.259,292.983    166.839,292.633 154.549,289.593 140.359,284.103 140.349,284.093 135.189,282.093 119.339,275.963 118.369,275.583    104.409,270.183 102.459,270.183 114.429,284.093 128.669,295.893 142.909,304.663 140.699,305.853 146.799,312.173    142.659,315.003 128.209,327.133 127.339,332.283 143.789,331.853 146.439,333.303 148.619,336.353 148.619,336.353    148.619,340.293 143.169,345.943 143.739,346.203 154.059,350.953 160.309,360.923 160.249,361.393 158.779,372.233    159.659,378.623 160.919,381.633 160.929,381.653 166.339,394.523 175.719,414.373 175.719,414.393 176.589,416.223    176.799,416.683 176.829,416.743 181.879,427.423 210.999,477.823 234.609,510.293 252.109,526.383 274.259,546.753    301.789,566.793 301.789,560.043 303.919,559.817 293.069,534.183 289.149,502.883 296.989,462.723 316.609,414.813    317.619,411.083 322.029,413.263 326.459,416.223 326.469,416.233 331.439,421.193 331.449,421.193 352.879,442.573    353.829,443.523 392.319,473.773 392.319,473.763 396.889,468.103 396.889,468.093 396.889,466.413 405.709,472.303    419.359,443.523 449.609,411.083 459.469,419.373 504.929,370.023 518.059,382.623 542.209,362.673 570.009,323.193    570.529,318.983 575.179,320.753 578.029,318.043 594.929,301.983 595.949,279.673  "/>
	<g>
		<path fill="none" stroke="#ABFF4F" stroke-miterlimit="10" d="M231.608,205.537l26.24-16.449l24.673-4.308l2.277-33.467    l-2.644-1.543l0.221-7.49h2.423v-1.762l-1.763-6.389l1.763-5.728l4.626-14.54l4.627-3.084l1.982-2.644l-1.101-1.983l-3.966-3.084    l-5.641-8.165l-4.546-5.648l-3.444-10.883l0.413-3.582l6.199,6.2l4.822,10.607l0.827,0.138l3.995-3.306l-0.827-8.404l0.275-5.235    l1.791-5.786l2.756,2.618l2.892,9.368v9.229l3.858,4.547v3.168l-1.378,4.959l0.276,3.169l2.204,1.102l5.786,1.378l3.03,1.239    l5.373,11.297l2.48,7.714v4.96l8.128,3.52l4.27,7.638l3.424,10.608l-1.495,12.123l-2.067,7.576l-2.755,4.546l-6.061,2.205    l-3.995-1.378l-3.72-3.72l-2.617-3.03l-3.444-7.164l-1.378-10.607l1.516-11.021l3.857-6.75l2.893-2.618l-1.102-5.235l-0.689-6.061    l-4.684-4.684l-0.413,5.235l4.408,7.026l1.531,4.578 M238.657,205.537l-14.098,3.916l-11.358,5.483l-9.791,10.574l-2.741,7.833    l-14.491,29.764l-6.657,18.016v5.482 M185.712,278.936l-13.587,15.366l-16.983-4.205L105,270.687h-1.941l11.969,13.91    l14.234,11.808l44.157,27.173 M171.963,320.182l11.484,15.527l2.265,4.691l7.44,7.44l22.483,13.587 M213.532,365.471h-3.72    l-4.007-9.984 M217.09,359.001l-3.558,8.249l5.176,4.367l3.235,1.132l12.293,2.75h4.528l4.529-4.367l-3.558-1.618l-3.558-2.264     M186.178,263.107l-12.112,9.198l6.056,7.19l-11.263,13.998 M188.471,258.399l-3.73-10.356l11.426-5.453 M198.286,342.033    l1.234-2.379l-1.851-4.054l-7.578-7.578 M232.971,370.109v-2.859l-1.588-1.779h-3.517 M228.773,335.028l0.681,2.407l2.723,5.786    l3.517,3.29l2.156,4.311l1.928,12.707l2.55,7.164 M209.669,324.728l15.701,14.522 M143.506,305.17l-2.211,1.187l12.202,12.637    l17.938,15.034l12.808,3.33 M147.398,312.678l-4.142,2.83l-14.452,12.129l-0.872,5.156l16.453-6.827l9.575-6.583 M127.932,332.793    l16.453-0.436l2.648,1.453l2.179,3.05v3.944l-5.447,5.643l10.893,5.011l6.246,9.969l-1.525,11.31l0.872,6.391l6.681,15.906    l15.542,32.899l29.123,50.402l23.604,32.464l39.653,36.458l27.526,20.045v-6.754 M299.62,561.347l4.285-1.525l-10.24-25.129    l-3.922-31.302l7.843-40.162l19.621-47.909l1.003-3.728 M331.545,418.188l-49.18-24.375l4.875-21.22l4.301-11.041h10.839    l14.11,20.074l19.786,10.466l10.61-2.867l3.728-43.588l27.529,28.82l12.188-11.614l16.202,14.481l4.731-1.864l10.897-21.363    l5.449-17.636l23.228,11.47l22.224,15.629l8.029,1.29l11.184-39.143l8.316-4.731 M198.822,297.745l2.306-4.803l2.882,0.961    l4.803,22.575l8.069,9.222l16.716,11.658l5.572,11.398l4.123,5.668l5.483,6.055l4.419-5.959l2.69-10.183l0.48-10.951    l-8.454-23.152 M237.152,278.724l14.698,12.489v8.838l-3.375,11.725 M221.397,265.948l21.903-3.363l-3.543,18.353     M208.236,260.184l22.806,4.283 M241.45,272.169l3.964,0.888h7.877h8.262l8.742-1.295 M234.789,263.892l6.206-11.105    l-13.401-12.489 M230.139,236.167l12.105,6.423 M235.615,236.167l8.886,2.21l10.519,9.606l9.607,12.201l5.668,10.087l5.187,9.126    l8.454,14.89l2.402,14.89l3.17,4.803l3.746,4.131l10.087,2.071l8.07-1.302l3.362-2.498l2.017-2.786l-0.768-3.938l-3.651-5.476    l-15.946-15.275l-6.437-21.326l-3.554-6.821l-8.262-8.261 M291.921,273.985l8.346,2.434l17.388-2.434l12.873,3.683l15.274,3.746    l6.341,0.865l3.266-1.345l-3.074-6.949l-6.917-5.444l-7.489-2.497l-16.143-1.345l-16.427-6.725l-25.314-3.602l-2.449-14.993    l-1.393-14.932l1.873-10.663 M332.847,240.093l2.566,0.906l17.209,13.133l27.775,10.265l0.151-8.787l5.543-10.987l2.211,14.241    l-1.244,10.293 M389.455,271.762h-2.265l-30.568-16.152 M340.162,244.623l-15.769,7.622l-21.142,5.429 M322.28,191.787    l31.549,7.699 M284.798,140.518h3.371l-1.686-3.248l3.731-8.264l4.452-5.895l2.286,6.617l-0.722,9.023l-3.008,9.625l0.241,12.873    l2.286,7.338 M311.324,149.329l-1.138-1.916l-2.527,0.958l-3.85,3.494l-2.045,11.188l-2.767,5.534l0.962,2.888l-1.925,5.534v5.293    l-7.159,0.843l-1.142-2.647l2.767-3.97l0.241-8.542l1.977-2.707 M290.488,128.644l-0.755,13.827l-4.935-0.191 M289.733,142.471    l2.215,1.444l-0.578,7.414l-2.792,0.481c0,0-2.118,32.928-2.118,32.639c0-0.288,4.415-1.304,4.415-1.304 M298.034,180.598    l6.238-3.659l10.327-4.391 M336.857,164.212l8.334-2.87l7.414-2.022 M354.485,165.138h-2.423l-1.17-0.926l0.668-1.664l2.173-2.59    l-1.045-1.504l0.71-3.76l1.504-2.507v-6.517l1.087-7.604l2.841-7.687l1.504-7.27l-1.17-6.852l-3.008,3.761l-2.841,6.099    l0.501,3.175l-2.924,0.919l-1.755-4.177l3.008-6.016l1.003-1.755l3.676-8.439l5.766-3.176 M370.528,106.648l2.59,1.588    l2.423,2.423v9.776l0.752,10.863l-2.005,2.841l-1.504-0.669l-0.084-11.614l-2.172-5.348 M364.929,93.196l0.919-5.097l-2.423-4.011    l-2.841,3.008l-0.752,4.262l1.421,6.183l-0.334,3.175l0.167,3.509l1.754,2.423l3.008,2.507l3.761-2.507l2.088-1.504l0.418-4.428    v-1.922l4.512-4.261l2.591-4.847c0,0-0.92-2.673-0.92-2.423c0,0.251-1.42-0.334-1.42-0.334l-2.925,2.256l-4.428,4.93    L364.929,93.196z M357.075,164.212l0.418-3.001l1.42-4.011l-0.418-3.091l2.841-4.178l2.674-9.358l2.256-1.922l2.925,0.752    l1.922,0.835l4.177,8.69l6.016,5.348 M375.89,131.869l2.408,4.526l3.426,9.191l0.502,3.677l1.253,2.168 M382.226,149.263    l2.172,2.168l2.34,5.017l1.671,2.872l2.022,1.989l-2.889,3.504l-5.316-0.922v-2.336l0.584-1.291v-0.944l-3.125-3.54l-0.375-3.279     M358.913,157.2l5.351-0.774l11.626,2.528 M363.506,160.64l18.796-1.32 M389.129,159.32l8.597,0.66l12.391,9.089l6.321,16.605    l11.463,6.153l11.801,3.708 M377.774,201.3l-2.425,1.532l1.213,0.638l8.232,1.532l8.933-1.851l11.742,0.574l8.946,2.808    l19.897,5.36 M373.038,223.763l41.377-17.23 M406.004,166.052l6.144,1.06h49.956l8.429,1.644l17.474,23.031 M411.611,172.994    l11.022,1.519l11.679,4.407l8.245,3.099h2.557 M449.252,182.019h3.165l3.408-4.591h5.964l11.686,4.104L500.74,201.3l16.676,2.751    l1.948-2.751l2.313-2.24l8.764,6.573l13.876,3.652l11.198,4.016l1.339,1.583l9.008,3.043l4.26,5.599l0.487,4.504l-1.826,3.408    l-14.485,1.582 M561.215,238.823l2.76-0.92l1.074-3.297v-2.76 M550.863,234.376l24.231,9.968l8.665,2.761l4.677,9.201     M454.204,201.3l6.935,3.197l14.02,9.648l28.039,5.728h9.045l9.799,6.784l5.728,9.347l7.839,10.703l2.262,8.14l-1.508,3.92    l-4.522,1.357l-8.141-1.659l-7.688-5.125l-17.37-12.156l-29.244-15.258 M522.962,271.447l5.488-0.43l4.09-2.691l-3.229-3.443    l-3.618-6.011 M482.931,277.581l7.963,3.336l14.635,0.861l-4.412-9.793l-5.079-8.932 M498.642,254.337l0.538,1.184l3.982,11.084    l-2.045,5.38 M517.861,223.763l55.398,23.282l32.552,19.741l-10.711,5.63l-41.582-2.585h-14.281 M570.609,319.288l5.17,1.974    l19.741-18.775l1.05-22.891l-2.31-7.18 M571.91,313.095l-1.301,10.603l-27.801,39.482l-24.152,19.951l-13.127-12.6     M534.797,335.428l-26.641,31.952l-48.093,52.503l-38.221-32.131 M397.48,466.925l8.821,5.881l13.65-28.772l30.25-32.442     M418.481,444.034l-27.003-48.512l-10.799,22.666 M391.478,444.034l-6.276-35.338 M322.624,413.766l12.903,8.637 M388.34,420.723    l9.14,47.883l-4.57,5.67l-38.482-30.242l-27.371-27.3 M351.597,401.894l-17.449,1.016l-15.938-2.88l-25.737-19.482l-5.901-5.049     M256.072,340.062l17.208,53.453h9.153 M255.056,359.701l-3.033,8.813l-5.591,3.885h-4.453 M251.932,356.223l15.548,19.276     M270.217,385.571L253.918,374.2l-3.506-5.212 M499.398,219.097l-6.135-5.678l-8.456-3.382l-12.121-2.255l-11.547-3.285     M469.398,210.181l18.609,4.225l9.414,4.287 M448.304,223.763l-10.852-1.183l-11.98,6.624l-5.637,12.825l1.127,13.581l4.228,9.549    l6.484,7.257l9.301,4.707l13.953-2.255l5.638-6.06l5.355-10.571l-1.691-17.053l-5.637-9.302L448.304,223.763z M441.962,222.58    l0.916-3.887l-1.621-3.545l-6.342-1.588l-0.603-5.214l6.523-9.302 M442.385,205.224l0.493-1.529l-4.283-10.007v-10.429    l4.283,1.409l8.104,17.758 M455.915,228.64v-6.905l12.543,4.087l8.456,6.024l9.161,8.915l5.638,8.456l-16.349-12.966    l-12.825-7.188 M450.982,218.693v-3.545l4.228-6.098l-1.006-9.583l-6.323-20.547l-1.832-0.735l-0.935,7.752l1.013,5.85     M451.653,216.508l1.155,0.622l3.107,4.605 M459.283,233.02l2.321-1.23l0.534-3.198l-2.855-2.666l-4.576,2.89 M464.23,241.184    h1.045l4.123,3.043l1.114,2.703l-2.365,5.315l-2.226,2.092 M441.624,300.99l1.254-3.221l3.465-1.725l2.373-1.222l3.019-5.104    l-11.502-12.595 M452.443,275.269l1.018,3.665l7.045,8.986l0.647,3.235l-10.927,9.835l-5.464,1.38l-2.918-1.945 M427.58,273.686    l5.492-0.563l0.331,7.896l6.555-4.411 M454.928,274.868l5.178,1.421 M454.204,279.215l3.889-3.478 M461.153,268.065l7.81,5.058    h5.377 M457.517,283.406l9.311-5.93l2.135-4.353 M332.847,233.948l22.562,12.109l25.139,9.553l7.458,4.514l5.721,1.406h2.672    l3.492-13.791l-2.285,12.385v9.707l-2.415,1.931 M424.246,263.027l-12.31,2.122l-0.691-14.374l-8.845-16.827l-12.945-16.818     M397.839,258.864l13.406,6.285 M434.312,207.239l-30.53-8.8l-11.334-2.119l-11.142,0.829l-24.231-6.496l27.081,13.844     M349.137,196.458l7.938-5.805l25.227-8.634l12.889,2.277l9.64,6.357l20.235,7.187l14.186,3.46"/>
	</g>
	<path fill="none" stroke="#ABFF4F" stroke-width="0.27" stroke-miterlimit="10" d="M374.204,202.539l-22.39,12.608l25.573-11.524   l-7.468,9.282l12.05-8.429 M383.439,204.749l-10.401,11.611l16.091-11.611l-14.787,15.757l20.849-17.284l-29.287,27.815"/>
	<g>
		<path fill="none" stroke="#ABFF4F" stroke-width="0.81" stroke-miterlimit="10" d="M399.891,203.452l-15.044,10.332     M385.212,218.693l10.481,12.344l-6.727-13.908 M232.348,215.147l12.153,15.89l14.657,16.102l8.442,9.553l9.553,12.465    l7.615,20.637l2.827,13.996 M262.406,309.031l-11.307,9.93 M251.939,321.264l6.635-2.303l36.059,25.002l-8.061,17.463    l-8.842,9.267l-4.45,22.822 M346.887,389.224l-8.958-45.261l-3.631-20.385l35.834-30.085l-60.399,38.496l-15.099,11.974     M309.733,331.989l24.565-8.411l30.425-3.397l32.758,3.274l16.372,5.408l13.973,3.494l12.407,3.071l62.255-22.333l16.681-9.497    l35.467-20.193 M519.169,303.598l31.455-10.105l18.338-10.088l16.045,5.044l3.62-1.455v7.312l-17.349,19.5l-30.827,21.22    l-3.871-1.357l-16.919,16.699l-10.754,5.162l-9.606-4.015l-4.12-27.462 M518.656,383.131l16.14-20.795l5.654-27.31l10.173-41.533     M570.608,323.698l-35.812,38.638 M277.544,238.823l28.631-1.184l17.92-4.619l17.681-7.095l15.299-4.191l15.047-4.605     M605.81,266.785l-14.876-3.1l-40.311-4.821l-13.823-1.235"/>
	</g>
	<g>
		<path fill="none" stroke="#ABFF4F" stroke-width="0.25" stroke-miterlimit="10" d="M530.243,265.876l-1.604,4.718 M514.04,270.009    l1.825-5.88l-0.407-10.492l7.504,13.148l7.946-0.909l-6.093-3.369l-8.803-9.168l1.404-1.579l-12.534-6.21 M512.316,269.502    l-5.495-8.212l8.824-2.829 M501.975,262.207l4.846-0.917l9.044,2.839l7.097,2.656l-7.504-8.536l-12.079-13.75l3.442,16.791    l-6.884-3.661 M519.413,270.594l-3.097-6.296 M497.421,254.336l0.6-12.966 M468.962,243.142l30.975,26.768l-22.091-30.538     M462.137,231.246l17.776,10.984l-7.096,4.243h-2.305 M468.962,250.412l30.975,20.182l-8.224,10.069l-5.858-11.161l-16.893-7.295    c0,0-3.442-8.015-3.428-7.871 M463.91,262.207h5.052l5.377,10.915l15.931,7.533l-21.308-18.448 M467.746,252.621l18.109,16.881    l14.082,1.092 M512.243,219.873l1.797,9.6l-5.982,3.547 M284.768,258.864l12.595,1.896l23.439,6.437l19.656,4.564l9.158,5.098    l3.982-0.018 M352.142,282.278l-2.526-5.419l-3.903,2.71l-5.255-7.808l-6.001,3.438l-3.929,2.468l14.708,1.717 M287.595,262.585    l12.558,7.128l17.977,1.205l16.327,4.281l11.256,4.37l6.003,2.651 M337.567,266.013l2.891,5.748l4.96-3.22l4.198,8.318     M334.457,275.199l-16.802-1.215l0.475-3.066l2.885-3.671l0.771-2.549 M304.746,275.791l13.384-4.873l22.032,0.774     M309.01,259.469l12.005,7.778l16.902-0.538 M289.534,266.709l10.619,3.004l0.114,6.705 M306.543,258.458l-9.18,2.302l2.79,8.953    l-9.603-0.271 M282.325,254.696l15.038,6.064l20.767,10.158 M266.898,264.225l-14.028,8.183 M228.547,241.186l8.605,3.437v4.582     M230.139,263.891l-9.494-13.862 M239.183,224.083l9.141-13.879 M302.171,191.164l-32.931,2.472 M292.708,200.821l9.785-9.162    l-27.896,11.563l-16.069,18.98l3.878,8.835l9.736,21.817l9.427,10.253l8.13,23.498l7.245,13.522l15.552,12.901l1.513,3.921     M329.992,195.535l-36.789,5.286l13.114,4.961l13.072,8.002 M280.232,220.246l13.003-2.693 M340.162,226.573l2.024-16.754    l-24.388,13.078l6.332,10.108 M277.544,232.085l2.688-4.109l25.942,9.663l-6.021,4.95l-6.95,5.442l-5.394,7.578 M299.848,226.716    l-19.616,1.26 M410.117,169.068l-5.286,6.466l-13.84-9.483l-17.316,1.031l-8.786,12.557l-7.814,11.014l-11.391-11.734    l27.991-11.837l8.627,14.936 M397.726,160.639l-24.051,6.443 M444.788,170.044l-14.814,6.922 M114.891,283.938v-1.721l4.46-6.71    l10.561,17.434l1.063,3.538 M167.432,293.139l-14.818-1.324l-22.702,1.126 M173.578,316.949l-22.479-17.162 M171.963,320.181    l-30.668-20.394l-6.157-4.132 M151.099,303.958l20.404,15.917 M204.296,295.249l4.793,4.205l-0.276,17.024l4.719,0.471    l16.886-5.937l-12.522,14.976 M195.642,299.547l6.816,15.96 M228.773,337.14l-18.061-11.448l-5.316-16.661l-4.269-15.538    l-1.607,11.677l5.876,3.861l-2.938,6.476l7.21,9.221l-11.792-8.006 M215.635,324.262l-4.923,1.43 M237.849,355.526v12.788    l1.941-3.472 M238.503,347.392l8.584,24.552v-13.332 M252.272,367.789l-1.174-10.442l-4.011,13.345 M256.072,331.989l2.649-12.114     M248.517,314.455l13.812-5.424 M254.363,374.509l13.117,3.46 M570.609,316.949l12.98-13.002l-4.96,14.604 M595.52,302.487    l-11.931,1.46 M588.436,271.431l0.19,15.563l6.894,13.995 M597.674,279.214l-9.048,7.78 M586.75,287.748l-15.473,26.058    l-2.315-30.401 M550.624,293.493l20.653,20.313 M590.934,263.685L549.06,242.23l-21.309-5.139 M556.397,270.009l-5.773-11.145    l-1.564-16.634h-17.473 M444.004,301.865l8.546-4.566l3.365-5.521l-4.417-8.373l-4.493-7.257 M447.895,295.244v1.114l4.655,0.941     M441.844,300.989l6.051-4.631l7.033-4.58l-3.193-2.061l-0.237-6.312l-3.603,1.327l-4.546-7.61l1.291-0.834l5.583,5.489     M448.386,276.148l5.414,4.507l-2.707,2.095l8.383,3.856 M460.106,292.097l-9.013-9.347 M455.915,291.778l3.561-0.335     M454.928,279.575l1.869,0.657l3.309-3.944l-1.704-3.873 M454.928,280.663l1.869-0.431l8.389-1.968l-6.492-6.818 M456.551,273.122    l3.893,3.166l4.314,1.527l2.988-3.565 M458.592,231.881l-2.677,5.21l-7.529-12.583l-6.542,4.965l-11.693,3.178l7.301-10.071    l4.392,6.893l-6.914,12.846l-4.779-9.272 M420.962,255.609l3.284,2.916l6.402-1.728l-5.844-12.24 M463.91,244.557l-7.995-7.466    l-14.071-7.618l8.116,15.705l-15.03-2.859l-10.126,2.238l-0.558,13.428l-4.411-15.956l4.969,2.528l4.725-11.906l-4.057-3.447    l-4.66-5.121l-13.61-14.547 M464.23,245.427l-3.617,4.424l-10.653-4.673l5.955-8.087l4.698,12.76 M453.784,274.867l-6.351-1.745    l-10.715-2.528l-5.045,1.821l-7.427-13.89l12.472,12.069l4.499-8.588l-10.569-5.209l4.282-14.478l7.948,6.898l7.082-4.039    l1.538,13.686l9.115-9.013l5.147,6.761 M440.975,277.122l-4.257-6.528l-6.07-13.797 M442.496,248.885l-1.279,13.121l10.281-3.142    L442.496,248.885z M441.844,276.982l5.589-3.86l9.118-6.806l6.172-1.767l-1.683-14.137l-4.489,15.904l-5.053-7.452l-4.065,14.258    l-6.216-11.116l-6.287-19.687 M454.928,274.867l1.623-8.551 M442.878,222.641l1.493-2.18l0.417-3.954l0.325-3.621l2.868-7.146    l-2.551-9.562l-2.552-12.315l-4.283,4.568l4.693,9.476l-0.41,4.632 M439.14,194.962l4.148,2.945l4.693,7.833l5.057,3.103    l1.825-0.225 M438.595,189.041l6.835,7.137l4.53,4.473 M442.878,203.694l5.103,2.046l3.517-2.627l1.54-2.462l-2.876-1.167    l-3.157-15.621l0.976-3.052 M445.732,180.811l1.273,3.052l-1.791,1.243 M445.374,187.438l3.99,8.097 M447.005,183.863    l4.493,10.526l1.54,6.262 M439.252,201.3l-1.242,3.923l4.422-2.571 M436.163,213.961l2.432-2.068l6.518,0.993l-2.681-7.076    l-3.837,6.083l-2.462-1.082l1.877-5.588l-2.601,1.557 M453.038,208.843l-7.925,4.043l2.868,2.261l-3.193,1.36l-1.91-1.36    l-1.357,0.578 M438.595,211.893l4.283,3.254l2.235-2.261 M450.982,215.147l-3.024,0.447 M450.996,224.989l0.657-0.906l-0.671-5.39    l-3.001,0.375l-3.61,1.393l1.003,2.848 M452.417,226.479l-0.764-2.396l2.551-3.368l-3.222-2.022 M453.57,227.469l0.634-6.754     M455.21,224.989l-1.006,2.48 M451.498,203.113l1.095,5.457 M465.186,243.471h3.189l-0.629,5.414l-2.56-1.125 M465.186,246.178    l3.189-2.707 M465.186,252.854l2.56-3.969l2.144-0.557 M324.832,181.271l-1.368-4.698l-5.628,0.295l1.347-8.112l-3.377-15.893    l4.996-9.451v13.013l7.073-7.163l-2.414-9.995l7.385,5.955l0.534,14.097l-3.388-1.064l-4.531,7.796l4.531,3.349l5.636-1.173    l-5.636,8.739l-3.936,4.305 M312.496,145.848l3.31,6.677l4.996,3.9l4.659,9.626l-6.278,2.705l-5.174-2.705l1.561-13.186     M311.323,155.559l1.173,1.743l3.31-4.777 M329.992,137.164l-4.531,2.103l-4.659,4.145l-4.996-5.149 M322.107,133.749l3.354,5.518     M316.182,138.65l-0.657,13.309 M320.802,143.412l6.979,5.459 M320.802,156.425l-1.619,12.331l4.281,7.364l1.997-10.069    l2.414-16.789 M335.628,168.227l-2.248-8.908l-5.505-10.057l2.117,8.993V169.4l-6.528,7.173l6.082,0.882 M333.38,159.319    l3.476-1.63l-4.01-12.467 M331.007,138.65l1.839,6.572h2.127 M331.612,179.761l-1.62-2.795V169.4l3.555-9.421 M288.718,142.47    l0.005,7.332l-6.569-0.032 M289.733,113.654l1.668,2.457l4.152-2.076l4.975-2.922l7.637,4.998l-0.615-5.383l-2.595-3.808     M295.876,107.849l1.075,0.649l6.062-0.649l0.743-1.529 M295.876,109.036l-4.475,7.075l-4.153,12.843l3.627-5.844l3.294-3.077    l3.768,4.461l3.692-1l-1.462-6.383l-4.614-3.076l1.849-5.585l3.534-3.182l2.077,2.581l4.537,2.879l3.384,1.923v4.152l6.536,6.307    l2.157-2.035 M317.527,116.659l-5.031-7.238l-1.562,3.23l-2.769,3.46l-3.691,1l-3.946-5.998l-0.361,5.998l-5.998,2.922l1.108-5.86     M297.402,108.45l3.126,2.663l2.699-3.704 M310.934,112.651l6.536,10.459l-4.974-13.689l-4.331,1.23l-7.637,0.462 M317.47,123.11    l4.153,5.533l-4.096-1.612l4.096,4.307l-4.096-0.422 M321.623,131.338l-3.24,3.013h4.09 M291.401,116.111l2.768,3.615     M300.167,117.111h3.999l1.077,6.383l1.769,9.766l-2.923-1.153l-2.46-8.613l-7.186-3.137 M308.627,116.111l1.845,3.922    l0.851,4.614l2.242,6.269l-6.553,2.344l3.46-13.227l-6.306-2.922l-2.537,6.383l-3.076,16.38l-0.616-15.38l-0.986,3.998     M295.234,141.936v5.476l3.319-7.538l5.921,3.538l2.538-10.152l4.921,7.844l-7.459,2.308l-0.385-11.305l-5.536,7.767l-1.602-1.224     M307.012,133.26l8.513,3.904l-1.96-6.248l3.054,2.344 M315.525,137.164l1.094-2.212 M293.402,158.02l1.832-10.608l1.242,12.567    l2.077-20.105 M304.474,143.412l-7.523,16.857l6.633-10.467L304.474,143.412z M302.815,157.302l-5.864,2.967l-3.489,0.979    l2.979,4.782v-5.761l4.743,3.942 M298.034,176.573l-1.083-5.605l2.226-2.741l-3.2,1.026v-3.497l2.576,2.194 M300.946,164.013    l-4.505,1.743 M293.203,168.587l1.729,1.901l2.019,0.48l2.963,0.635 M292.5,176.527l2.432-6.039l2.645,6.195l-1.89,3.914    l-5.414-0.874 M298.553,176.573l-6.606,0.747 M296.559,181.873l-0.872-1.276l-4.812,2.547 M291.401,102.59l-2.823-6.986    l4.207,2.871l-1.076-5.281l5.693,2.126l-2.675-6.242 M301.311,93.056l-3.909,2.264l4.468,3.715l2.365-0.743 M304.809,94.977    l-2.744,0.343l2.271,2.611 M302.065,95.32l-0.205,3.909l-1.332,6.108l-3.577-3.845l-0.51,4.782l-3.656-5.468l-0.87,3.498    l-3.635-5.898l0.343-3.224l1.11-3.223l1.976,1.235l2.46-4.116l5.139,2.327l2.003,1.651L302.065,95.32h-4.663l-4.617,3.155    l4.166,3.017l4.909-2.263l1.13,4.032l-2.054,2.007l-5.935,1.006 M289.225,96.045l3.513,4.951l0.252-2.373 M296.951,101.492    l-4.213-0.496 M291.709,93.194l-3.131,2.41 M382.225,162.214l3.476-0.979l3.428-0.966v2.422l-1.337,0.367l-2.922,0.803    L382.225,162.214z M385.896,161.434l-0.651,2.324l2.98-0.819L385.896,161.434z M382.487,158.954l3.214,2.281l1.349-3.546    l-2.863-0.227l-1.7,0.97l-1.181-4.665 M386.45,157.231l-3.51-4.111l1.247,4.342L381,153.767 M381.693,149.262v3.397l-2.725-3.603    l2.338-3.602l-2.615,0.231l-3.048-1.201v4.087 M378.668,138.341l0.023,7.344l0.277,3.371l-1.124,1.755 M375.643,148.317    l3.025,0.693 M374.287,134.138l4.404,11.547 M373.703,134.138l1.709,10.346l-4.885-7.067l1.005,2.725 M372.502,133.907    l-1.975,3.51l-1.166,1.894 M372.776,132.382l-3.184,2.08l-0.231-7.99l2.91,3.741 M372.502,125.686l-3.141,0.786l-2.54,0.831    l-2.725,6.096v3.788v3.186 M359.164,116.257l1.422-1.609l3.51,4.942l-3.804,3.274l1.403,3.608l2.401-6.882l2.725,7.713    l2.771,7.159l-5.496-1.063l-2.771-1.531l-2.496-1.49 M360.91,117.835l3.081,1.606 M359.832,116.542l1.078,0.877l-0.324,4.48     M361.187,149.262l-0.77-3.3l1.278-14.094v-5.396l-2.556,4.09l-1.001,6.855l-1.063-0.6 M355.863,150.811l0.613-0.739l1.662-0.81    l2.279-3.577l3.679-8.498l5.496-2.725l-2.817,4.188 M370.527,137.417l-0.935-2.955 M367.283,109.799l-0.185,4.849v4.793    l-0.277,7.862 M357.075,109.983h4.62h4.064l4.526-0.184l2.491,0.508l2.159-0.254 M371.95,107.52l0.826,2.787l0.634,10.622    l-0.44,1.709 M375.412,117.558l-2.636-7.251 M363.265,107.52l-1.547,2.279l-3.58,2.078l-4.618,8.724l5.309-5.522l1.588-0.662    l-2.279-2.54l1.001,4.018 M368.484,107.72l1.801,2.079l3.092,11.258l2.035-0.913 M361.695,109.983l3.371,3.002l1.755,6.236    l-2.725,0.369 M360.879,117.835l-0.293-3.187 M363.991,119.681l0.842-6.609 M369.13,113.401l0.395,4.434l-0.164,8.267l-2.54-6.661    l2.704-1.606l-2.427-3.187L369.13,113.401l-1.857-3.348l-2.207,2.932l-4.48,1.663l1.109-4.665l0.389-3.057 M365.297,113.072    l1.801,1.576 M358.283,137.698l2.134,7.987l-3.987,0.184l-0.878-0.184 M356.43,139.034v6.835v3.926l2.632,2.864l-0.924-3.397    l-1.708-3.393l1.755-8.002l3.51-5.999l2.401,5.319l1.663,1.463 M354.902,152.186l1.528,2.828h1.985l-3.279,4.965l0.139-3.896    l-0.373-3.424 M352.827,158.954l2.448-2.871 M357.307,161.235l-0.508-3.773 M353.427,159.979h1.709l2.091,0.66 M356.799,163.46    h-0.936l-0.961-3.191l-2.675,1.796l1.2,2.556 M353.658,164.621l1.669-1.524l-2.5-0.501 M354.051,154.783l1.212,1.642l1.167-1.411    l2.483-2.517 M373.377,121.057l2.513,7.631l-2.48,1.779 M363.425,84.087l-0.835,10.579l-2.408-5.289 M365.618,89.377l-3.028,5.898    l-2.004-1.539 M377.875,87.506l-2.94,5.067l-3.815,4.048l2.974-6.826 M370.895,96.851l5.398-2.402l-1.358-1.876l-0.841-3.196     M361.208,97.964l3.05-1.826h3.747l2.522-0.15l0.368,4.841l-3.228-1.952l-4.565,2.515l-1.407-2.552l-0.332,3.715 M364.853,93.586    l-0.338,2.402l-1.413,5.404v5.256l3.719-2.292l3.136,1.727l0.938-5.254l-3.002-4.841l-2.275-2.402 M364.258,96.138l3.192,2.859    l0.255-2.634 M366.617,108.034l0.204-3.678l0.629-5.359 M366.821,104.356l-3.556-3.054l-2.246,1.527 M370.527,95.875l-0.833-1.576    l-1.801,1.689 M365.618,88.446l-3.028,1.592h-2.525 M278.734,75.774l3.42,11.732l-1.375,1.746 M285.961,94.977l-3.807-7.471    l5.094,5.55l-4.172-8.969l-4.342-8.777 M284.154,81.443l-1.078,2.644l-0.922,3.419 M288.769,91.594l-5.693-7.507 M297.684,71.939    l-4.282,3.371l3.549,14.728v-10.31l0.733-6.041 M300.314,81.443l-3.363-2.256l1.602,9.891l2.266-5.743 M114.003,283.405    l15.909,9.536l20.896,10.849l22.77,13.159l15.256,0.712l8.527-1.427l-1.531-16.462l5.297-6.831v-14.767v-10.977v-4.872    l4.678-14.294l3.863,1.113l11.729,0.234l12.897,10.091 M135.967,282.278l-6.055,10.663l21.061,6.143l19.46,8.675l15.278,1.272    l-0.97-20.212l-13.839,8.313l-18.288-5.317l-11.668-7.214 M237.152,278.724l-28.063,20.73l42.761-8.242l-21.432,19.8     M206.975,292.941l2.114,6.513l4.443,17.495l3.35,8.751l10.711,3.044l6.005,8.614l14.313-27.125l-17.493,0.779l21.432-10.962     M174.148,321.264l7.087,5.446l0.055,6.082l-12.431-2.306l3.104-7.751 M173.578,316.949l7.657,9.761l6.333,8.317l3.958-2.235    l0.673-2.663 M186.178,330.486l5.348,2.306l4.908,4.566l3.086,3.445 M196.315,334.246l-4.789-1.454 M128.803,327.636l13.958-2.908    l8.071-8.494 M136.747,329.135l6.014-4.407l0.495-9.221h6.874 M147.033,333.809l17.729-5.374l-14.746,8.705 M217.09,359    l3.093-2.074l3.958-0.688l4.272-1.845l9.436-3.571 M212.425,330.486l-13.603,5.159l18.697,5.765l-19.233,0.623l1.234,7.153    l20.663,7.74 M256.072,340.061l21.659,30.631l16.902-26.729l7.746,17.08l22.14-13.933 M251.098,302.661l12.149,6.755l-4.673,9.545    l50.271,13.028l15.674,15.121l-1.502,37.968 M336.276,392.092l-11.757-44.982l22.367,42.114 M324.519,347.11l13.41-3.147    l12.685,1.673l-2.504-13.279l-13.812-8.779L324.519,347.11z M337.929,343.963l10.181-11.606l16.612-12.176l4.762,18.379    l8.56,35.792l7.905-40.7l4.382,29.19l10.343-21.484l17.807,12.402l3.68,0.336 M282.433,393.515l-4.844-22.098l9.651,1.175    l-1.122-10.689l5.423-0.351 M370.131,293.493l27.349,29.961l16.372,5.409L370.131,293.493z M370.131,293.493l70.101,41.935    l114.403-52.023L370.131,293.493z M191.539,252.094l6.747-4.063l2.898,4.063 M205.805,248.031l1.17-14.084l5.111-17.808    l10.289,4.055l16.808,3.889l19.345-1.881l17.675,1.56l-13.797,7.275l-19.106-1.571l-12.258-1.49l-13.523-3.893l7.851,6.954    l10.245,5.13 M224.558,209.453l7.791,5.694l16.583-5.694l20.308-9.968v-5.849l22.707-5.133l16.795-2.008l13.538,5.292    l-19.454-0.71l27.166,4.458l-0.883,7.004l13.077,7.28l16.613-4.283l-4.97-6.051 M303.341,320.181l-4.453-3.232l3.491-4.098    l5.699,4.098l4.418-3.921l-0.125-8.847l-15.427-4.055l-9.135,5.044 M286.268,308.079l1.541-2.909l14.57,7.681l10.117,0.177    l4.294,0.567 M284.768,293.493v-3.699l4.224-3.189l3.181-5.668l-4.578-17.252 M296.424,288.907l-7.432-2.302 M274.03,276.841    l3.124-7.684l4.415-6.05l4.865-2.348 M264.627,260.183l2.974-3.491l4.541-3.838l6.03-0.356l-3.318-13.12l1.349-15.616     M276.64,221.955l3.592-1.709l9.501-11.403l-11.561,1.153l-0.096,3.787l11.657-4.94 M276.64,229.14l3.592-1.164l-2.688-0.838     M279.243,220.716l0.989,7.26l13.531-10.847l25.626-3.346l9.72-11.244l-36.401-1.718 M276.203,222.897l-1.606-19.675l3.575,6.774    l14.536-9.175l-2.975,8.821l29.656,4.141l22.797-3.964l11.643-10.334l-24.72,3.054l-21.738,2.997l-17.638,4.106l3.502,7.911    l6.918,9.585l6.021,10.501l11.624-14.742l22.364,3.676l11.652-11.426l5.261,6.587l12.845-8.829 M374.204,202.539l-15.405,2.997    l-6.985,9.611l-9.628-5.328 M300.153,227.138l19.236-13.355l-1.591,9.114L300.153,227.138z M277.883,241.139l22.27,1.45    l20.649-2.291l8.307-2.659l6.304,3.359l19.404,4.741l25.118,18.486 M280.232,238.823l19.921,3.766l12.343,6.555l8.306-8.846    l-14.154-2.659 M288.746,255.609l23.75-6.465l-9.245,8.53 M336.732,242.005l-24.236,7.139l11.134,2.95 M201.127,292.941    l22.38-23.784 M170.433,307.759l-17.819-15.944l-1.641,7.269l-0.165,4.706 M186.178,278.3l0.254-15.715l14.752-10.491    l-0.057,10.231l-14.949,17.022l14.949-12.15l23.014,1.96l13.011,9.567l-31.347,14.769l17.702-24.336l-22.38,9.017l-16.386,10.645    l9.598,2.996l1.303,7.732l-9.931,9.484l-12.133,7.918l-3.145-9.19l0.469-10.627l14.809,11.899l3.123,8.63l-7.599,9.049    l8.855,1.311l-1.256-10.36 M190.09,343.169l9.43,6.017l16.933,11.292 M233.598,337.358l22.767-3.973l-15.953,11.998l14.643-1.513     M241.979,352.617l-1.567-7.234l-4.797-4.58 M253.195,354.519l-9.902-0.096l12.643-11.254 M186.178,279.347l15.006-27.253    l5.791-18.147l-8.689,14.084l-29.427,82.455l9.726-1.351 M161.486,316.234l6.483,14.888 M153.02,318.5l4.792-3.556     M197.361,334.246v-18.012l15.064,14.252l5.094,10.924l10.894,12.983l2.056,10.449l-6.328-8.604l-25.319-13.561 M215.635,362.375    l12.231,3.095l-3.725-9.232L215.635,362.375z M213.532,367.249l14.061,5.149l9.559,1.213l-4.181-3.503h4.181l-4.181-2.859h3.205    l-3.205-3.832l-4.558-9.024l-7.914-17.035l-3.917-6.236 M230.418,311.012l-2.552-8.351 M185.711,309.031l8.628-17.216    l6.788-13.641l-14.283,0.415l-2.103,10.23 M140.946,331.989l18.14-8.311l-11.096,9.841 M144.385,332.357l13.427-8.095     M144.338,346.71l24.521-3.004l1.103-10.914l-20.751,4.067l19.648,6.847l10.359,17.72v10.972l-2.486,15.194l-1.894,14.677    l1.48,12.631 M200.643,352.366l-21.425,9.06l-24.56-9.969l14.201-7.751l12.963-8.061 M166.908,393.515l7.93,8.754l27.343,23.319    l18.347,6.746l29.884-1.893l-43.497-40.363l13.613,42.256 M206.273,355.377l0.642,34.701l-27.697-28.652l-18.378,0.476    l15.968,25.229l25.373,38.457l-1.538-21.188l6.272-14.322l-27.697-17.68l-18.378-10.496 M228.413,374.196l-21.498,15.882    l58.381-7.941 M177.398,417.188l35.032,59.209l25.908,35.149l14.367,15.346 M297.366,401.247l-20.249,46.932l-8.911,38.29    l-17.794-56.028 M303.976,404.523l-7.882,57.518l-18.977-13.862 M268.206,486.469l4.785,45.539l19.472,2.475L268.206,486.469z     M226.787,479.532l53.548,67.822l-7.344-15.346L226.787,479.532z M303.459,558.728l-30.557-27.571l-34.399-46.674l-36.322-58.895    l24.606,53.944 M179.218,372.398l21.425,32.002l19.885,27.934l21.275,28.386l8.609-30.279l26.705,17.738l10.891,54.291    l-19.802-16.001l-29.703-1.986l-11.716-4.951l-49.604-62.799 M238.827,512.068l41.214,34.672l18.858,14.606l-24.915-29.212     M219.613,431.998l18.89,52.485l3.3-23.763l26.403,25.749 M200.643,404.4l-23.911-16.808l-17.353-14.855l15.459,29.532    l-13.323-20.132 M258.574,318.961l5.107,31.861l9.605,41.27 M294.633,343.963l-30.952,6.859 M309.733,331.989l-6.83,30.307     M370.131,294.868l-5.409,25.313l21.227,13.471l11.531-10.198l3.194,17.904l5.859,35.965l11.948-23.563l-4.629-24.897    l-13.178,12.495l-14.725-7.706l-16.465,4.908l-18.87,7.076 M287.24,372.592l41.835,26.11l41.056-5.187l21.347,2.006l30.683,1.683    l8.924-1.683 M423.841,351.823l-2,35.928l0.32,9.453l-3.68,46.83l-13.826,23.433l-7.798-2.125v-3.301l7.798,5.426 M448.366,346.71    l-26.525,41.041l-10.012-13.399 M347.241,385.078h29.033l-6.161-19.028 M350.085,351.823l26.189,33.255l18.966-17.848     M421.841,387.751l-45.567-2.673l15.204,10.443L402.2,390.3L421.841,387.751z M347.744,389.204l21.35,4.442l7.18-8.568    L402.2,390.3 M380.679,418.084l-11.585-24.438l-17.497,8.695L380.679,418.084z M351.597,402.341l24.677,32.672l14.295,9.021    l-9.603-26.449 M337.929,402.689l37.992,31.856l-20.497-0.703l-20.957-30.932 M380.679,418.084l-4.405,16.929l18.59,30.329    l-1.954,8.933l-37.486-40.433l-1.951,9.239 M390.569,444.034l4.295,21.308l2.616,3.263 M332.033,421.696l23.391,12.146l39.44,31.5     M330.826,417.831l-29.943-30.08l2.576,2.549l51.965,43.542 M284.565,384.234l18.894,6.066l-20.699,1.792 M387.958,402.91    l16.697,64.557l6.981-35.732 M458.515,353.33l1.179,65.287l16.046-54.628 M451.735,348.113l7.64,0.98l12.922-14.837l8.794,30.593    l-21.716-15.756l-19.143-14.837 M501.612,313.409l-29.315,20.847l19.977-8.55 M440.869,336.096l31.428-1.84 M499.006,349.553    l2.606-28.059l1.644-8.837l16.104,36.896v-44.97l17.07,28.078l14.194-38.447 M496.711,334.256l-8.811,6.76 M498.025,343.017    l-11.07,3.045 M485.209,350.435l24.056,15.615 M349.616,282.278l20.515,11.215l57.449-25.66 M310.784,302.661l59.347-9.168     M262.554,309.031l23.137-3.861 M280.882,288.907l-18.877,20.476 M274.787,278.174l-22.937,13.038l-23.984,11.449l-18.777-3.207    l21.329,11.558l-2.552,18.123 M262.554,309.383l46.291,22.606 M239.81,280.663l21.743-7.607 M245.414,273.056l3.505-9.371    l-1.753-14.541l-3.866-3.074l0.433,10.098h-4.628l-0.448,6.939 M258.574,253.409l-11.408-4.265l7.5,13.963 M266.27,263.107    h-11.604l-5.747,0.578l-5.619,1.56 M253.291,273.056l-4.372-9.371 M261.465,256.168l-6.799,6.939l-1.375,9.301 M201.127,267.197    l7.109-6.438l1.432-11.615l2.441-15.197l5.41-9.864l1.285,9.864l11.335,2.22l-3.747-6.377l-7.588,4.157l1.852,15.416l6.937-9.065    l-8.789-6.351l-8.257,16.116 M232.349,215.147l-9.974,5.047l-5.693,3.568l-4.596-7.623L232.349,215.147z M209.668,249.144    l-8.541,13.181l7.109-1.566l13.161-11.381l19.598,3.408l0.943-3.642l1.362-3.504 M248.176,263.891l-4.443-7.723l-1.795-7.024    l-4.786-4.521l-6.11-8.456 M217.519,341.41l6.622,14.828 M192.199,345.383l0.65-5.322l3.585-2.703l0.662-2.331 M187.568,335.027    l8.866,2.331h2.038 M197.361,316.234l-7.317,11.402 M259.947,248.031l12.195,4.823 M274.854,239.378l-13.301-8.412l-2.394,16.173     M225.06,209.819h23.859l7.919-10.334l2.321-7.698l10.081,1.849l12.962-7.141l8.965,2.185l12.084,2.484l5.491-4.669     M238.072,205.536l18.766-6.051l12.402-5.849l5.357,9.586l-5.357-3.737 M248.919,209.819l-9.109-4.843l4.691-6.819l12.337,1.328     M243.788,198.157l15.371-5.763l23.043-5.899l17.951-3.351l15.653-7.61 M252.87,192.981l6.289-1.194l10.081-4.231     M323.539,181.271l-2.737,1.873h-20.649l8.589,3.351l39.727,10.297 M334.973,172.993l7.338-4.406l8.882-5.127 M374.204,159.979    l-17.129,4.833l-14.764,3.775 M377.844,159.319l-4.169,7.763l-31.96,1.505 M397.726,159.979l-6.735,6.072l-8.689,15.967    l-17.413-2.379l-19.205-0.72l-24.882,4.225l27.667,13.648l-2.785-17.873l-3.373-10.332l-5.877-0.949 M416.438,185.673    l-5.459,0.822l-6.148-10.961l-9.64,8.329l-13.222,13.236l0.333-15.081l22.529-6.484 M381.969,197.099l3.243,7.815l7.236-8.595    l2.743-12.456 M398.626,160.639l6.205,14.895l-0.432,14.834l-0.617,8.07l-9.588,4.784l-1.746-6.903 M405.469,203.725l-1.687-5.287    l20.464-0.281l-13.267-11.662l16.782,7.894l-7.926-6.893 M428.362,191.971l-0.601,2.418l-2.459,4.049l11.416,6.476     M404.399,190.368l6.58-3.873 M440.524,199.485l-12.763-5.096l11.941,3.156 M439.702,195.535l-11.941-1.146 M279.243,248.031    h13.96l18.657,0.775 M325.461,232.471l11.777,1.476l4.079-7.838l15.305,1.029l0.453-5.404 M370.963,217.129l-14.341,10.009    l17.72-6.632l-13.768,10.531 M375.349,222.579l-0.487,19.214l6.183,12.831l-25.636-19.479l-0.592,10.594l-2.196,8.392     M387.058,269.157l-6.013-13.548 M387.058,269.713l5.931-7.707l-6.899-17.383l-11.228-2.83l-19.453-6.648l-16.379-1.198     M381.045,220.461l2.248,11.101l-8.431,10.231 M382.607,219.777l9.75,12.523l-9.064-0.738l7.588,14.755l-4.791-1.694     M395.693,231.037l-3.336,1.263l-1.476,14.017l9.01,0.733L395.693,231.037z M396.399,261.529l-5.518-15.212l2.108,15.031     M395.974,232.108l9.594,17.743l5.677,14.698l-11.354-17.499l6.166,3.271 M411.936,265.149l7.899-18.099l-11.248-17.069    l-14.017-14.834l7.588,20.328 M405.32,209.819l2.786,19.654l-5.256,5.33l2.718,15.048l5.677,0.924l8.946-4.458 M420.191,241.219    l0.621-17.136l-12.706,5.39 M436.133,223.309l-15.336,1.199 M409.114,209.536l27.019,13.043l-20.797-15.799 M433.143,211.893    l3.575,10.686 M442.461,220.461l-9.318-7.131l9.735,5.363l1.91-2.186 M410.979,204.914l22.752,3.035 M422.624,174.989    l-6.853,5.822 M427.901,191.826l5.83-0.687v-12.753l-17.293,5.941 M438.595,190.653l-4.864,0.486l4.864,2.548 M434.93,179.151    l12.825-2.185l6.449,2.185 M457.204,176.966l-12.416-6.922l2.967,6.922 M411.245,170.044h0.804h33.064l25.42-1.288     M472.483,171.327l3.289,7.592l-30.984-8.875l-24.597-2.933 M477.886,184.73l-2.114-5.811l5.391,8.186l13.066,14.195h6.511    l8.321,8.236l8.799-2.298l5.924,9.657 M475.772,183.863l-11.427-4.15l-10.561,4.15l-1.367-1.845 M455.915,177.506l-2.131,6.357    l-3.622,3.98 M478.958,185.106l-3.846,5.547l-10.767-10.94l1.576,9.448l-12.137-5.298l-4.532-0.49 M450.996,189.041l14.925,0.12    l9.191,1.492l19.117,10.647l15.272,8.236l14.722,7.359l11.756,5.684h9.668l11.426-3.483l4.762-2.201l-12.892,0.832l-16.404-4.397    l-14.139-6.59l-16.681-5.279 M521.237,199.485l2.547,5.011l-5.384,2.244l-0.984-2.69 M529.454,204.893l-5.67-0.397l-6.368,0.198     M518.4,206.74l11.054-0.93l2.133,7.076l13.848-3.201l3.508,8.042l8.335-2.701 M570.193,224.18l-2.243,2.226l-9.668,4.305    l-18.393,2.309 M522.233,225.599l13.746-3.02l-4.53,6.894 M545.647,222.579l-8.847,9.143 M522.962,225.439l1.261-8.544h-15.381    l0.659-7.359 M453.57,197.404l11.544,1.541l9.779,2.355l18.128,6.209l15.821,9.386l-12.805-3.123l-3.016-6.263l1.208-6.209     M510.6,219.37l-1.758-2.475 M493.021,207.509l-8.899,2.671l-9.229-8.88 M451.802,191.659l13.203,6.783l0.916-9.281     M474.893,200.697l0.879-9.677l-10.658,7.925l-2.417,5.551l12.196-3.196l-2.747,6.649 M537.095,231.845l16.485-7.665l4.702,6.531    l2.933-4.297l4.647-8.488 M517.86,207.238l18.119,15.341l12.964-4.852l8.13,1.369l7.336,1.483l3.541,5.827l0.833,5.031     M535.533,230.711l0.446-8.132l-4.392-9.693 M567.95,226.406l-6.735,0.008l-4.142-7.318l-3.493,5.084l-7.478-1.739l2.841-4.714     M537.87,254.847l-5.331,5.066l1.244-11.825l-6.032-7.886l-9.351-5.827l-4.36-4.902l-8.511-6.405l-29.757-8.798l27.39,18.126    l4.896,0.624l4.157,9.21l5.201,9.53l8.79,5.869 M452.55,212.886l10.147,4.35l12.196,6.073l28.269,9.087l10.878-2.923l4.36-3.059    l3.642,0.242 M472.358,227.469l2.535-4.16l0.879-5.176l-0.879-4.172 M503.198,219.873l1.684,3.004l-1.72,9.519l-15.866-14.47    l-5.687,0.207h-5.837l-11.106-7.322l-9.803-5.071l-1.825,3.103l-5.057,6.304v4.223l-0.979,3.939 M525.598,236.147l-10.14-5.08     M526.003,258.871l1.748-9.654v-9.015l-0.745-5.445l-8.606-8.343l-6.157-6.541l-7.361,3.004 M537.534,253.637l-3.751-5.02    l-6.032,0.6l-10.335,2.543l10.335-11.558 M535.609,246.706l-1.826,1.911l-7.577,9.012 M499.398,241.713l12.817,0.517l15.26-1.72     M488.514,235.899l1.7-0.424l12.471-3.181l-4.043,9.076l9.416-8.35l10.342,1.355l-6.185,7.855 M493.452,238.475l-3.238-3    l-15.321-12.166 M475.772,218.133l26.558,13.712 M524.815,258.871v3.336l-1.853,5.268l-3.549,3.119l-4.664,0.852"/>
	</g>
</g>
</svg>