<?xml version="1.0" encoding="utf-8"?>
<!-- Generator: Adobe Illustrator 18.0.0, SVG Export Plug-In . SVG Version: 6.00 Build 0)  -->
<!DOCTYPE svg PUBLIC "-//W3C//DTD SVG 1.1//EN" "http://www.w3.org/Graphics/SVG/1.1/DTD/svg11.dtd">
<svg version="1.1" id="Layer_1" xmlns="http://www.w3.org/2000/svg" xmlns:xlink="http://www.w3.org/1999/xlink" x="0px" y="0px"
	 viewBox="0 0 254.5 251" enable-background="new 0 0 254.5 251" xml:space="preserve">
<path fill="#ABFF4F" d="M253.3,137.1l0.8-1.8l-9.5-5.5l-34.6-2.5l-0.7-1.5l3.9-28.2l0,0l-1.6-11.2l-2.1-6.5l0-0.1l-4.2-5.5l3.5-2.3
	l3-8.3l-5.4-10.6l-3.4-1.1V40.6l-2.6-7.4l-3.9,3l-0.7,1l-3.5-8l-2.2-0.5l-2.4,2.8l-3.2,14.8l0,0.1l2.6,7.6l-5.7,10.3l4.5,6.3v2.5
	l-5.8,9.5l-0.1,0L177,99l0,3.9h-2.1L164,79.8l-0.1-0.3l-0.5,0l2.2-1.9l6.3-13.2l-1.7-3.9l1.7-6l-0.4-3.7l-8.5-7.9l-3.2-4.9h-4.5
	l-0.1-0.1l0,0l-0.1,0l0,0.1H155l-3.6,4.4l-3.6,10.4l0,0l0.3,0.6l-8.1-5.6v6.7l-3.6-3.3l-1.9,9.2l0.1,5.6l1.4,1.1v11.7h-7v-2h-3.8
	l-0.1-14.7l1.4-1.9l0.3-1.9l0-4l-1.3-7.4L117,56v0.1v1l-3.1,2.7l-5.7-3.5l-2.3-7.1l-4.3,1l-8.3-2l-7.9-4.7L82,40.2L76.1,41l-8.5,9.6
	l-1.5,1.4l0.3,1.3l6.1,7.1l-9.8-3.5l-0.1,0.1l10.1,3.6l0,0l-9.8-0.2l-0.5-3.2l4.6-7.4v-6.2l-3.8-9.5l5.5-8.8l-0.5-8.3L63.5,0.5
	L59.7,0l-5.9,11.5L55,27.6l-10,0.3V13.4L37.1,1.5l-2.7,0.7l-2.3,21.3l2.6,8.2l-1.7,2.9L30,42l3,11.4l5.4,6.1L28.1,72.4l-7.2,16.6
	l0,0.1l2.7,19.8l1.9,4.3l0,0.4l0.3-0.1l3.3,0.7l4.3,29.6l-10.2-6l1.3-0.2l-0.5-0.1l8-0.8l0-0.2l-8.5,0.8l-0.3-0.1l7.8-4.7l0.6-0.1
	l0-0.2l0,0l0-0.1l0,0l0-0.1l0-0.3l-20.4,3.3l-1.6,6.2l-6.2,3L0,163.3l2.5,16.1l5.6,2.1l0.1,2.3L28,196.3v0.6l0.5-0.3l0.2,0.1l1.1-1
	l2.1-1.4l0.2,0.4l15.8,6.1l19.5,22.8l9.7,1.9l4.4-3.2l10,18.4l10.4-7.6l17.1,17.9l5.1-6.2l0,0l5.1-15.2l12.6-15.6l0.3,0v-0.1h-0.4
	l11.2,16.2l0.1,0.1l7.3,2.6l8.5-18l17,1.4l0.2,0l1.6-4.5l13.8,8.1l23.9-27.6l11.3-9l4.5-14.1l3.2,0.6l2.7-1.6l7.5-21.5l0-0.1
	L253.3,137.1z M74.4,207.8l-0.2,0.1l0.7-25.7l6.1,11.4l9.7,44.5l-8.9-16.5L74.4,207.8z M29,195.7v-35.8l2.8,0.7l-1.6,30.5l-0.4,3.9
	l-0.2,0.2L29,195.7z M2.5,165.2l4-6.4l0,0.7l-1.4,19.2L2.5,165.2z M24.4,89.9h4.8l-2.8,2.4l0.4,0l2.2,19l-2.9,1.5L24.4,89.9z
	 M33.6,34.9l1.7-2.9l5.6-3.3l10.9-0.2l-6.2,1.5h-6.4l0,0h0.2l-1.9,13L33.6,34.9L33.6,34.9z M45,22.6l-1.2,2.2l1.2-7.5V22.6z
	 M41.6,28l-0.5,0l-0.5-11.9l1.4,9.6L41.6,28z M42.2,27l0.1,1l-0.7,0L42.2,27z M35.4,31l4.5-17.3l0.6,14.5l-5.1,3.1L35.4,31z
	 M40.6,14.6l-0.1-1.8l3.5,1l-1.9,11.4L40.6,14.6z M40.4,12.1L37.8,4l5.8,9L40.4,12.1z M39.8,12.2l-4.1-0.7l1.2-8.3L39.8,12.2z
	 M39.8,12.4L39.8,12.4l0,0.7l-4.5,17.2l0.3-18.6L39.8,12.4z M66,49.6l-5.4-1.4l1.4-8.8l4.1,9.8V49.6z M68,51.1l0.3-0.3l9.4-2.6
	l-1.1,1.5l0,0l-5.2,3.6l-0.4,0L68,51.1L68,51.1z M80.4,44.5l4.7-0.4l0.3,0.2l4.8,8.8l-9.1-1.8l0,0l-0.8-6.6L80.4,44.5z M101.5,51
	l3.2-0.8L98.9,55l0.9-3l1.5-1.1L101.5,51z M107.4,56.8L107.4,56.8l-5.2,5.7L99,55.4l8.3,1.2L107.4,56.8z M113.7,61v0.5l-0.3,0
	l-0.1-0.8L113.7,61z M114.6,61.6v1.3h-0.3v-1.3L114.6,61.6L114.6,61.6z M119.5,58.9L119.5,58.9l-0.9-1h7.6l-0.2,1H119.5z
	 M128.1,79.9l1.7,23h-15.5l7.5-25.7l6-0.2v2.9H128.1z M136,67.2l1-0.5v12.2h-1V67.2z M134.5,64.6l1.2-0.6l0.1,0.7l-1.3,0.6V64.6z
	 M140,50.4l2,4.9v3.5l-1.6,1.2l-0.4-4.8V50.4z M162.4,43.1l1.5,1.4l1.1,1.5l-1.3,7.1l-8.1-7.7l-0.4-6.6l0,0.2h0.7l6,3.7L162.4,43.1z
	 M171.2,54.2l-7.4-1.1l1.3-7l6.1,7.9L171.2,54.2z M165.1,77.1l-7-2.4l9.3-6.1l-1.9,7.8L165.1,77.1z M171.5,102.9l6.8,15H154v-3.4
	l0,0l-0.1-0.1l-2.4-11.5H171.5z M188.7,117.6l0.4-0.2l-0.1-0.1l0.7-0.8l2.2,5.8l-0.1,0.3l-7-0.7L188.7,117.6z M200,121.5l0.1-0.9
	l0.8,0.9l-8.4,1l5.9-3.8l0,0l1.5,1.7l-0.1,1L200,121.5z M181,82.9L181,82.9l8-0.4v0.5h-0.1L187,94l-6.3-10.9L181,82.9z M188.4,69.5
	l-1.4,2.7v-1.8L188.4,69.5z M205.4,53.6l-4,1.6l-7.6-3.4l0.1,0l-0.1-0.2l0.5-14.8l0.1,0l-0.1-0.1l0-1.1l1.3,2.9l-0.5,12.1
	L205.4,53.6z M200,34.5L200,34.5l0.3,6.4l-0.3,0v0h-2.8L200,34.5z M200.4,41.9l-0.2,9.8l-1.2-0.2l-1.8-9.6H200.4z M207.3,80.5
	l-6.2-6.5l3.5,0.6l4.2,5.5L207.3,80.5z M194.9,187l19.4,11.6l-23.2,1.2L194.9,187z M191,200.2l5,4.2l-7.4,3.9L191,200.2z
	 M196.3,204.5l-0.1-0.1l-0.1-0.1l0,0l-5.1-4.2l0-0.1l22.9-1.2L196.3,204.5z M194.9,186.8l1.5-5.2l7.2,10.3l3.8-11.5l2.5,2.1v0.5h4
	v-0.5l1.2-1.5l-0.7,17.6L194.9,186.8z M188,168.6l11-22l12.1,19.9l-0.1,1.5l-7.5,22.6L188,168.6z M153.3,214.7l-4-1.2l4.5-33.5
	l0.2,0.4L153.3,214.7z M142.9,189L142.9,189l-4.5-3.8l6.3-11l-1.4,16L142.9,189L142.9,189z M100.5,185.1L100.5,185.1l-8.9,54.1
	l-9.4-43.6l5.9,10.9l4.3-28.6L100.5,185.1L100.5,185.1L100.5,185.1z M36.2,190.6l-4,2.8l-0.8-6.5l0.1-0.6l4.5,2.7L36.2,190.6z
	 M32.6,160.8l0.9,7.7l-2.5,16.4l1.2-24.2L32.6,160.8z M34.2,144.6l0.3-0.1l10,1.3L33,160.3l0,0l1.1-15.2L34.2,144.6z M38.7,58.9
	l-1.1-3.7l5.3,3.3l-4,0.6L38.7,58.9z M44.9,29.9l-7.3,12.7l1.9-12.7H44.9z M45.1,29.9h0.3l-3.9,13.2l0,0.1l0,0.2l0,0L48.9,54
	L37.6,43.2L45.1,29.9z M46.6,30.1l12.8,0.8L54.3,33l0.1,0.2l-8.1-3L46.6,30.1z M54.5,11.6l0.1-0.1l4.3-1.6l1.4,20.3l-5.7-17.8
	L54.5,11.6z M64.8,22L60.3,30L59,10.2l5.8,11.3L64.8,22z M61.7,39.1L61.7,39.1L54,44.3l0.5-10.8l0,0.1l0.1,0l7,5.5l0,0.1L61.7,39.1z
	 M73,83.9l-0.4,0.6l0.6-0.2l1.4,3.8l-7.6,1l0-0.1V74.3l-0.1-0.1l-0.3-0.2l0.1,0l0-0.1l0,0.1l1.9-1.7L73,83.9z M71.7,53.2l4.7-3.3
	l-2.2,3.2L71.7,53.2z M94,49.2l5.7,2.9l-0.9,2.9l-5.2-5.8L94,49.2z M98.8,55L98.8,55L98.8,55L98.8,55z M98.7,55.2L98.7,55.2
	L98.7,55.2L98.7,55.2z M98.8,55.3L98.8,55.3L98.8,55.3L98.8,55.3l3.1,6.9l-5.3-5.4l1.9-1.6L98.8,55.3z M114.2,63.5l0.4,0.6v0.1
	l-0.3,0.5l-0.7-0.6L114.2,63.5z M147,89.9v3h-17.2l-0.3-3H147z M148,97.9h-17.9l-0.3-5H148V97.9z M149,97.9v5h-17.7h-0.7l-0.3-5H149
	z M150.9,103.2l0.9,5.7H151v-6h-0.2L150.9,103.2z M158,126l-27,0.6v-5.5l27-0.5V126z M153,113.9v-4.1l-0.2,4.1H153z M100.1,134.9
	l-1.9-0.9l4.7-15.3l1.8,1L100.1,134.9z M119.6,150.6l-0.7,0.1l-23.6,0.5l0.1,0L88.8,133l8.4,6.2l0-0.1l-0.1,0.1L119.6,150.6z
	 M166.8,142L166.8,142l24.3-6.5l1.3,0.1l1.4,2.2l-17.7,5.9l-15.3,1.7l-7.7-2.1l13.8-1L166.8,142z M205.1,125.9l0-0.2l3.5,0.4
	l-2.4,2.8l-2.9-3.5l1.6,0.2l0,0.2L205.1,125.9z M210.6,131.2l-7.5,3l3.1-4.9l4.8,1.7L210.6,131.2z M203.8,135.8l4.2-2.3l-2.5,2.4
	L203.8,135.8z M209.7,136.9l-15.8,0.8l0,0.1l-1.4-2.3L209.7,136.9z M207.7,179.7l3-9.1l-1,10.9L207.7,179.7z M211.6,168.1l0.1-0.3
	l-0.1,0l0.1-0.6l8.3,1.2l-9.6,12.8L211.6,168.1z M211.3,166.4l-12.2-20.1l0.2-0.4l19.1-1.7l-6.9,22.1L211.3,166.4z M152.5,166.9
	l3.8-16.2l0,0.2h2.4L152.5,166.9z M147.6,169.3L147.6,169.3l-7.1-21.4l10.5,21.8v0.9L147.6,169.3z M136.2,187.7l2.9-41.2l7.7,22.9
	L136.2,187.7z M130,209.3v-32l4.2,9.6L130,209.3z M75,181.2l-9.9-6.6l29.6-18.2L75,181.2z M61.5,183.6L61.5,183.6L61.5,183.6
	L61.5,183.6z M51.7,175l7.3,21.8L50.5,181L51.7,175z M51.7,174.6l0.1-0.4l4.7-19l1.6,0.2l3.3,28.2l-2.2,13.7L51.7,174.6z
	 M33.2,160.5l0-0.2L44.6,146l-7.9,43.2L33.2,160.5z M36,188.7l-4.5-2.7l2.3-15.3L36,188.7z M44.3,149.3L41.6,172l-4.4,16L44.3,149.3
	z M44.7,146.8l0.2-1.1l7.6,2.3l-0.7,2.1l-10,21.4L44.7,146.8z M71.7,139.5l3.5-0.6l-13.1,12.6l-7.6-0.7l0,0l-1.3-2.7l0-0.1l-0.1,0
	l0-0.1L71.7,139.5L71.7,139.5z M84.5,134.3l0.3-0.3l3.5-1l-8.2,6.6l-0.4-3.3L80,136L84.5,134.3z M64.7,174.1L62.2,152l32.6,3.6
	L64.7,174.1z M54.5,151.8l1.6,3l-0.1,0l-0.4,1.2l-8.3,15.1L54.5,151.8z M56.3,154.6L56.3,154.6l-1.6-3l6.8,0.6l0.4,3.1L56.3,154.6z
	 M75.8,138.8l0.2-0.1l3.9,1.1l-3.8,11.7l-14,0.3l0-0.1l13.3-12.8L75.8,138.8z M62,155.9l1.9,16.8l-5.5-17.2L62,155.9z M95.3,155.3
	L95.3,155.3l-0.3,0.2l-31.9-3.6l55-1.1L95.3,155.3z M76.3,151.5l3.8-11.7l8.5-6.8l6.6,18.2L76.3,151.5z M91.9,128.7l4.1,4.4l0.1,0.2
	l-7.3-0.6L91.9,128.7z M92,128.6l1.6-3.6l0.1-0.1l2.2,7.8L92,128.6z M91.9,128.6l-3.3,4.2l-3.5,1l8.3-8.4L91.9,128.6z M79.6,136.3
	l0.4,3.3l-3.8-1L79.6,136.3z M54.2,151.1L54.2,151.1L46,172.9l-0.9-1.9l0-0.2l7.9-22.2L54.2,151.1z M45.1,171.7l0.8,1.6l-0.1,0.4
	l2,0.6l0,0.7l-4.1,18.3L45.1,171.7z M46.5,173.3l0.4-1.2l8.4-15.3l-5.7,17.5L46.5,173.3z M61.6,183.6l-3.3-27.9l5.7,17.8l0.1,1.3
	l0.3,0.2l9.3,32.2L61.6,183.6z M95.3,158.1l3.3,2.4l-3.6,0L95.3,158.1z M95.4,157.4l0.2-1.2l7.7,6.9L95.4,157.4z M107.9,166.4
	l-11.8-10.6l23.7-4.6L107.9,166.4z M130.6,176.4l7.7-28.3l-2.8,39.7L130.6,176.4z M194,138.4L194,138.4l4.4,7.2l-21.4-1.6L194,138.4
	z M187.3,168.6l-11,4.1l-7.3-12.8l18.3,8.6L187.3,168.6z M166.1,160.6l2.2-0.8l6.5,11.4l-7.9-9.4L166.1,160.6z M158.7,149.9h-2.1
	l3.3-3.1L158.7,149.9z M159.4,150l1.3-3.6l6.8,12.1l-7.7-7.7L159.4,150z M176.1,144.1L176.1,144.1l0.1,0.2l0.5-0.2l21.6,1.6
	l-29.5,13.4l7.2-14.8l0.1,0L176.1,144.1z M168.6,159.2l-7.5-13.2l14.7-1.6L168.6,159.2z M156,149.6l-4.1-6l8.1,2.3L156,149.6z
	 M156.5,150.1l-4.5,19.6v-26.1L156.5,150.1z M167.8,159l0.3,0.5l-2.2,0.8l-5.7-8.9L167.8,159z M175.2,172l0.4,0.7l-2.2-0.7l-5.8-9.2
	L175.2,172z M173,171.9h0.5l0,0.1l2.3,0.8l0.2,0.2v17.6l-2.9-1.7H173V171.9z M176.3,172.9l11.2-4.1L177,190v-17.1H176.3z
	 M187.4,168.4l-18.4-8.7l29.4-13.4L187.4,168.4z M199.1,145.4l0,0.2l0,0l-0.1-0.2l-0.3,0.2l-4.4-7.2l20.1-1.1l3.7,6.4L199.1,145.4z
	 M199.6,127.5l6.5,1.6l-3.1,5L199.6,127.5z M197,129.4l-5.6-2.7l7.9,0.8L197,129.4z M196.9,129.6l0.8,5.6l-6.5-8.4L196.9,129.6z
	 M197.1,129.5l2.2-1.9l-1.8,4.9L197.1,129.5z M199.6,127.3l3.1-2l0,0l0.4,0l2.9,3.5L199.6,127.3z M202.6,125.2l-3,1.9l0.9-2.7l2,0.7
	L202.6,125.2z M199.4,127.3l-7.9-0.8l8.9-2L199.4,127.3z M197.6,135.4l-1.7-0.1l-4.4-7.8L197.6,135.4z M197.9,135.4l-0.4-2.5
	l1.8-5.1l0.5,7.7l0.2,0l-0.5-7.7l3.3,6.5l-0.7,1.4L197.9,135.4z M202.9,134.3L202.9,134.3L202.9,134.3L202.9,134.3z M200.6,124.3
	l0.6-2.3l1.3,2.9L200.6,124.3z M201,121.6l0.1,0.2l-0.7,2.5l-7.8-1.7L201,121.6L201,121.6z M192,122.5L192,122.5L192,122.5
	L192,122.5z M192.1,122.7l8,1.7l-9.1,2.1l0.9-3.8L192.1,122.7z M190.9,126.4l-6.2-4.5l0,0l7.1,0.7L190.9,126.4z M184.6,122.1
	L184.6,122.1l6.3,4.5l-3.7,7.6l-0.4-1.1L184.6,122.1L184.6,122.1z M187.3,134.6l-0.1-0.2l3.7-7.6l4.9,8.5L187.3,134.6z M151,169.4
	l-11-22.7l-0.4-1.5l11.4-1.7V169.4z M130.2,175.4l-9.5-24.5l17.7-5.5L130.2,175.4z M129.9,176.2l-11.3,20.9l2-44.9L129.9,176.2z
	 M88.9,132.9l7.2,0.6l0,0.2l0.2,0.1l0.7,5.2L88.9,132.9z M94,123.8l-9.9,10l-3.2,1.3l-2-1.1l0.2,0.3l5.1-15.3h18.2l-4.6,15l-1-0.6
	L94,123.8z M71.1,134.2l-8.4,2.3l2.4-23.2l0,0.1l2.9-0.8l4.5,5.2l-0.5,8.1L71.1,134.2z M37.1,68.1l6.3-9l0,0l-1.2,8L37,68.4
	L37.1,68.1z M67,73.9v14.7L56.9,74.4l9.6-0.5l0,0H67z M106.4,69.9l-2.8,4.1l-1.9-4.2l1.2-0.4l0-0.1l-6.5,2.2l-3.4,0.5L91.3,70l8-1.2
	l3.4,0.3l0,0L106.4,69.9z M90,85l-5.3-6.8l3-5.2l2.1,6H90V85z M90.5,86.6l1.8,8.5l-7.6-16.2l4.9,6.5l0,0L90.5,86.6z M94.1,90.8
	l0,0.4l-1.6,4.5l-1.8-8.8L94.1,90.8z M95,96.1l-2,6.1v-6.5l-0.2,0l-0.1-0.1l0,0l1.6-4.3L95,96.1z M117,79.9v-0.8l1.7-0.4l-7.6,24.1
	H94.3l8.1-23H117z M105.4,117.1l-1.8-0.9l3.7-12.3h2L105.4,117.1z M102.5,117.9H84.3l0.4-1h18.1L102.5,117.9z M84,117.9v0.1
	l-0.5,0.9H80l0.4-1h3.3h-0.1H84z M81.8,123.9H80v-2.4v-0.3v-1.3h3.3L81.8,123.9z M56.4,105.8l-0.2,0l0.1,0.4l-0.1,0l-2.2-16.5l0.1,0
	l5.5,9.1l1.8,8.7l-4.8-1.2L56.4,105.8z M50.2,58.9L50.2,58.9l6.1,15.2l-13.9-7.1l7.7-8.1H50.2z M62.9,112.1l-4.2-20.2L58.4,92
	l0.2-0.3l-3-1.8l4.5,1l4.6,21.8L62.9,112.1z M58.1,92.2l1.3,6.1l-5.1-8.4L58.1,92.2z M53.9,88.9l2.6-14.2l3.7,15.6L53.9,88.9z
	 M53.7,89.2L53.7,89.2L53.7,89.2l0,0.1l-0.1,0.2l0.1,0.1L56,106L44.1,91.4l12.3-16.7L53.7,89.2z M61.3,107.6l1,4.8l0.3-0.1l-0.1,0.3
	l2.4,0.8l-2.4,23.1l-6.1-30.1L61.3,107.6z M70.5,111.2l-2.6-1.9l6.2-18.6L70.5,111.2z M67.9,109.4l2.5,1.9l-4.9,1.4L67.9,109.4z
	 M70.9,111.8l-0.1-0.3l0.3,0.1l3-17.5l-1.6,23.5l-4.3-5L70.9,111.8z M72.9,121.1l0.2,0.1l7.9-17l2.2,1.5l-10.6,19.5L72.9,121.1z
	 M74,83.3l7.1-10.9l1.9,3l0.1-0.1l-1.9-3l0.2-0.4l-0.1-0.1l3.7-3.4l0.1,0l2.2,4.1l-3.2,5.5l-9.7,5L74,83.3z M85.1,61.9l0.1-0.1
	l3.5,1l-3.5,5.4l0.3,0l0.4,0v-6.3H85.1z M86,68.1l-7.6-2.1l7.6-4.1V68.1z M89.8,78.4l-2.2-5.7l4.9-0.5L89.8,78.4z M85.3,68.4
	l4.4-0.4l1.3,1.9l-3.6,2.6L85.3,68.4L85.3,68.4z M85.6,61.7l4.5-0.2l-1.3,1.2L85.6,61.7z M85.4,68.2l3.3-5.2l1.1,4.9L85.4,68.2z
	 M92.6,72L92.6,72l-4.8,0.5l3.4-2.4l1.5,1.9L92.6,72z M90,68L90,68l8.7,0.8l-7.4,1.1L90,68z M88.9,62.9l7.2-0.4l-6.1,5.3L88.9,62.9z
	 M96,62.3l-6.6,0.4l1.6-1.2v-0.1l-0.3,0l-3.8-5.7L96,62.3L96,62.3z M90.2,61.4l-4.9,0.2l1.2-5.9L90.2,61.4z M84.2,78.3l3.9,14.5
	l0.2,0L84.6,79l7.7,16.5l-4-2.4l-4.9-5.9L83.2,87l0.6-8.1l-0.2,0l-0.6,7.9l-2-2.9L81,84l0-0.1l-3.2-0.7l0-0.1l-0.1,0.1l0,0.3l0,0.4
	h-1.7l-0.2-0.8L75.5,83L84.2,78.3z M92,102.9h-3.6l-1,3.1l-1.4,1l0.1,0.1l-2.7-1.6l-0.3-0.1L92,96L92,102.9L92,102.9z M86.7,107.7
	l-0.3-0.2l0,0l0.6-0.4l-3.4,9.8H81L86.7,107.7z M88.9,103.9h2.2l-2.8,1.8L88.9,103.9z M84.7,98.8l-0.6-3.3l4.8,1.2v0.3h-1l0.1-0.1
	l-3,2.3L84.7,98.8z M83.4,95.3l-3.6-1l-0.2-0.2l2.4-1.3l5.7,3.6l-4.2-1.1l-0.2-0.6l-0.1,0L83.4,95.3z M81,84.1l2.1,3l0,0.2l0.2,0
	l0,0l0,0.1l0.5,6.4l-1.6-1L78,83.4L81,84.1z M88.2,92.9H89v3.4l-4.6-2.6l-0.7-6.3l4.6,5.7L88.2,92.9L88.2,92.9z M89,96.5v-3.3
	l3.8,2.4l0.2,0L89,96.5z M78,83.9v-0.6l0,0l3.9,8.9L77,86.4L76,83.9H78z M81.9,92.7L79.6,94l-2.5-7.4L81.9,92.7z M83.5,95.4l1,3.1
	l-4.4-4.1L83.5,95.4z M85.3,99.3l-0.1-0.1l3.1-2.4l0,0l0,0l0,0l3.9-0.8l-9.1,9.5l-2-1.4L85.3,99.3z M72.6,125.7l10.7-19.8l2.8,1.7
	l-5.9,9.4H80l-0.1,1.8v2.2h-4.1l-0.9,2.7v2.3h-2.3L72.6,125.7z M76.2,121.9H80v2h-4.6L76.2,121.9z M94.1,103.9h12.6l-3.7,12H84.9
	l3.1-9.3l4.2-2.7h1.6H94.1z M91,78.6l-0.5,0l2.5-6.5l0.1,0l-0.1,0l0,0l3.3-0.5l-2.9,4.5l-0.1-0.1l-0.1,0.1l0.1,0.1l-3.3,5.1l0.1,0.1
	l3.2-5l5,5.2l-6.2,2.5l-1.6-0.8l0.5,0.4V78.6z M98.5,81.6l-5.1-5.3l0.1-0.2l0,0.1l9.7-1.6L98.5,81.6z M103.3,74.5L103.3,74.5
	l-9.8,1.6l2.9-4.5l0.7-0.2L103.3,74.5L103.3,74.5z M101.5,69.9l2,4.3l-0.1,0.1l-6.2-3L101.5,69.9z M90.3,67.9l11.7-5.1l-1.6,6.1
	L90.3,67.9z M90.4,67.6l5.9-5.2l5.4,0.2L90.4,67.6z M96,62.1l-9.2-6.5l9.2,1.2V62.1z M85.1,61.5L77.5,58l0.1-0.1l8.8-2.3L85.1,61.5z
	 M77.4,58.2L77.4,58.2L77.4,58.2l0.1-0.1l7.4,3.4l-0.1,0l0,0.2l0.2,0L77.1,66l0.1-7.5L77.4,58.2z M77.6,66.2l8.4,2.1v-0.4h-1.1
	l0.1,0.2l-3.8,3.5l-6.8-2.8L77.6,66.2z M80.6,72.2l-7.2,11l-3.7-10.2l10.6-1L80.6,72.2z M75.4,83.5L79,94.4l5.3,4.9l-3.9,4.4
	L73,119.9l2.1-31.7l0-0.1l-1.5-4L75.4,83.5z M74.3,89.6l-6.4,19.3l-1.6-19.6l8.2-1.1L74.3,89.6z M67,89.2l-0.5,0l-0.1,0.1l-0.1,0
	l1.6,20l-2.5,3.4l-4.7-22.1l-0.3,0.1l0.1,0l0-0.2l0-0.1l-0.1,0l-3.4-15.6L67,88.9V89.2z M56.6,74.2l0.4-9l9.2,8.7L56.6,74.2z
	 M63.1,70.8l3.5,3.1l-0.1,0L63.1,70.8z M56.4,74l-6-14.9l6.4,6L56.4,74z M42.4,66.8l1.2-7.9h6.3L42.4,66.8z M56.4,74.4L43.9,91.3
	l-1.6-24L56.4,74.4z M44,91.5l12,14.8l-4.6,33.4l-4.3,1.2L44,91.5L44,91.5z M56.2,106.3l0.2,0l6.1,30.3l-10.8,3L56.2,106.3z
	 M72.6,126.9H75v1.9l-2.4,0.4L72.6,126.9z M76,126.2v-0.3v-1h5.7l-1.1,4.2l-4.5-0.3V126.2z M104.8,119.9l-1.7-1.4l0.4-1.5l1.8,1.2
	L104.8,119.9L104.8,119.9z M105.8,117.9H132v2h-26.5L105.8,117.9z M133,113.9l-0.7-5H152v5H133z M151,103.9v5h-18.7l-0.7-5H151z
	 M131,103.9l1,4.9v0v5.6v3.4H106l4-14H131z M111.7,102.9l7.3-24.3l2.2-1.2l-7.5,25.5H111.7z M119,78.2V63.2l1-0.7v15.3L119,78.2z
	 M117,78.5v-12l-0.1-0.6h2.1v12.4L117,78.5z M117.7,65.4h-1l-0.5-0.6h1.5V65.4z M115,65.1v0.1V65.1L115,65.1z M115.2,64.8l0.8,0.8
	l-0.4,0.4l-0.4-0.2V64.8z M116,78.9h-14l-8.3,24h-0.7l2.5-6.8l-0.3,0l0.3,0l-0.7-5.5l-0.3,0l0.2-0.2L90,85l-0.3,0.7l-0.1,0.3H91v-2
	l1.7,0.9l6.4-2.7l8.2-11.9l8.7-1.8V78.9z M106.6,69.7l-0.1,0.1l-3.7-0.8l0,0l-2.3-0.2l1.6-6.1l8.7,6.1L106.6,69.7z M96.4,56.8
	L96.4,56.8l0,0.1l5.5,5.6l-5.8-0.2l-0.2,0v-5.5l0.2-0.1l-9.5-1.3l3.3-2l8.4,1.8L96.4,56.8z M86.6,55.3L86.6,55.3l-0.1-0.1l0,0
	l-5-3.8l8.7,1.7L86.6,55.3z M86.3,55.4l-8.7,2.3l3.3-6.3l0,0L86.3,55.4z M80.8,51.4l-3.4,6.3l-0.3,0.1l-2.6-4.6L80.8,51.4z M76.9,66
	l-4.1-1.9l0-0.1l0.1-0.3l4.2-5.1L76.9,66z M76.9,66.1L74,68.8l-1.1-4.6L76.9,66.1z M73.6,69.4l6.3,2.5l-10.3,1L73.6,69.4z
	 M57.1,65.1l4.1-2l5.4,10.6L57.1,65.1z M50.6,59l5-0.6l1.2,6.4L50.6,59z M50.3,58.4l-0.8-3.7l5.6,3.1L50.3,58.4z M45.6,29.9L46,30
	l8.3,3.2l-12.5,9.7L45.6,29.9L45.6,29.9z M54.3,33.4l-0.5,10.9l-12-1L54.3,33.4z M53.8,44.5l-4.4,10l-7.6-11L53.8,44.5z M53.9,44.5
	l6.3,3.8l-10.8,6.1L53.9,44.5z M54.1,44.4l7.7-5.1l-1.3,8.9L54.1,44.4z M50.1,57.9h-6l5.2-3.7L50.1,57.9z M43.1,59.1l-6,8.6l1.9-8
	L43.1,59.1z M36.8,68.7l0.1,0l0-0.1l5.2-1.3L36,91.9L36.8,68.7L36.8,68.7z M36,92.6l6.2-24.9l1.6,23.8l-0.3,0.4L36,93.3L36,92.6z
	 M43.5,92.1L43.5,92.1L43.5,92.1l0.3-0.3l3.2,48.5L36,93.5L43.5,92.1z M47.1,141.2L47.1,141.2l0.2,0l0-0.1l4.2-1.2l0,0.1l0.2,0
	l0-0.1l10.9-3l0.1,0.3l0.1,0l0.1,0l0-0.3l8.6-2.4l0.4,0l0-0.2l0,0l0,0l0-0.1l0.3,0l0.3-4.6l7.5-0.2l-1.4,4.4l-1.3-0.7l0,0.1l0-0.1
	l-3.6,2.8l0.1,0.1l3.6-2.8l3.6,1.9l-0.9,0.4l-4.2,2.8l-4,0.7l0.1,0.4l-18.7,8.6l-8.1-2.5l0,0.1l0-0.3l-8.8-1.1l11-3.1L47.1,141.2z
	 M36.8,190.9l0-0.5l0.1-0.5l4.7-17.3l-0.2,10l0,0.3l-2.2,7.9H36.8z M40,190.7L40,190.7l1.6-6.2l1,8l-2.6-1.6V190.7z M41.9,182.8
	l-0.3,0l-0.1,0l0.2-10.7l9.5-20.3l-6.7,19l-1.5,22L41.9,182.8z M43.5,195.8l4.2-18.5L47,196.9h-3.6L43.5,195.8z M48.3,174.5L50,175
	l3.9-11.9l-2.7,11l-3.4,18.2L48.3,174.5z M50.5,181.2l8.6,16.3l-10.8-4.7L50.5,181.2z M61.6,183.9l12.3,23.6l-3.5-1l-0.7-0.3
	l-10.1-8.8l-0.1,0.1L61.6,183.9z M69.5,206.9l0.2-0.2l-0.1,0.3l1.4,0.4l-4.9,5l-8.8-11.6l10.7,4.9L69.5,206.9z M75.1,210.5l-3.8,9
	l-5.2-7l8.4-3.1L75.1,210.5z M66.3,212.3l4.8-4.9l2.8,0.8l0.6,1.1L66.3,212.3z M74.1,207.4l-9.4-32.3l9.9,6.5l0.1,0.3L74.1,207.4z
	 M95,156.3l-7.3,48.3l-12.5-23.3l-0.1,0.1L95,156.3z M92.4,177.8l2.6-16.9l4.5,0l8.6,5.9v12.5l-7,5.6L92.4,177.8z M108,179.5v11.1
	l-6.5-5.6L108,179.5z M108,166.8L108,166.8L108,166.8l12-15.4l-12,41.5v-1.7l0.1-0.1l-0.1,0V166.8z M119.9,152.6l-2,45.4l-9.9-4.7
	L119.9,152.6z M118.4,198.9l11.6-21.5v31.9l-13.9-11.5L118.4,198.9z M134.6,187.1l1.1,2.6l2.5-4.4l4.5,3.7l-12.4,20.3L134.6,187.1z
	 M145.4,172.9l1.9-3.3l0.6,0.2l0.7,42l-4.9-19.9L145.4,172.9z M153.8,179.7l0-0.3l-0.2,0l-0.1-0.1l-0.1,0.1l0,0l-0.3,0l-4.5,33.2
	l-0.5-42.5l2.7,1v0h-0.1l0.4,0.2l0-0.1l0.2,0.1l2.9-7.6L154,180L153.8,179.7z M155,161.8l4.1-10.9l9.3,63.1l-13.8-32.6L155,161.8z
	 M168.5,213.9l-9.3-63l13.2,21H172v18h0.9l3.1,1.4v1.3l9.8-19.5L168.5,213.9L168.5,213.9z M213.8,182.1l0.2,0.1v0.7h-3.2l-0.3-0.5
	l10.2-13.8l3.1,0.3L213.8,182.1z M224.2,168.3l-12.6-1.8l6.9-22l9.9,17.2L224.2,168.3z M216.2,139.4l18.1,10.1L228,160L216.2,139.4z
	 M234.8,149l-0.3-0.2l-8.9-13l0-0.1l13.9,11.8L234.8,149z M239.7,147.4l-14.1-11.9l0.6,0l15.3,2.7L239.7,147.4z M226.5,135.3l0-0.2
	L226.5,135.3L226.5,135.3z M226.5,134.8l-1.2,0.1l-1.9-6l1.3,0.1l17,3.5L226.5,134.8z M243,132.3l-0.8,0.1L226,129l18.1,1.3
	l-0.3,2.1L243,132.3z M223.3,128.8l1.9,6l-14.3,0.7l12.1-6.7L223.3,128.8z M210.4,136.2l14.8-0.7l9,13.2l-18.6-10.4l-0.9-1.6l-0.2,0
	l-4-0.3L210.4,136.2z M205.6,136l2.6-2.5l1.5,2.8L205.6,136z M208.1,133.1l0.1,0.2l-4.6,2.6l0,0l-1.3-0.1l0.7-1.4l7.2-2.8
	L208.1,133.1z M206.3,129.1l2.4-2.8l2.3,4.5L206.3,129.1z M205.2,125.1l4.9-26.2l0.1-0.1l2.3-1.1l-3.9,27.7L205.2,125.1z
	 M194.5,109.6L194.5,109.6l-7.3-15.5l10.1,0.7L194.5,109.6z M189.8,110.9L189.8,110.9l-2.6-16.4l7.1,15.1l-4.2,1.3L189.8,110.9z
	 M188.3,68.6l-0.6-4.3l4.5-1.2L188.3,68.6z M201.8,94.7L201.8,94.7l-4-0.2l2.8-11.2l1.4,11.1l-0.1,0.3l0.1,0.2h0L201.8,94.7z
	 M193.7,91.1l3.7,3.6l0,0l-10-0.7L193.7,91.1z M197.5,93.9l0,0.3l0,0l-3.6-3.4l6.6-8.5L197.5,93.9L197.5,93.9z M193.7,91.1l-4.5-8.2
	h11.1L193.7,91.1z M200.8,82.4l5.8-1.6l-4.4,13L200.8,82.4z M201,82.2l-5.9-4.7l5.4-3.6l0.1,0l0.2,0L201,82.2L201,82.2z M197.4,72.4
	l4.4-3.2l-1.3,4.1L197.4,72.4z M201.8,68.4l-3.2-8.9l12.1,4.2l-8.5,4.9L201.8,68.4z M198.4,59.7l3,8.4l-8.6-5.2L198.4,59.7z
	 M192.7,62.6l1-10.3l4.5,7L192.7,62.6z M198.4,59.1L198.4,59.1l-4.4-6.9l7.1,3.2L198.4,59.1L198.4,59.1z M193.4,52.2l-1,9.9
	l-2.2-8.1L193.4,52.2z M201.5,68.6l0.1,0.2L190.8,72l-0.2,0l2-8.8L201.5,68.6z M201.3,69.2l-4.2,3.1l0,0l-5.2-0.2L201.3,69.2z
	 M196.9,72.9l3.3,0.9l-5.2,3.5L196.9,72.9L196.9,72.9z M200.5,82.9h-11.4l5.6-4.7L200.5,82.9z M189,82.9l4.6,8.2l-6.4,3L189,82.9
	L189,82.9z M202.3,94.5L202.3,94.5l3.9-11.6l-2.4,12L202.3,94.5z M204,95.4l5.9,3.5l0,0l-8,8.5L204,95.4z M209.9,98.7l-5.8-3.4
	l2.7-14L209.9,98.7L209.9,98.7z M206.7,80.6L206.7,80.6L206.7,80.6l-5.9,1.6l-0.1-0.4l0-7.9l0.1,0l6.3,6.6L206.7,80.6z M201.3,73.4
	l4.1-2.5l-0.7,3.1L201.3,73.4z M200.9,73.3l1.3-4.3l3.1,1.5L200.9,73.3z M205.6,70.3l-3.1-1.5l8.1-4.6L205.6,70.3z M198.8,59.3
	l2.6-3.6l9.3,7.8L198.8,59.3z M194,36l-0.2-0.3l0.2-0.4L194,36z M194,36.7l-0.5,14.3l-3.1-6.5l0-0.3l3.4-8L194,36.7z M190.4,43.3
	l0.2-13.3l3,5.8L190.4,43.3z M189.8,44.8l3.5,7.2l-3.2,1.8l-3.8-7.1L189.8,44.8z M192.3,62.8l-4.7,1.2l-1.8-3.3l-0.1,0l4.2-6.5
	L192.3,62.8z M185.6,61l1.7,3.1l-0.2,0.1l0,0.2l-0.1-0.1l-3.3,1.4l-0.7-0.5L185.6,61z M187.1,64.5l0.2-0.1l0.6,4.3l-4-2.9
	L187.1,64.5z M188.3,69.1l3.9-5.5l-1.9,8.4l-3.9,0.8L188.3,69.1z M190.4,72.6l6.3,0.2l-2,4.5l-7.1-0.4l2.7-4.4L190.4,72.6z
	 M194.6,77.6l-5.6,4.7l-0.1,0l-1.3-5.1L194.6,77.6z M189.6,110.8l-2.8-1.5l-3-14l3.3-1.1L189.6,110.8z M194.6,109.8l1.2,2.8
	l-5.4-1.5L194.6,109.8z M195.9,112.4l-1.2-2.7l2.8-14.8l0.1,0l0,0l0.1,0l0,0l0,0l4,0.1L195.9,112.4z M202.3,95.1l1.6,0.4l-2.1,12
	l-3.8,0.7L202.3,95.1z M201.9,107.6l8-8.5l-4.8,25.9l-1.9-0.2l-1.5-3.5l-1.4-1.6L201.9,107.6z M192.3,122.4l2-6.4l3.9,2.6
	L192.3,122.4z M192.2,122.3l-2.3-6l0.2-0.2l-0.6-3.4l4.8,3.1L192.2,122.3z M184.4,122.1l2,9.9l-3.5-9.5L184.4,122.1z M187,135.2
	l3.6,0.3l-23.8,6.4l0.4-0.2l-15.2,1.1v0l-0.4,0.1l-0.2-0.1l-12.5,1.9v0.3l-0.2-0.3l-18.5,5.8l-0.1,0L97.3,139l0,0l-0.7-5.1l3.3,1.6
	l-0.3,1l0.6,0.3l5.1-16.9H133v-5h20v5.2l-23.1,0.4l0.1,0.5v5.6l-4.4,0.1l-1.1-0.4l0.1,0.6l1.3,0.4v5.7l-4.4,0.1l-2.4-1.6l-0.3,0.5
	l2.1,1.4v5.9l-1.4-0.9l-0.5,0.5l1.7,1.3l-4.8,0.2l-2.2-2.4l-0.5,0.4l2.3,2.6l56.4-2.7v-6l0,0v-0.2l0.2-0.3l-3.5-1.6l-0.2,0.6
	l2.9,1.1L127,133v-5.7l39.8-0.9l-4.9-1.9l-0.4,0.6l2.3,0.8L159,126v-5.1h-1V120l-4,0.1v-0.2h25.5l7,14.5l-9-3l-0.2,0.6L187,135.2z
	 M122,133.7l50-1.2v5.3l-50,2.4V133.7z M154,119.9v-2h24.6l0.6,2H154z M152,101.9v0.6l-0.6-0.3l-1.2,1l-2-22.4h6.2l9.8,21H152z
	 M143.4,78.9H143v-17h4.3l0,15L143.4,78.9z M136.8,64.9l-0.2-1h4.4v1H136.8z M141.1,62.9L141.1,62.9l-1-0.7l1.6-1.3l0.6,0.9
	L141.1,62.9z M140,61l2-1.3v0.7l-2,1.3V61z M142,58.9h5.8l0,1H142V58.9z M148.4,77.9h4.3l0.9,2h-5.2L148.4,77.9z M152.8,77.9h0.4
	l1,1.9h-0.5l0.1,0L152.8,77.9z M154.7,79.3l-1.2-2.4h-1l-3.5-8v-0.2l9.2,6L154.7,79.3z M161.5,57.7l-4.9-2.9l0.5-2.1L161.5,57.7z
	 M157.2,52.6l6.4,0.7l-1.7,4.6L157.2,52.6z M156.6,54.9l5.2,3.1l-7.7,8.6L156.6,54.9z M161.8,58.3l-1.2,6l-6.4,2.4L161.8,58.3z
	 M160.5,64.5l-2.6,10l-3.9-7.6L160.5,64.5z M160.7,64.6l1.9,3.1l-4.4,6.6L160.7,64.6z M162.7,67.8l4.6,0.7l-9.1,6L162.7,67.8z
	 M160.8,64.4l9.7-1.5l-7.8,4.7L160.8,64.4z M162,58.1l5.4,1.3l-6.6,4.8L162,58.1z M162,58l1.7-4.6l3.6,5.9L162,58z M157.1,52.4
	l-1.4-6.9l7.9,7.5L157.1,52.4z M155.5,45.4l1.3,6.4l-2.7-6.1L155.5,45.4z M153.9,66.7l-2.8-3.2l5.7-10.5L153.9,66.7z M157.8,74.5
	l-9.4-6l0-1.1l5.5-0.4L157.8,74.5z M148.4,69.1l3.9,7.8h-3.9L148.4,69.1z M154.9,79.4l3-4.5l1.7,4.6L154.9,79.4z M167.6,68.5
	l1.8-0.3l-3.6,7.6L167.6,68.5z M162.9,67.6l7.7-4.7l0,0l-3.1,5.3L162.9,67.6z M170.5,62.7l-9.5,1.5l6.5-4.8l2.8,2.8L170.5,62.7z
	 M163.9,53.3l5.8,0.9l-2.2,5L163.9,53.3z M155.1,38.6l0.3,6.6l-1.3,0.3L155.1,38.6L155.1,38.6z M156.9,52.4l-6.1,1.3l3.2-7.9
	L156.9,52.4z M156.9,52.6l-5.8,10.7l-0.3-9.3L156.9,52.6z M151.3,63.7l2.9,3.1l-5.2,0.4V67L151.3,63.7z M147.6,61.9h-4.7l-0.6-1h5.4
	l0,0.8L147.6,61.9z M148.4,60.8h0.1l-0.1,0.1L148.4,60.8z M149,60.4h-0.6l0-0.9h1.4L149,60.4z M150,55.7v2.2h-1.6l0-2.6L150,55.7z
	 M148.4,55.1l0-0.5l0.7,0.5L148.4,55.1z M147.8,57.9H142v-2.4l5.7-0.2L147.8,57.9z M139.5,60.6l0.1,0.2l0.5,0.1v1.6l0.2,0.4h-3.7
	l0.1-10.5l2.7,2.9L139.5,60.6z M136.5,64.9L136.5,64.9L136.5,64.9L136.5,64.9z M141,64.9v1h-3.6l-0.3-1H141z M138,65.9h3v13h-3V65.9
	z M141,66.4v-0.6v-0.6v-0.6v-0.4l2-1.3v16.1h-2V66.4z M144,79.4l3.5-1.8l1.9,25.3H149v-5h-1v-5h-1v-4h-1v-5h-2V79.4L144,79.4z
	 M145,84.9v4h-15.6l-0.3-4H145z M124.5,61.9l0.1,14.6l-2.5,0.2l-1,0.7V61.9H124.5z M119.3,59.8l0.1-0.1v0.2L119.3,59.8z M119,57.9
	v-3h8v3H119z M118,58.2l-1,0.9v-1.7v-1.1l1-0.9V58.2z M117.8,58.8l1,1l-1.1,1.1l-1-1L117.8,58.8z M119.2,60.3l0.6,1.3l-0.8,0.7v-0.4
	h-0.4l-0.4-0.5L119.2,60.3z M119,63.9h-3.2l0,0l0,0h-0.1l0.2,0l0.1-0.1v-0.9h3V63.9z M114.7,61.5L114.7,61.5L114.7,61.5L114.7,61.5z
	 M113.7,61.7v1.2l-0.3,0.5l-0.1-1.7L113.7,61.7z M116,66V68l-4.5,0.8l-8.9-6.1l10.5-0.9l0.4,2.4L116,66z M99.8,51.9l-5.1-2.6
	l6.5,1.6L99.8,51.9z M93.4,49l5.3,6l-0.2,0.1l-8.3-1.8l0.1-0.1l0-0.1l0.1,0l2.7-4.3L93.4,49z M90.3,53.1l-4.7-8.6l7.3,4.4L90.3,53.1
	z M82.3,44.2L82,41.1l2.9,2.9L82.3,44.2z M80.9,51.2L80.9,51.2l-0.1,0l0,0.1l-6.3,1.8l5.7-8.2L80.9,51.2z M71.1,53.5L71.1,53.5
	L71.1,53.5l0.3-0.1l3-0.1l2.6,4.6l0,0.1l-9.6-4.4l-0.1-0.1l3.6-0.1L71.1,53.5z M77.1,58.2L77.1,58.2l-3.7,2.3l-5.7-6.6L77.1,58.2z
	 M73.5,60.6L73.5,60.6l3.5-2.1l-4,4.9L73.5,60.6z M65.4,64.9l6.8-0.7l1.2,4.8l-7.1-2.5l0,0.1l-2.3-4.1l8,1.5l-6.6,0.7L65.4,64.9z
	 M73.4,69.1l0,0.2l-3.9,3.5l-0.3-0.9l-3-5.3L73.4,69.1z M68.7,72.2L68.7,72.2l-1.9,1.7l-5.3-10.4l6.6,7.7L68.7,72.2z M57,64.9
	l-1.2-6.5l0,0l5.2,4.6L57,64.9z M55.6,57.8l-0.3,0l-5.8-3.3l10.7-6.1l-4.5,9.3L55.6,57.8z M61.6,38.8l-6.8-5.3l5.3-2.2l0.3,0.1
	l0-0.1l2,2.9L61.6,38.8z M62.6,33.6l-1.9-2.8l4.1-7.5l-2.1,10.2L62.6,33.6z M59,9.8l4-8.3l1.7,19.6L59,9.8z M54.6,11.3l5.1-9.9
	l-0.9,8.4L54.6,11.3z M60.1,30.3l-4.7-2.6l-0.9-14.7L60.1,30.3z M59.4,30.7L47.2,30l7.9-1.7L59.4,30.7z M37.8,43.5l11.6,10.8
	l-5.6,3.6h-0.3l-0.3,0.3l-5.6-3.4l0,0.1l0,0l-0.2,0H38V43.6L37.8,43.5z M38,54.8l-4-1.9l0.1-0.2l3.9-8.4V54.8z M37.5,55.1l1,3.5
	l-4.9-5.5L37.5,55.1z M36.5,68.6l-7.4,3.5l9.1-11.4l-1.9,7.8L36.5,68.6z M28.6,72.7l0.3-0.3l7.6-3.6l-12.2,20L28.1,74L28.6,72.7z
	 M36.4,70.2L30,89.9h-5.7L36.4,70.2z M29.5,92.1l-1.8-0.3l1.9-1.8L29.5,92.1z M27.4,92.4l2.1,0.4l-0.3,5.4l0.6,0l0.5-8.6l5.2,3.7
	l-6.6,12.3L27.4,92.4z M30.3,89.9L30.3,89.9l-0.1,0.1l6.4-20.3l-0.7,23.2l0,0l-0.2,0.6L30.3,89.9z M35.9,93l0,0.3l-0.1-0.1L35.9,93z
	 M47,140.9l-11.3,3.2l-1.5-0.2L36,94L47,140.9z M33.5,144.8L7,157.6l-3.1-12.7l29.7-0.4L33.5,144.8z M5.3,179.2l1.3-18.6l1,13.8
	l-2.3,5.1L5.3,179.2z M6.4,157.7l-0.3,0.5l-5.4,4.6l2.9-16.7L6.4,157.7z M5.4,179.7l2.2-5l0.4,6.1l-2.7-1L5.4,179.7z M8.7,181.2
	l-1.7-23.5l-0.1,0L33.4,145l-0.3,0.9L8.9,183.1L8.7,181.2z M32.9,160.2l-3.8-0.9l4.8-13.7L32.9,160.2z M31.3,187.4l0.8,6.1l0,0
	l-1.3-2.4L31.3,187.4z M32.5,194.2l-0.1-0.3l4.3-3H40v0l2.7,1.6l0.3,3.7v0.6h3.9l0,0h0.8l0.6-3.5l10.9,4.6l-0.2,0.1l8.5,7.4
	l-10.5-4.8l0,0l-9-5.4l-0.1,0.1l8.7,5.2l-22.5-5.6L32.5,194.2z M57,200.8l8.7,11.4l-16.8-11.2H57V200.8z M65.8,212.5l-6.2,1.1
	l-10.4-12.2L65.8,212.5z M59.7,213.7l6.3-1.2l5.1,6.9l-11.2-5.5L59.7,213.7z M75.2,210.7l2.3,4.3l-6,4.4L75.2,210.7z M91.6,239.6
	l8.9-54.5l0.4,0l7,5.8v3.1h-0.2l7.7,3.7l14.4,11.9l-28.2,22.9l-10,7.3L91.6,239.6z M121,219.5l-6,22.1l-0.3,0.1l-10.2-10.5l16.4-12
	V219.5z M104.2,231.3l10.3,10.4l-0.1,0l3.4,7.1l-15.4-16.2L104.2,231.3z M115.4,242.4l7.8,2.3l-4.3,5.2L115.4,242.4z M115.9,241.9
	l4.5-1.3l0.6,0.5v-0.2h-0.3l2.2,3L115.9,241.9z M120.6,239.9l-5.4,1.7l5.7-21.5v20L120.6,239.9z M121,218.7L121,218.7L121,218.7
	L121,218.7L121,218.7z M120.9,218.4l-0.1-0.1l-8.5,6.3l14.1-11.4L120.9,218.4z M142.9,189.2l0.4,1.4l-2,22.4l-10.7-3.6L142.9,189.2z
	 M141.8,213.6l1.9-21l5,20.4l-0.1,0.7l0,0.3h-6.8L141.8,213.6z M150,213.9v-0.3l4,1.2v0l-0.9,13.8l-4-14.7H150z M153.8,216.5
	l5.6,15.6l-6.1-2.2L153.8,216.5z M153.9,214.9l14.2-0.2l-8.1,17.1L153.9,214.9z M168,214.5l-14.2,0.2l0.7-33l13.7,32.5L168,214.5
	L168,214.5z M186.6,171.4l1.1-2.2l3.8,5.4l-6.1,41.1l-16.8-1.4L186.6,171.4z M192,175.3l3.9,5.6l-8.9,30.3l-0.6,1.7L192,175.3z
	 M188.4,209.1l7.8-4.1l4.6,13.9l-13-7.7L188.4,209.1z M201.4,218.9l-4.8-14.4l17.7-5.8l-12.3,19.4L201.4,218.9z M215.4,180.7l9-11.7
	l5.1,14l-14.9,15.4L215.4,180.7z M235.7,183.3l-10.2,8.1l4.1-8.2L235.7,183.3z M224.5,168.9L224.5,168.9l-0.1-0.2l0,0l0.2,0.1l4.5-7
	l-0.7-1.2l6.6-11l4.7-1.5l1.2,9l-0.1,0l-11.1,25.7L224.5,168.9z M240.2,147.7l1.6-8.2l2.3,29.8l-1-0.2L240.2,147.7z M241.9,139
	l0.1-0.6l10.5-2.4l-8.4,33.2L241.9,139z M241.5,137.8l0,0.1l-14.7-2.6l16.2-2.5l9.4,2.4L241.5,137.8z M251.5,134.5l-7.7-2l0.3-2.1
	l0.2,0L251.5,134.5z M222.7,128.8l-12.2,6.8l-0.4,0l-1.2-2.3l3-2.3l-1.6-3.1L222.7,128.8z M210.9,86.5l1.6,11l0,0.1l-2.4,1.1l0-0.1
	l0-0.2l-0.1,0L207,80.9l0-0.2l0.2-0.1l0.1,0.1l0.1-0.1l0,0l1.4-0.4L210.9,86.5z M205.1,73.7l0.7-3l2.3,1.1L205.1,73.7z M208.2,71.6
	l-2.4-1.2l5-6.1L208.2,71.6z M210.6,63l-8.9-7.5l4.2-1.7l0,0L210.6,63z M202,52l-1.4-0.5l0.3-10.6l-0.3,0l0.2,0l-0.5-5.4l1.7,5.2V52
	z M196.9,36.7l2.7-2.1l-2.8,6.3l0.1,0.1l-0.2,0l1.8,9.9l-2.8-0.9l0.5-11.7l-0.2-0.4L196.9,36.7z M194,34.7l-0.3,0.7l-3.1-5.9
	l1.2,0.3L194,34.7z M188.3,32.2l1.6-2.1l0.3,14.5l-3.2,1.8v0.6h-1.8L188.3,32.2z M187.8,54.3l-2.6-7.3h0.7l4,7.2L182.7,65l-0.6-0.5
	l-0.1-0.1L187.8,54.3z M182.7,65.3l5.1,3.8l-1.7,1.2L182.7,65.3z M186.2,73.5l3.8-0.8l-2.6,4.4l0.1,0l-0.1,0l1.3,5.2l-8.1,0.3
	L186.2,73.5z M180.5,83.3L187,94l-3.2,1.1l0,0l-3.1-2.1l-2.7,4.4L180.5,83.3z M178,99l3-5.2l2.2,1.6l3,14.2l3.3,1.8l6.7,1.8l1.6-4.9
	l3.8-0.7l-1.7,11.9l-1.2-1.4l-10.3-6.8l0.8,4.5l-0.6,0.9l-7.2-13.9H178V99z M181.2,102.9l7.1,14.1l-4.1,4.5l-2.1,0.6l2.5,7
	l-12.4-26.2l2.2,0.1l0-0.1H181.2z M163.5,80.1l10.7,22.4l-2.3-0.3l0.1,0.3v-0.6h-7.1l-9.8-21h7.4l0.1-0.5L163.5,80.1z M159.8,79.4
	l-1.8-4.6l7,2.4l-2.6,2.2L159.8,79.4z M169.5,68l-1.8,0.3l3-5.1l0.5,1.2L169.5,68z M170.1,61.9l-2.5-2.5l2.2-5.2l1.4,0.2l-1.7,6.1
	L170.1,61.9z M171.2,53.7l-6.6-8.6l6.3,5.9L171.2,53.7z M159.4,38.9l2.4,3.7l-5.5-3.7H159.4z M154,45.4l-1.9-2.9l2.9-3.6L154,45.4z
	 M151.9,42.7l2,3l-3.3,8.1l-2.1-1L151.9,42.7z M148.4,52.9l2.1,1l0.3,9.6l-2.5,3.3l0-4.9l0.9-0.8l1.7-1.7v-4.1l-2.3-1.4L148.4,52.9z
	 M147.8,55.1l-5.7-0.1l-1.8-5.8l7.6,5L147.8,55.1z M135.9,55.4l-0.1,8l-0.9,0.5v-3.4L135.9,55.4z M135.2,66l1.2-0.6l0.4,0.7
	l-0.8,0.6L135.2,66z M135.9,79.9h0.3h6.8v4h-13.9l-0.3-4H135.9z M125,61.5v-0.6h-4.7l-0.4-1h5.9L125,61.5z M126.2,54.9h-7.6l6.1-6
	L126.2,54.9z M119,62.2v0.7h-3v-2h-0.7l0.7,0.5v-0.2l-1-0.6v-1.3l2-1.3v2L119,62.2z M114.1,60v0.3l-0.2-0.1L114.1,60z M113,60.4
	l0,1.2l-10.7,0.9l5.3-5.6L113,60.4z M107.3,56.4L99,55.2l6.1-5.1l0.2-0.1L107.3,56.4z M81.8,40.9l0.3,3.3l-1.8,0.1l-3.7-2.8
	L81.8,40.9L81.8,40.9z M76.4,41.6L76.4,41.6l3.7,2.7l0,0.3L77.8,48l-9.3,2.6L76.4,41.6z M67.9,51.2l2.9,2.1l-3.5,0.1L67,53.1
	l-0.2-0.8L67.9,51.2z M72.8,60.8l-0.6,3.1l-8.3-1.6l0,0l-1-1.7L72.8,60.8L72.8,60.8z M67.7,70.5l-6.5-7.6L61.1,63l0.1-0.1L56,58.3
	l5.4-2.2l1,4.8L67.7,70.5z M61.8,55.2L56,57.7l4.5-9.3l5.4,1.4L62,56.3L61.8,55.2z M66,48.8l-4-9.6l0.2,0l0.6-3.8l3.2,8.4V48.8z
	 M62.9,33.1L65,22.8l0.3-0.5l2.6,2.7l0,0.1L62.9,33.1z M67.9,24.9l-2.5-2.6l0.1-0.1L63.9,4.2l3.6,13L67.9,24.9z M63,1.1l0,0.1
	l-4,8.2L59.9,1l0.2-0.3L63,1.1z M43,28l0.1-1.2l1.9-2.9v4.1L43,28z M36.4,2.3l-1.1,7.5l-0.5-6l0.1-1L36.4,2.3z M34.8,4.6l0.5,5.9
	l-0.1,1l0,1.1l-2,8.2L34.8,4.6z M33,21.9l2.1-8.6l-0.3,16.5l-2-6.3L33,21.9z M33.5,35.3l3.9,8L30.7,42L33.5,35.3z M31.1,42.2
	l6.8,1.2v0.5L34,52.4L31.1,42.2z M24.2,108.8l-2.7-19.6l6.2-13.8l-3.6,14.5h-0.3l1.6,21.9L24.2,108.8z M29.7,113.6l-2.9-0.6l2.9-1.4
	l-0.7-5.8l6.7-12.5l0.2,0.1L34,143.5l-4.3-29.7L29.7,113.6z M34,143.8L34,143.8l-0.3,0.1l-0.1,0L34,143.8z M33.4,143.9l-0.6,0
	L13,140.7l5.9-2.2l0,0l4-0.6L33.4,143.9z M19.7,136.7l10.7-3.9l-7.5,4.5L19.7,136.7z M13.2,135.5l16-2.5l-10,3.6L13.2,135.5z
	 M11.5,135.8l9.2,1.7l-2.2,0.3l0,0.1l-8.3,3.2L11.5,135.8z M9.9,141.9l2.9-1.1l19.1,3.1l-26.9,0.4L9.9,141.9z M0.7,163.1l5.2-4.4
	l-4,6.4l0.6,3.2L2,172.2l-1.4-8.9L0.7,163.1z M2.2,173.3l0.5-4l2,10.2L3.1,179L2.2,173.3z M8.8,183.5l0-0.1l24-36.7l-4.6,13.3H28
	v35.7L8.8,183.5z M30.4,194.6l0.3-2.5l0.9,1.7L30.4,194.6z M35.3,194.9l21.5,5h-8.3l-0.3-0.2L35.3,194.9z M60.1,214.2l11.1,5.4
	l-3.5,3.3l0,0L60.1,214.2z M71.3,219.8l5.1,5l-8.5-1.7L71.3,219.8z M76.9,224.8l-0.2,0l-5.2-5.1l6.2-4.5l3.5,6.6L76.9,224.8z
	 M124,243.9l-2-3v-21.2l7.1,9.8L124,243.9z M128.8,228.9l-7.6-10.4l7.8-7.6l1.2-1l10.7,3.6L128.8,228.9z M149,213.9l3.7,15l-10.4-15
	H149z M202.7,217.4l11.8-18.7l14.7-15.2l-4.1,8.1l-0.4,0.3L202.7,217.4z M240.6,168.6L236,183l-0.1,0.1l-6.1-0.1l11.1-25.7l1.5,11.7
	L240.6,168.6z M246.4,168l-2,1.2l8.4-33.2l-0.1,0l0.5-0.1l-0.5,1.2l1.1,9.8L246.4,168z"/>
</svg>
