<?xml version="1.0" standalone="no"?>
<!DOCTYPE svg PUBLIC "-//W3C//DTD SVG 1.1//EN" "http://www.w3.org/Graphics/SVG/1.1/DTD/svg11.dtd">
<svg xmlns="http://www.w3.org/2000/svg" xmlns:xlink="http://www.w3.org/1999/xlink" version="1.1" x="0px" y="0px" width="489.4960021972656" height="592.5579833984375" viewBox="103.031 -21.318 489.496 592.558" enable-background="new 103.031 -21.318 489.496 592.558" xml:space="preserve">
<g id="Layer_2">
</g>
<g id="Layer_1">
	<g>
		<polyline fill="#212121" points="338.088,308.417 338.071,308.28 327.253,220.25 319.86,218.762 316.057,210.044 310.565,169.648     326.037,134.503 346.357,108.255 335.441,95.471 329.451,72.613 335.441,57.797 339.015,51.66 333.764,34.308 338.072,-8.321     342.292,-9.572 357.082,13.712 357.081,43.682 379.49,43.416 377.481,10.042 389.211,-12.808 396.032,-11.855 405.227,21.466     406.179,38.127 394.254,55.816 402.081,76 402.529,88.219 393.584,102.934 394.853,111.393 408.044,133.854 419.79,167.094     413.325,331.857 424.32,332.147 423.151,329.431 447.11,322.251 451.589,325.355 455.096,333.02 456.897,333.893 478.957,333.893     500.286,337.677 532.133,338.259 574.791,343.499 581.95,349.465 582.747,374.876 568.948,411.026 563.075,407.973     560.183,407.534 551.417,438.678 529.795,455.56 486.261,505.624 460.322,489.832 457.787,498.309 424.174,495.873     409.418,529.783 396.562,526.144 374.649,494.854 351.955,521.751 341.633,552.049 331.553,562.964 314.379,542.681     299.414,529.928 280.665,544.142 261.503,510.208 254.418,515.957 234.548,512.944 196.129,469.628 171.001,459.538     163.872,448.112 161.311,448.865 159.509,450.709 144.316,450.709 131.156,435.421 121.698,433.519 111.592,397.249     119.578,377.068 130.461,367.972 133.557,356.77 150.013,347.186 177.199,342.32 184.571,338.145 210.248,335.174     209.861,325.452 224.076,319.349 228.073,310.705 233.234,308.279 245.754,311.727 253.59,308.377 254.24,312.397     269.202,316.863 269.425,319.096 279.027,322.223 278.88,325.202 281.996,319.406 276.138,315.346 276.114,313.547     281.699,304.03 284.65,302.495 285.012,300.629 282.531,299.37 280.439,294.268 279.741,289.997 278.374,274.644 279.913,273.642     282.414,277.376 282.99,287.071 284.55,288.348 285.67,284.665 286.85,276.293 288.604,275.05 290.709,277.376 292.115,284.093     291.075,288.49 295.898,291.469 295.898,294.589 294.488,297.533 292.115,298.908 291.647,301.319 298.415,306.186     302.974,308.774 308.704,309.021 311.723,308.279 311.87,306.326 309.658,305.215 307.186,299.244 306.703,295.469     305.241,279.31 306.867,278.051 309.69,282.033 310.306,292.261 311.908,293.74 313.006,289.688 314.263,280.85 316.133,279.537     318.485,282.109 319.918,289.304 318.871,293.74 324.047,297.622 324.108,300.518 322.137,303.414 320.46,304.708     319.487,307.357 322.137,309.206 329.407,310.684   "/>
		<path fill="none" stroke="#ABFF4F" stroke-width="1.1" stroke-miterlimit="10" d="M338.088,308.417l-10.835-88.167l-7.393-1.488    l-3.803-8.718l-5.492-40.396l14.575-34.018l21.337-26.789l9.506-1.488h13.731l10.985-1.276l12.042-5.102l2.112,10.418    l12.886,23.174l12.041,32.955l-7.129,172.382 M338.727,313.616l-0.261-2.127 M341.14,333.262l-1.792-14.593 M327.465,188.146    l1.055-18.286h-12.04l3.38,48.902l7.182-3.402l-4.542-39.971 M328.139,176.479l-5.639-1.09l6.02-5.529"/>
		<path fill="none" stroke="#ABFF4F" stroke-width="0.25" stroke-miterlimit="10" d="M324.792,135.098l16.898-8.07 M341.69,127.028    l-25.559,42.259 M341.69,127.028l-13.518,42.259 M324.792,135.098l-8.661,34.189"/>
		<polyline fill="none" stroke="#ABFF4F" stroke-width="1.1" stroke-miterlimit="10" points="393.252,103.449 402.081,88.273     402.081,76 394.724,56.527 390.098,49.755 379.587,43.829 350.577,44.675 339.015,51.66 335.441,57.797 329.451,72.613     335.441,95.471 346.583,108.169 342.169,126.794   "/>
		<path fill="none" stroke="#ABFF4F" stroke-width="0.25" stroke-miterlimit="10" d="M341.918,126.863l14.033-20.123 M353.4,123.898    l-11.482,2.965 M353.4,123.898l16.371-17.158 M355.951,106.74l-2.551,17.158 M353.4,123.898l29.129,14.616 M369.771,106.74    l12.758,31.774 M369.771,106.74l33.808,31.774 M380.829,105.468l2.617,14.123 M380.829,105.468l11.268,9.851 M392.097,115.319    l-8.651,4.272 M383.446,119.591l-0.917,18.923 M382.529,138.514l21.05-0.689 M383.446,119.591l20.133,18.234 M403.579,137.825    l-11.482-22.506 M392.097,115.319l15.947,18.535"/>
		
			<line fill="none" stroke="#ABFF4F" stroke-width="1.1" stroke-miterlimit="10" x1="403.281" y1="138.429" x2="403.281" y2="169.14"/>
		<path fill="none" stroke="#ABFF4F" stroke-width="0.55" stroke-miterlimit="10" d="M402.724,169.389l3.258,41.087     M405.982,210.476l14.192-43.429"/>
		<path fill="none" stroke="#ABFF4F" stroke-width="1.1" stroke-miterlimit="10" d="M419.79,167.094l-8.169,47.444 M411.621,214.538    l-11.623,3.374 M395.075,216.225l-8.482-41.329 M386.593,174.896l-9.32-5.694"/>
		<path fill="none" stroke="#ABFF4F" stroke-width="0.55" stroke-miterlimit="10" d="M377.129,169.067l5.497-30.352     M382.626,138.715l20.93,30.352"/>
		<path fill="none" stroke="#ABFF4F" stroke-width="1.1" stroke-miterlimit="10" d="M390.195,172.591l-13.077-2.949     M390.195,172.591l9.444,45.713"/>
		<path fill="none" stroke="#ABFF4F" stroke-width="0.25" stroke-miterlimit="10" d="M405.827,210.558l-5.745,7.886     M411.891,215.034l-6.064-4.476 M382.528,138.732l7.874,33.462 M382.528,138.732l-26.597,36.233 M355.931,174.965l-15.532,2.983     M340.399,177.948l-12.128-8.525 M341.889,127.01l-1.49,50.938 M353.378,124.026l10.001,151.964 M340.399,177.948l-3.83,105.075     M340.399,176.457l-14.855,27.751 M340.399,177.948l22.98,98.042 M356.871,173.686l24.859,30.522 M381.73,204.208l11.331,2.732     M376.996,169.21l4.734,34.998 M382.135,203.311l12.947,64.153 M395.082,267.464l5-49.02 M416.041,228.451l-10.054-11.712     M353.378,124.026l-12.979,52.431 M376.996,169.21l12.569,20.78 M381.73,204.208l-9.415,69.224 M335.08,94.72l8.67,4.476     M343.75,99.196l2.607,9.059 M343.75,99.196l12.181,7.566 M355.931,106.762l12.022-8.525 M367.953,98.237l1.808,8.525     M367.953,98.237l12.873,7.247 M380.826,105.484l9.841-20.248 M390.667,85.236l11.862,2.983 M390.667,85.236l-22.714,13.001"/>
		
			<line fill="none" stroke="#ABFF4F" stroke-width="1.1" stroke-miterlimit="10" x1="343.204" y1="98.76" x2="343.204" y2="75.087"/>
		<path fill="none" stroke="#ABFF4F" stroke-width="0.25" stroke-miterlimit="10" d="M343.516,75.045l24.373,22.982 M367.888,98.027    l-15.912-22.982 M343.516,75.045l-8.514,19.471 M328.935,72.279l14.581,2.766 M351.815,75.045l25.385,2.075 M377.201,77.12    l-9.312,20.907 M377.201,77.12l13.409,7.926 M390.609,85.046l2.855-18.779 M393.465,66.267l9.013,21.759 M393.465,66.267    L377.201,77.12 M377.201,77.12l0.957-22.823 M378.158,54.297l15.307,11.97 M378.158,54.297l-26.181,20.748 M343.516,75.045    l-8.514-17.663 M343.516,75.045l4.15-27.61"/>
		<g>
			<path fill="none" stroke="#ABFF4F" stroke-width="1.1" stroke-miterlimit="10" d="M393.158,66.212l1.553-10.103l11.468-17.982     l-0.952-16.661l-9.195-33.321l-6.821-0.953l-11.73,22.85l2.009,33.374l-19.448,4.231h-12.684 M390.06,49.339l-12.102,4.972"/>
		</g>
		<path fill="none" stroke="#ABFF4F" stroke-width="0.25" stroke-miterlimit="10" d="M378.252,54.374l-18.028-6.67 M360.224,47.704    l-8.137,27.319 M359.426,47.704L343.63,75.023 M361.979,47.704l28.453,1.694"/>
		<path fill="none" stroke="#ABFF4F" stroke-miterlimit="10" d="M338.831,50.95l-5.067-16.642l4.308-42.629l4.22-1.251    l14.789,23.552v29.702 M342.292-9.572l6.571,21.183 M348.863,11.611l1.276,32.493 M357.081,13.98l-8.218-2.369"/>
		<path fill="none" stroke="#ABFF4F" stroke-width="0.25" stroke-miterlimit="10" d="M348.887,11.261l-9.602-1.598 M338.655,51.169    l10.232-39.908 M339.285,9.663l-5.917,24.563 M339.285,9.663l-1.49-18.568"/>
		<polyline fill="none" stroke="#ABFF4F" stroke-width="1.1" stroke-miterlimit="10" points="341.635,-10.152 339.564,9.684     339.049,51.092   "/>
		
			<line fill="none" stroke="#ABFF4F" stroke-width="0.55" stroke-miterlimit="10" x1="349.139" y1="11.282" x2="353.629" y2="44.048"/>
		<polyline fill="none" stroke="#ABFF4F" stroke-miterlimit="10" points="357.082,29.673 354.135,36.137 357.082,13.712   "/>
		<path fill="none" stroke="#ABFF4F" stroke-width="0.25" stroke-miterlimit="10" d="M390.428,49.242l-2.902-43.099 M387.526,6.143    l-9.654,3.517 M387.526,6.143l2.054-19.497 M387.526,6.143l8.863-18.538 M387.526,6.143l12.662,25.066 M377.872,9.66    l12.556,39.582"/>
		<g>
			<polyline fill="none" stroke="#ABFF4F" stroke-width="1.1" stroke-miterlimit="10" points="396.305,-12.372 399.781,31.098      390.278,49.984    "/>
		</g>
		<path fill="none" stroke="#ABFF4F" stroke-miterlimit="10" d="M294.256,297.853l1.913-2.637l-0.147-2.994l-4.718-3.686    l0.919-4.433l-1.221-6.403l-2.398-2.65l-1.754,1.243l-1.18,8.372l-0.951,3.742l-1.427-1.313l-0.686-9.431l-2.693-4.021    l-1.539,1.002l0.732,10.352l1.106,8.719l2.319,5.655 M314.331,309.327l-11.002-0.619l-4.526-2.486l-4.602-3.287l-2.338-1.421    l0.499-2.18l1.894-1.481 M314.009,309.245l1.666,3.093l-4.934,0.279l-7.523,0.445 M290.031,307.841l13.187,5.221 M279.149,357.108    l2.725-6.14l4.929-7.485l1.368-6.072 M303.756,356.714l-3.143,0.078l2.698-15.991l-6.115-13.697l-2.328-10.504 M287.017,335.469    l7.791,7.764l0.957,4.108l0.715,5.35l-0.816,4.968l0.036,3.846l4.248,0.247l1.614-0.573 M280.011,325.202l3.093-1.696l4.534-0.075    l2.241,2.504l0.376,4.598l-2.265,3.193l-3.093,1.696l-2.875-0.008l-2.39-2.496l-0.717-2.273 M282.531,299.37l2.481,1.259    l-0.362,1.866l-2.951,1.535l-2.362,4.274l-3.223,5.243l0.247,1.989l5.635,3.87l0.838-1.427l-2.761-3.862l2.107-3.339l0.654,7.201    l-2.446,5.665l-1.351,3.301l-0.477,5.719l0.903,6.111l-1.542,8.698l-3.329,6.171l-1.26,2.065l-0.031,2.465l3.689,1.199    l4.331-1.143l1.54-2.541l-2.067-2.051"/>
		<g>
			<path fill="none" stroke="#ABFF4F" stroke-width="0.25" stroke-miterlimit="10" d="M283.673,286.938l-2.832,2.477l-0.153-9.337     l1.553-3.192l0.758,8.995L283.673,286.938z M278.495,276.604l0.291,9.019l1.325,4.762l0.73-0.97l-0.153-9.337l-1.759-4.117     L278.495,276.604z M286.71,276.04l-0.84,8.141l-0.878,4.248l-2.733,7.613l2.707,1.267l4.293-10.649l0.756-6.735l-1.365-5.538     l1.365,5.538l-0.756,6.735l0.922,6.028l0.333,4.502l0.139,1.86l-1.422,2.718l3.584,3.248l1.492,1.06l7.541,3.553l4.873,0.727     l8.727,0.798 M289.124,287.056l2.392,1.205l4.597,3.275l0.185,3.729l-6.171-3.664L289.124,287.056z M292.278,298.892     l-1.625,0.158l-0.139-1.86l3.852-3.231l1.932,1.306l-1.843,2.038L292.278,298.892z M284.966,297.309l5.548-0.119l0.139,1.86     l-3.322,2.034L284.966,297.309z M293.778,308.94l6.785,2.232l1.285-1.543l-7.541-3.553L293.778,308.94z M280.999,305.137     l6.008,0.402l0.324-4.455l-5.854,2.706L280.999,305.137z M281.89,307.429l-4.33,6.757l0.418,2.159l-1.84-0.999l-0.192-2.326     l5.053-7.883L281.89,307.429z M293.778,308.94l-7.062,0.118l-4.826-1.629l-0.891-2.292l6.008,0.402l5.808-0.523L293.778,308.94z      M291.2,311.638l-0.003,6.23l2.328-0.116l-0.096-3.499L291.2,311.638z M296.933,325.292c-0.094-0.306-3.408-7.54-3.408-7.54     l-2.328,0.116l3.353,9.567l4.697,3.738L296.933,325.292z M283.035,317.962l3.713-1.975l4.449,1.881l3.353,9.567l-7.26-6.803     L283.035,317.962z M287.968,323.324l-0.678-2.692l-4.255-2.67l0.193,5.442L287.968,323.324z M286.748,315.987l0.542,4.645     l-4.255-2.67L286.748,315.987z M282.46,309.503l0.125,0.191l4.163,6.293l-3.713,1.975 M294.55,327.435l4.131,10.346l1.264-5.085     l-0.687-2.068L294.55,327.435z M290.629,333.042l8.052,4.739l-7.508,1.542L290.629,333.042z M301.159,357.165l-0.082-15.765     l-2.396-3.619l1.264-5.085l4.041,8.559L301.159,357.165z M291.65,339.533l5.685,1.703l2.041,3.519l0.013,16.703l-0.548,0.729     l-1.192-0.525l-0.987-8.128l-2.039-10.528L291.65,339.533z M301.077,341.4l-3.742-0.164l-2.089,2.556l4.13,0.963      M287.142,335.669l-2.754,5.626l-1.83,7.802l4.256-5.936l1.683-6.041L287.142,335.669z M282.236,337.899l0.085,4.084     l-3.012-1.953l-0.563-4.294L282.236,337.899l4.906-2.23l3.487-2.627l3.921-5.607 M278.767,343.211l3.45,1.347l0.341,4.539      M279.519,356.022l-0.911-6.613l-2.096,0.105 M282.321,341.983l-0.104,2.575l-7.522,10.654l-0.519,3.646 M289.915,325.719     l-2.386,1.286l-3.317-1.002l-4.457-0.479l1.559,3.193l-2.515,1.059 M289.907,330.275l-2.378-3.27l-1.8,3.712L289.907,330.275z      M281.314,328.717l4.415,2l-1.977-4.574L281.314,328.717z M286.607,334.294l-0.878-3.577l-3.986,1.95L286.607,334.294z      M281.314,328.717l0.429,3.95l-2.223-0.123l-0.691-2.185 M283.228,323.404l0.984,2.599l3.756-2.679"/>
		</g>
		<path fill="none" stroke="#ABFF4F" stroke-miterlimit="10" d="M372.74,305.648l-2.196-2.432l-0.148-2.995l4.405-4.146    l-1.367-4.322l0.6-6.498l2.162-2.879l1.898,1.06l2.02,8.216l1.333,3.63l1.311-1.452l-0.239-9.459l2.324-4.274l1.656,0.842    l0.284,10.381l-0.256,8.791l-1.784,5.864 M374.811,309.58l0.71-0.528l-0.72-2.12l-2.061-1.284 M348.748,319.24l16.179-2.733    l3.427-1.648 M349.334,319.211l2.374,3.749l6.651,0.036l6.825-1.302 M377.999,315.165l-12.815,6.529 M393.878,363.117    l-3.364-5.839l-5.723-6.953l-1.984-5.907 M383.782,342.367l-7.109,8.517l-0.561,4.185l-0.192,5.4l1.316,4.863l0.344,3.832    l-4.269,0.675l-7.934-1.914l0.646-2.497l6.124-0.459l-4.311-15.647l4.826-14.255l1.314-10.692l-1.756-5.977 M389.848,331.439    l-3.295-1.376l-4.592,0.383l-2.017,2.718l0.075,4.616l2.605,2.951l3.296,1.376l2.905-0.298l2.17-2.727l0.499-2.335     M384.743,305.975l-2.384,1.505l0.551,1.82l3.134,1.23l2.812,4.018l3.777,4.894l-0.054,2.004l-5.313,4.424l-0.987-1.338    l2.408-4.124l-2.46-3.111l0.052,7.235l3.032,5.393l1.693,3.151l1.05,5.645l-0.31,6.175l2.421,8.504l3.975,5.808l1.479,1.929    l0.275,2.451l-3.611,1.565l-4.491-0.7l-1.807-2.374l1.885-2.25"/>
		<g>
			<path fill="none" stroke="#ABFF4F" stroke-width="0.25" stroke-miterlimit="10" d="M382.521,293.736l3.065,2.183l-0.774-9.307     l-1.861-3.022l0.138,9.027L382.521,293.736z M386.654,282.938l0.603,9.005l-0.847,4.871l-0.823-0.895l-0.774-9.307l1.345-4.272     L386.654,282.938z M375.214,312.635l-1.259,2.867l-7.275,2.62l-4.778,1.208l-11.194,2.159 M378.419,283.192l1.642,8.018     l1.295,4.142l3.475,7.304l-2.569,1.529l-5.329-10.171l-1.418-6.627l0.809-5.648l-0.809,5.648l1.418,6.627l-0.32,6.091     l0.114,4.512l0.048,1.866l1.683,2.564 M377.108,294.395l-2.262,1.436l-4.251,3.716l0.186,3.729l5.778-4.259L377.108,294.395z      M375.142,306.486l1.634-0.003l-0.048-1.866l-4.153-2.831l-1.793,1.49l2.036,1.846L375.142,306.486z M382.263,304.185     l-5.535,0.432l0.048,1.866l3.507,1.695L382.263,304.185z M374.643,316.636l-6.533,2.895l-1.431-1.409l7.412-3.016     L374.643,316.636z M386.987,311.582l-5.941,0.997l-0.763-4.401l6.095,2.111L386.987,311.582z M386.326,313.952l4.981,6.294     l-0.203,2.19l1.732-1.176l-0.039-2.334l-5.81-7.344L386.326,313.952z M374.643,316.636l7.041-0.584l4.641-2.1l0.661-2.37     l-5.941,0.997l-5.832,0.056L374.643,316.636z M377.478,319.065l0.618,6.199l-2.329,0.116l-0.251-3.492L377.478,319.065z      M373.124,333.222c0.061-0.315,2.644-7.842,2.644-7.842l2.329-0.116l-2.389,9.854l-4.306,4.187L373.124,333.222z      M386.229,324.548l-3.891-1.597l-4.242,2.313l-2.389,9.854l6.551-7.491L386.229,324.548z M381.85,330.374l0.408-2.747     l3.971-3.079l0.348,5.434L381.85,330.374z M382.339,322.951l-0.08,4.676l3.971-3.079L382.339,322.951z M385.965,316.073     l-0.107,0.201l-3.519,6.677l3.891,1.597 M375.707,335.118l-3.087,10.706l-1.762-4.936l0.478-2.126L375.707,335.118z      M380.165,340.309l-7.545,5.515l7.625,0.79L380.165,340.309z M372.073,365.361l-1.478-15.697l2.026-3.84l-1.762-4.936     l-3.175,8.92L372.073,365.361z M379.792,346.869l-5.49,2.26l-1.683,3.706l1.642,16.623l0.617,0.67l1.136-0.641l0.176-8.186     l0.987-10.68L379.792,346.869z M370.595,349.664l3.707-0.535l2.333,2.337l-4.016,1.369 M383.896,342.577l3.298,5.326l2.594,7.581     L384.965,350l-2.273-5.844L383.896,342.577z M389,344.308l0.319,4.074l2.806-2.242l0.137-4.33L389,344.308l-5.103-1.731     l-3.731-2.268l-4.458-5.191 M392.979,349.251l-3.3,1.683l0.109,4.55 M393.5,362.076l0.252-6.672l2.096-0.104 M389.319,348.382     l0.361,2.552l8.542,9.856l0.877,3.577 M380.151,332.95l2.502,1.044l3.202-1.328l4.39-0.918l-1.236,3.331l2.608,0.806      M380.608,337.483l2.044-3.489l2.159,3.514L380.608,337.483z M389.009,335.079l-4.197,2.429l1.514-4.748L389.009,335.079z      M384.293,341.156l0.519-3.648l4.161,1.546L384.293,341.156z M389.009,335.079l-0.036,3.975l2.201-0.344l0.471-2.242      M386.578,329.982l-0.723,2.684l-4.004-2.292"/>
		</g>
		<path fill="none" stroke="#ABFF4F" stroke-miterlimit="10" d="M322.158,303.613l2.04-2.784l-0.155-3.161l-5.031-3.892l0.979-4.68    l-1.301-6.762l-2.557-2.797l-1.87,1.313l-1.257,8.838l-1.016,3.952l-1.519-1.386l-0.733-9.959l-2.871-4.244l-1.641,1.057    l0.781,10.931l1.179,9.205l2.472,5.971 M346.133,306.684l-16.745,3.8l-7.288-1.505l-2.492-1.5l0.532-2.301l2.018-1.565     M346.133,306.684l-0.699,2.996l-14.457,4.947 M330.977,314.627l-5.929,0.99l-5.036,0.049 M306.053,366.178l2.906-6.483    l5.254-7.903l1.458-6.411 M325.111,319.24l-0.037-3.107 M314.441,343.33l8.306,8.198l1.021,4.336l0.762,5.651l-0.87,5.244    l0.039,4.061l4.528,0.261l4.354-3.559l-1.604-1.605l-2.04-0.072l2.876-16.884l-6.518-14.463l-0.136-11.294 M306.972,332.491    l3.298-1.791l4.834-0.079l2.388,2.643l0.402,4.855l-2.415,3.372l-3.299,1.789l-3.064-0.008l-2.549-2.636l-0.763-2.399     M303.116,312.781l-3.595,2.783l-4.442-4.054l-1.999,0.545l-0.965,1.87l3.577,3.161l4.733,4.867l7.275-5.698l1.584,1.005    l0.699,7.603l-2.608,5.982l-1.441,3.485l-0.508,6.039l0.962,6.452l-1.644,9.184l-3.549,6.516l-1.343,2.18l-0.033,2.602    l3.932,1.265l4.618-1.205l1.642-2.683l-2.204-2.165 M309.658,305.215l2.647,1.33l-0.387,1.969l-3.222,0.659"/>
		<g>
			<path fill="none" stroke="#ABFF4F" stroke-width="0.25" stroke-miterlimit="10" d="M310.777,292.124l-2.979,2.614l-0.16-9.853     l1.633-3.368l0.796,9.492L310.777,292.124z M305.33,281.221l0.308,9.516l1.393,5.025l0.767-1.024l-0.16-9.853l-1.851-4.344     L305.33,281.221z M336.014,309.173l0.127-0.404 M313.971,280.626l-0.883,8.588l-0.924,4.484l-2.876,8.032l2.849,1.337     l4.515-11.237l0.793-7.106l-1.433-5.844l1.433,5.844l-0.793,7.106l0.969,6.362l0.351,4.749l0.145,1.964l-1.495,2.867l3.77,3.428     l1.614,2.878l2.844-2.854l-4.458-0.024 M316.509,292.247l2.518,1.272l4.832,3.456l0.195,3.935l-6.49-3.867L316.509,292.247z      M319.827,304.738l-1.71,0.167l-0.145-1.964l4.051-3.409l2.031,1.379l-1.938,2.15L319.827,304.738z M312.137,303.066l5.835-0.126     l0.145,1.964l-3.492,2.146L312.137,303.066z M308.901,313.746l-8.881,8.483l-8.373-8.577l1.647-2.072l6.172,6.744l7.098-5.739     L308.901,313.746z M314.284,311.751l6.108-0.551l1.614,2.878l-8.03,1.387l-5.075-1.719l-0.341-0.88 M318.692,318.186     l-0.002,6.574l2.448-0.122l-0.1-3.693L318.692,318.186z M324.722,332.595c-0.098-0.324-3.584-7.956-3.584-7.956l-2.448,0.122     l3.526,10.095l4.94,3.944L324.722,332.595z M310.107,324.861l3.904-2.086l4.679,1.986l3.526,10.095l-7.636-7.178L310.107,324.861     z M315.293,330.518l-0.713-2.84l-4.473-2.817l0.201,5.742L315.293,330.518z M314.011,322.775l0.569,4.903l-4.473-2.817     L314.011,322.775z M309.8,314.115l-0.167,2.02l4.378,6.64l-3.904,2.086 M322.216,334.855l4.344,10.917l1.33-5.366l-0.722-2.183     L322.216,334.855z M318.092,340.772l8.468,5.001l-7.895,1.627L318.092,340.772z M329.167,366.227l-0.087-16.636l-2.52-3.818     l1.33-5.366l4.25,9.031L329.167,366.227z M319.166,347.621l5.979,1.797l2.147,3.714l0.013,17.624l-0.576,0.769l-1.254-0.554     l-1.039-8.576l-2.143-11.109L319.166,347.621z M329.08,349.591l-3.935-0.173l-2.198,2.698l4.345,1.016 M314.426,343.544     l-2.897,5.936l-1.924,8.232l4.475-6.264l1.77-6.373L314.426,343.544z M309.266,345.897l0.09,4.309l-3.169-2.06l-0.592-4.531     L309.266,345.897l5.16-2.352l3.666-2.773l4.124-5.916 M305.617,351.501l3.628,1.421l0.36,4.79 M306.408,365.021l-0.958-6.977     l-2.204,0.109 M309.356,350.206l-0.111,2.717l-7.91,11.242l-0.546,3.848 M317.342,333.044l-2.51,1.359l-3.487-1.06l-4.688-0.505     l1.638,3.37l-2.644,1.117 M317.334,337.852l-2.502-3.448l-1.893,3.914L317.334,337.852z M308.295,336.208l4.644,2.109     l-2.079-4.826L308.295,336.208z M313.862,342.094l-0.923-3.776l-4.192,2.059L313.862,342.094z M308.295,336.208l0.452,4.168     l-2.337-0.13l-0.728-2.306 M310.308,330.603l1.037,2.741l3.948-2.826"/>
		</g>
		<path fill="none" stroke="#ABFF4F" stroke-miterlimit="10" d="M342.449,302.732l-0.453-4.074l0.751-2.939l1.46-3.095l-0.519-5.61    l-1.659-5.84l2.395-2.876l3.642,1.035l1.895,11.91l1.914-0.095l-0.043-0.872l1.457-9.571l3.08-3.697l2.007,3.173l-0.97,8.662    l-1.313,4.122l1.796,4.031l-3.051,6.171 M343.62,307.292l1.748-0.974l-0.756-2.234l-2.163-1.352 M344.334,314.562l-8.282,7.553    l-14.744,1.107l-0.528-3.018l13.585-2.467l6.225-6.12 M357.964,362.187l-0.773-6.477l-2.096-5.912l-2.081-6.224l-2.259,0.623    l-4.179,6.188l-0.588,4.41l-0.202,5.689l1.381,5.122l0.361,4.038l-4.481,0.71l-6.322-1.967l1.213-3.313l3.889,0.15l-4.524-16.485    l5.064-15.016l1.379-11.263l-2.156-6.504 M359.265,335.636l-0.524,2.46l-2.277,2.872l-3.049,0.314l-3.457-1.448l-2.735-3.109    l-0.078-4.863l2.115-2.864l4.819-0.403l3.458,1.45L359.265,335.636z M356.656,322.625l3.182,5.682l1.776,3.319l1.1,5.947    l-0.323,6.506l0.861,10.076l0.8,5.209l1.754,3.444l-0.308,2.564l-5.002,1.557l-6.208-0.845l0.905-2.674l2.58-1.823     M355.044,303.075l-2.501,1.586l0.578,1.918l3.289,1.295l9.862,2.303l13.467-0.674l1.094,2.013l-2.259,1.461l-12.035,2.176    l-9.938-0.15l0.023,3.274"/>
		<g>
			<path fill="none" stroke="#ABFF4F" stroke-width="0.25" stroke-miterlimit="10" d="M352.569,290.034l3.242,2.305l-0.817-9.821     l-1.969-3.19l0.144,9.526L352.569,290.034z M356.94,278.641l0.637,9.501l-0.896,5.14l-0.87-0.943l-0.817-9.821l1.421-4.509     L356.94,278.641z M348.231,278.909l1.737,8.46l1.369,4.37l3.676,7.707l-2.719,1.614l-5.634-10.732l-1.5-6.994l0.856-5.958     l-0.856,5.958l1.5,6.994l-0.338,6.426l0.12,4.762l0.05,1.969l1.78,2.705l-3.432,3.786l-1.331,3.025l1.331-3.025l-11.093,9.776     l-13.287,1.625 M346.844,290.73l-2.393,1.515l-1.996,3.5l-0.817,2.803l4.626-2.941L346.844,290.73z M344.764,303.488l1.728-0.003     l-0.05-1.969l-4.393-2.989l-0.411,0.021l0.667,3.501L344.764,303.488z M352.294,301.06l-5.852,0.456l0.05,1.969l3.709,1.788     L352.294,301.06z M343.721,312.987l-0.212,0.014l-9.762,6.751l11.093-9.776L343.721,312.987z M357.292,308.865l-6.283,1.052     l-0.808-4.644l6.447,2.227L357.292,308.865z M356.593,311.366l4.406,0.763l6.319,0.923l13.584-2.668l-13.665,1.029l-9.945-2.548     L356.593,311.366z M343.509,313.001l8.175,0.58l4.909-2.215l0.699-2.501l-6.283,1.052l-6.169,0.059L343.509,313.001z      M347.234,316.761l0.655,6.542l-2.462,0.122l-0.266-3.685L347.234,316.761z M342.628,331.699     c0.067-0.332,2.799-8.274,2.799-8.274l2.462-0.122l-2.527,10.397l-4.552,4.418L342.628,331.699z M356.491,322.547l-4.115-1.686     l-4.487,2.442l-2.527,10.397l6.931-7.905L356.491,322.547z M351.86,328.694l0.433-2.899l4.198-3.248l0.367,5.734L351.86,328.694z      M352.376,320.861l-0.083,4.934l4.198-3.248L352.376,320.861z M356.491,322.547l-4.115-1.686l3.722-7.045l0.113-0.213      M345.362,333.7l-3.264,11.297l-1.864-5.207l0.506-2.244L345.362,333.7z M350.078,339.178l-7.98,5.819l8.065,0.833     L350.078,339.178z M341.519,365.612l-1.564-16.564l2.143-4.051l-1.864-5.207l-3.357,9.411L341.519,365.612z M349.682,346.1     l-5.806,2.384l-1.78,3.909l1.736,17.542l0.652,0.707l1.202-0.676l0.187-8.638l1.044-11.269L349.682,346.1z M339.955,349.048     l3.921-0.564l2.468,2.466l-4.248,1.443 M354.023,341.57l3.489,5.621l2.743,8l-5.102-5.787l-2.404-6.168L354.023,341.57z      M359.421,343.398l0.338,4.297l2.967-2.366l0.143-4.567L359.421,343.398l-5.398-1.828l-3.945-2.392l-4.716-5.478 M363.63,348.613     l-3.49,1.776l0.115,4.802 M359.759,347.695l0.381,2.694l0.591,16.86l-2.885-0.049 M347.139,331.557l2.646,1.102l3.386-1.401     l4.644-0.97l-1.308,3.516l2.758,0.85 M347.624,336.341l2.161-3.682l2.283,3.708L347.624,336.341z M356.507,333.804l-4.439,2.563     l1.602-5.01L356.507,333.804z M351.519,340.215l0.549-3.848l4.401,1.631L351.519,340.215z M356.507,333.804l-0.038,4.194     l2.327-0.362l0.5-2.367 M353.936,328.427l-0.765,2.831l-4.233-2.419 M324.911,311.212l4.526,1.361l15.925-4.402 M329.544,310.16     l-0.107,4.94"/>
		</g>
		<path fill="none" stroke="#ABFF4F" stroke-width="1.1" stroke-miterlimit="10" d="M342.191,335.035l-0.842-1.511 M353.869,345.562    l-4.401-0.066 M368.822,345.786l-5.719-0.086 M383.362,346.005l-2.172-0.033 M412.922,339.802l-16.439,6.4l-3.066-0.046"/>
		<g>
			<path fill="none" stroke="#ABFF4F" stroke-width="0.25" stroke-miterlimit="10" d="M501.649,425.81l21.736-16.392      M496.873,431.177l7.433,2.975 M552.75,372.265l4.63,4.367l-4.897-29.208L552.75,372.265z M562.058,361.996l7.238,48.885     l13.451-36.005L562.058,361.996z M552.483,347.424l9.575,14.572l13.817-13.465L552.483,347.424z M562.058,361.996l-4.678,14.636      M575.875,348.531l6.872,26.345l-0.439-25.906L575.875,348.531z M576.058,343.737l-0.183,4.794l-4.533-6.038l-18.859,4.931     l-29.171,3.375l29.438,21.466l-41.061-16.562 M503.72,337.406l9.138,5.952l-40.673-9.656 M467.753,333.748l9.812,17.155     l35.293-7.545l39.625,4.066 M475.584,364.81l15.342-11.962 M510.957,356.092l-35.236,8.685l-33.408-1.245l-19.812,4.025     l53.22-2.78l-50.15,31.467l36.65,24.784l27.049,19.809 M393.387,348.987l84.302,1.886 M363.183,348.312l4.984,0.111      M348.954,347.994l5.295,0.118 M332.469,347.625l4.653,0.104 M315.494,347.246l2.338,0.052 M303.208,346.971l2.425,0.054      M285.619,346.577l9.905,0.222 M277.389,346.774l-4.802-0.488l4.745,0.106 M295.664,348.631l-10.638-1.082 M305.574,349.638     l-2.789-0.283 M321.418,351.248l-6.477-0.658 M337.595,352.892l-5.287-0.538 M346.289,353.776l-8.694-0.884 M356.452,354.808     l-10.163-1.032 M369.45,356.128l-5.571-0.565 M391.925,358.413l-15.332-1.559 M400.721,363.749l41.592-0.217l-43.688-4.439      M391.453,364.322l0.25-0.016 M377.629,365.236l13.824-0.914 M294.714,395.952l9.941,12.569l2.705,0.677l-1.389-24.516     l51.15-17.635 M400.082,363.752l22.419,3.805l-11.441,6.952l-7.079,2.27l-2.486-6.441l-8.041-2.342L400.082,363.752z      M393.716,367.916l28.785-0.359l-21.006,2.781 M388.726,412.003l15.255-35.224l9.211,14.343 M393.454,367.996l-4.716,43.983     l-17.898-37.494L393.454,367.996z M277.371,347.408l-4.784-1.122l-45.228,10.733l-20.079,22.394 M295.996,351.773l-11.893-2.787      M305.049,353.895l-2.791-0.654 M323.87,358.307l-11.898-2.789 M339.903,362.065l-9.006-2.111 M354.908,365.583l-8.257-1.936      M365.236,439.764l5.604-65.279l-11.38-7.587 M365.26,439.641l15.078-45.317 M350.84,432.524l20-58.039l-39.135,7.563     l15.351,13.757L350.84,432.524z M370.84,374.485l-23.784,21.32l-21.419,65.754l6.068-79.511l-25.734,2.634l19.538,76.968      M313.039,452.155l-5.679-42.957 M305.971,384.682l7.214,67.986 M293.645,399.19l1.06-3.22l11.23-11.3l-93.842-1.402     l60.494-36.982l-114.727,6.488l-14.382,3.898l21.548-12.386l-7.067,8.257l57.022-14.111 M419.87,413.717l18.86,28.632     l-1.608-20.051l-11.551-26.054l-11.905-5.087 M388.714,412.003l12.88-41.553l9.466,4.078l14.511,21.716l-6.457,16.149     l18.008,9.905l25.099-1.27l24.028-47.03 M422.501,367.557l3.07,28.687l60.678-22.246l41.158,15.879 M460.953,422.298l1.268-1.27      M511.592,409.71l-25.343-35.712l-10.528-9.221l41.122,4.341l-30.583,4.88 M511.835,409.783l15.973-17.82l-1.06,16.576      M525.981,386.84l1.206-24.844l-3.875-11.197l-17.398,3.806l6.944-11.247l57.159-0.764 M545.902,381.218l17.252,26.297      M562.082,362.056l1.365,45.459l-6.067-30.883l-6.8-1.317 M392.633,342.055l85.056,8.818l-35.376,12.659l47.59-10.758      M363.093,338.993l8.013,0.83 M326.452,335.194l14.533,1.507 M299.808,332.432l6.146,0.637 M278.838,336.598l-6.251,9.688     l-16.472-10.343 M347.461,367.776l7.657-0.878 M330.964,369.668l6.664-0.764 M207.338,379.259l4.401,4.08l112.19-12.864      M211.8,383.364l14.633,15.808l79.502-14.502 M226.394,399.172l68.311-3.202 M235.426,423.176l21.127-17.272 M256.565,405.929     l14.901,55.008 M227.293,405.209l-0.83-6.037l30.09,6.732l38.17-9.851 M211.301,452.594l-14.109-37.396l10.088-35.785     l-19.903,47.184l1.408-35.402l5.921-19.832l12.574,8.074 M216.418,424.2l-19.226-9.002l14.56-31.784l14.864,22.344      M197.192,415.198l19.445-23.93 M192.074,450.68l5.069-35.384l29.509-9.66 M188.82,391.155l-10.709,49.254l10.309-4.085      M194.706,371.363l-23.905,10.538l-3.168,10.611l21.152-1.317l18.495-11.782 M122.04,395.513l15.937-27.443 M137.903,368.046     l-9.673,63.716l42.571-61.424l-32.824-2.342l-18.058,9.039l2.505,18.225 M123.867,406.124l-1.901,3.294l5.52,22.478     l-15.303-34.639l9.818,12.174 M127.888,431.664l-6.19,1.855 M227.359,357.019l-15.266,26.249 M227.375,357.028l-72.145,2.724     l-23.686,6.83l6.433,1.414l17.259-8.239 M143.409,356.578l11.811,3.186l15.569,10.623l-26.087,79.572 M227.144,357.184     l-32.474,14.118l-23.869-0.964v11.563l18.008,9.258 M170.654,370.266l56.517-13.177 M227.726,336.821l12.11-22.222l-11.867,8.903     l-0.293,13.393l9.651-6.587l17.325,2.708l3.509-4.465l9.796,4.684l11.185-11.904 M269.566,318.867l-7.019,0.976l5.41,13.392     l5.483-13.1 M254.714,333.023l-7.993-12.375l3.947-4.354l2.925-8.416 M254.852,317.533l-4.184-1.239 M250.705,316.358     l7.456,12.193 M253.093,308.573l-15.766,21.735l2.022,6.074 M237.644,330.284l9.077-9.636l11.44,7.903l4.386-8.708l-7.091-2.525      M265.569,335.992l-10.903-2.983 M256.943,335.651l-2.291-2.635 M210.984,334.04l16.93,2.91l-17.563-11.765l17.599-1.628      M227.933,323.411l-3.857-4.062l4.599-9.508L227.933,323.411z M228.236,310.037l11.576,4.793 M424.889,330.771l6.384,6.685     l8.335,5.123l5.02,0.633l10.672-10.733l-7.749,11.026l7.993,1.903l7.896-8.098l-15.498,6.146 M442.044,342.92l-11.843-16.15     l1.072,10.686l-0.536,4.488 M430.542,326.722l24.619,6.019l-17.259-8.165 M259.014,448.911l21.371,94.704l17.156-102.291     l10.722-11.026l2.144,11.124l-12.77-0.098 M279.85,542.827l-36.968-112.096l-7.163-7.61l11.586,60.612l-22.869-46.117     l-7.505-12.537 M226.873,407.369l-2.194,29.711l-5.337,27.662l-50.662-21.368l47.08,27.37l23.065,9.952l8.127,3.513l1.608,2.732     l-16.083,5.903l-31.288-22.003l-4.924-1.317 M171.02,459.669l44.74,11.075l16.717,22.1l9.966,13.978l11.624,9.147l5.788-8.903     l-5.91-10.123l-11.599,9.952l-7.798,6.049l-14.547-16.44l12.519-3.678l14.255-8.691 M220.537,496.552l21.809,10.343l7.628-18.1      M248.56,486.941c-0.415-0.097-16.083,5.903-16.083,5.903l10.405-10.318 M238.386,480.504l-19.044-15.762l-3.582,6.002     l-14.571,0.097l18.812,25.663 M166.927,446.447l4.532,13.1 M213.201,446.301l6.141,18.441l-7.31-12.806 M297.541,441.324     l55.071,46.397l24.711-38.932l1.753-24.784l-12.72,14.831l10.967,9.905l9.831,44.569 M347.446,436.641l12.282,0.39l-6.627,50.74     l21.736,7.415l2.486-46.397 M303.974,527.777l20.468,19.71l17.351,5.22l-7.213-8.343l0.975-42.933l39.282-6.245 M352.321,522.044     l-16.376-20.856 M334.921,501.919l-10.479,45.568l10.138-3.123l17.375-22.613 M314.379,542.681l10.063,4.806l7.263,16.197      M384.522,418.199l2.596,75.084l9.942,3.074l27.341-0.146l-26.609-64.254l-1.462-26.089l-4.534,3.696l-4.532,83.622     l10.528-61.247 M375.348,494.821l11.77-1.538l9.467,32.823l0.475-29.749l0.768-64.161l2.937-30l3.995-3.708l19.641,97.723     l22.005-59.57 M463.44,424.542l-5.653,73.767l13.743-68.4 M553.65,407.369l-14.035,31.028l-27.05,28.102l-26.024,39.518     l-8.224-27.187l-11.479-8.709l0.66-3.293l44.97-0.281l0.39-42.201 M462.27,485.916l16.047-7.086l34.151-12.283l17.315-11.171     l9.832-16.979l11.99,0.403 M528.247,407.844l11.368,30.553 M512.438,466.59l-37.399-23.412 M478.317,478.83l-14.342,0.988"/>
			<path fill="none" stroke="#ABFF4F" stroke-miterlimit="10" d="M456.897,333.893h22.06l21.329,3.784l31.847,0.582l42.658,5.24     l7.159,5.966l0.438,25.76l-13.44,35.801l-6.136-3.347H547.18l-4.674-22.021 M477.15,351.376l33.752,4.832l20.501,43.903     l21.11-27.433 M495.075,433.512l8.937,0.654l27.391-30.489v-3.566 M409.273,395.018l9.933,18.919l0.292,3.056l10.665,20.957     l8.62,4.949l21.913-20.23l28.633,18.628l22.352-30.999l14.998-1.333 M410.848,374.769l2.598,16.646l-24.553,20.775l-23.74,28.016     l-14.316-7.64l-25.419,29.397l-13.002-9.605l-8.327-43.515l-10.373-8.732l-22.401,61.367l-38.956-41.938l-5.333-13.68     l-10.347,17.974l-5.065,29.3l-20.014-2.449l-4.431-23.067l-8.68,12.697l11.029-0.181 M175.128,428.2l-8.608,18.53l-4.528,2.427     l-2.19-0.777l7.888-53.265l10.268,45.637 M143.732,356.499l-24.154,20.569l-7.986,20.181l10.128,36.287l9.436,1.885      M111.592,397.249l10.47-1.504l5.843,35.947l16.411,19.017h15.193l1.802-1.844 M143.363,356.635l-9.663,0.204l-3.239,11.133      M133.557,356.77l16.456-9.584l27.563-4.779l7.523-4.584l26.26-2.195 M239.371,315.556l14.219-7.179l1.656,9.895 M246.018,311.99     l-12.784-3.711l-5.161,2.426l-4.091,9.411l-14.121,5.336l0.681,9.412l4.286,3.687l40.247-2.184l10.665,0.582l2.337-2.764     l10.109-3.494 M278.035,330.788l1.364-9.022l-9.739-2.451l-0.487-2.207l-14.746-4.517 M307.46,330.788h-8.135 M340.581,331.056     l-15.214-0.064 M342.656,331.065l-2.075-0.009 M463.569,345.924l-0.098-8.343l-8.375-4.561l-3.507-7.665l-4.479-3.104     l-23.959,7.18l7.11,13.291l16.07,1.358l15.338,2.863L463.569,345.924z M413.325,331.857l10.995,0.29 M163.872,448.112     l7.129,11.426l25.128,10.09l38.371,42.884l19.918,3.445l7.085-5.749 M219.308,464.195l27.27,18.822l34.087,61.125l72.266-56.661      M299.414,529.928l14.461,12.37l17.678,20.666l10.08-10.915l10.811-30.562l22.205-26.633l21.913,31.29l12.856,3.639l14.756-33.91     l33.551,2.668l19.425-65.138 M560.183,407.534l-8.766,31.144l-21.622,16.882l-43.534,50.064l-26.296-16.009"/>
		</g>
	</g>
</g>
</svg>