<?xml version="1.0" encoding="utf-8"?>
<!-- Generator: Adobe Illustrator 18.0.0, SVG Export Plug-In . SVG Version: 6.00 Build 0)  -->
<!DOCTYPE svg PUBLIC "-//W3C//DTD SVG 1.1//EN" "http://www.w3.org/Graphics/SVG/1.1/DTD/svg11.dtd">
<svg version="1.1" id="Layer_1" xmlns="http://www.w3.org/2000/svg" xmlns:xlink="http://www.w3.org/1999/xlink" x="0px" y="0px"
	 viewBox="0 0 211.6 292.5" enable-background="new 0 0 211.6 292.5" xml:space="preserve">
<path fill="#ABFF4F" d="M211.6,227.8l-0.8-20.8l-2.5-9.7l-8.3-6l-0.1-0.1l-6.3,0.5l-6.8-1.8l-1.7-3.9l-3.8-2.2l-12.5-0.9l4.4-2.9
	l-4.7-2l-1.3-1.3l1.3-1.4l2-0.6l1.6-2l0.2-2.6l-3.1-0.9l-1.1,0.6l-0.8-3.4l0.2-3.4l-1.3-1.7l2.2-2l-0.2-8.9h-2l-0.1,3.2l-1.9-3.5
	l-1.1,0.9L163,155l0.3,1.4l-2,2.3v1.4l1.3,1.6l0.8,1.3l-4.1,3.8l-1.3-0.3l-1.4,0.6l-5.7,0.3l0.9-1.7l0.2-1.9l-2-2.5l1.8-2.2l1.3-3
	l0.6-3.1l-2.3,1.1l-0.7,2.6l-1.5-0.5l-0.1-2.2l-0.8-2.2l-1.8,1.8l0.2,2.3l0.1,0.8l-0.1,1.2l-0.3,1.6l0.7,1.5l-1.7,2.4l-54.3-50.6
	l-4.2-10.3l-0.8-3.9l-1.2-2.8l-1.7-2.2l-3.2-1.8l-2.7-3.6l-13-10.9l-0.3-4.7l2.6-10.4L62.5,56l-9.7-9.8l0.2-15l-4.1-11.6L42.8,9.1
	l-7.3-9L31.7,0l-2.1,5.1v16.5l8.6,20.7L37.4,43l-1.1-5.3L23.9,19.4l-6.5-3.4l-0.5,3.8l1.5,10.8l0.2,0.4l0,0.1l0,0l7.4,20.8L22.7,54
	l-1.9,5l0.8,18.7l8.3,10l0,0l0.1,0.1l0,0l0.1,0.1l5.8,1.4l2.4,2.1l-3,7.9l-3.1,1.2l-0.2,3.2l2.1,2.9l0.2,6.6l0.5,7.9l0.9,7l3,6.4
	v2.4l1,1.8l2.9,1.4l3.6,6.8l1.8,1.2L55,162l-0.1,0.2l0.1,0.1l0.1-0.1l2.5,4.9l-0.7,0.6l-0.8-1.8l-2.3-1.3l-2.2-0.3l-2.2-3.1
	l-1.7,0.3l-2.2-2l-1.7,1l1.5,2.5l1.4,3.8l1.7,4.2l3.1,1.6l-0.6,3.9l-0.4,3.3l-2.2,4.3h-2.1l-1.8,2.8l0.1,1.9l-12.2,1.6l-16.4,1.8
	l-10.2,3.2l0,0L0,199.7l0.2,0.2l0,0l0.6,0.6l2.5,3l-1.1,2.6l2,3.1l3.6,13l-0.4,4l0,0l1.4,25.2l3.1-0.9l2.1-8.1l1.5,9.5l9.5,14.8l0,0
	l0.1,0l1.7,2.7l2.5,4.2l0,0l1.1-0.2l8.8-1l0,0l14.7-5l14.5-3.9l8.2,3.6l4.2,4.2l8.4,14.2l0.2,0.1l0.2,0.3l-0.1-0.3L95,287l2.6-2.5
	l8.7-1.1l10.5-10l5.2,6l1.1,2.6l2.3,2.2l10.6,8l0,0.1l0.1,0l0.3,0.2l0.2,0.1l22-13.9l0.1,0l19.2-41.6l2-1.8l2-3.8l5.9-6.4l1.4,3.8
	h3.4l-0.2-9.9l2.7-3.5l5.3,8h3.4l0,0l0.2,0.4l-0.1-0.3l5.8,4.9L211.6,227.8z M191.6,209.9l0.2,8.5l-0.1,0.1l0.1,8.9l-5.1-13l0,0l0,0
	l-0.8-3.2l-2.1-8.9l7.1,7L191.6,209.9z M186.6,214.4l-1.2,3.6l0-0.1l-0.1,0.1l0.1,0.3l-4.9,14.4l-0.7,1.3l-7.9-28.3l14.1,8.4
	L186.6,214.4z M116.8,272.5l-0.1,0.1l-1.3-1.8l0.1,0l-0.1-0.1l4.3-2.9l2.7,10.9L116.8,272.5z M112.1,267.8l7.3-0.1l-4.2,2.9
	L112.1,267.8z M110.4,269.5L110.4,269.5l-6.2-1.6l7.6-0.1l3,2.7L110.4,269.5z M94.8,286.3l-4.1-0.9l-1.1-0.3l-0.7-1.1l-4.9-14
	l13,14.3l-0.6,0.6L94.8,286.3z M11.5,249.9l-2.1,0.6l0-0.4l4.8-18.5l-0.3,8.7L11.5,249.9z M13.9,239.6l0.3-7.7l1,2.3L13.9,239.6z
	 M8.4,221.6l-1.5-4.9l-2.1-7.6l-1.9-3l0.9-2.2l5.2,6.9l-0.2,3.8l0,0l0,0l-0.6,0l0.6,0.1L8.4,221.6z M48.1,162l0.8-0.1l1.5,3.6
	l0.4,3.1l-1.1-0.1l-0.6-1.9l0.2-0.1L48.1,162z M49.7,168.7l1.1,0.1l0.3,2.9l-2-1.1L49.7,168.7z M51.2,171.7l-0.3-2.9l2.5,1.3
	L51.2,171.7L51.2,171.7z M51,168.7l1.1-1.6l2.9,0.8l1.3,0.3l-2.7,1.9L51,168.7z M56.4,168.3l-1.4,2.8l0,0.2l-1.3-1.2L56.4,168.3z
	 M68,170.3l-0.2-0.1l-4.3-7.9l5.8-5.2l0.2,0l11.3,24l-0.1-0.1l-7.9-1.8l-4.6-8.4L68,170.3z M45.6,140.1l3.5-0.2l1.8-0.4l12.4,22.8
	l-0.1,0.1l-6.2-3.7L45.6,140.1z M43.1,139.6l-0.7-1.1l6.3-1.5l-0.3,2.3L43.1,139.6z M39.3,137l-0.1-0.2v-1.9l1.9,0.9l2.3,0l-1.1,2.5
	L39.3,137z M36.9,102.5l0,0.3l-1.8,0.7l-0.5-2l2.2-0.6l0.5,1.7l-0.3,0.1L36.9,102.5z M38,90.4l-1-2l7.5-2.8l-0.1,4.6L38.7,91
	L38,90.4z M37.5,43.7L37.5,43.7l1.1-1l2.1,1.8l-15,9.7l10.1-9.4L37.5,43.7z M48.9,21.5l0.7,8L36.6,5.9l11.9,14.6L48.9,21.5z
	 M52.5,46.7l-4.1,0.1l1.4-17l2.7,1.7l-0.1,14.8L52.5,46.7z M65.3,63.6l-3,0.2l-2.6-7L65.3,63.6L65.3,63.6z M83,98.3l2,12.9l0,0
	l0,0.1l-0.2-0.1L84,113L83,98.3L83,98.3z M148.6,156.7l2.1,0.6l-0.2,0.8l-0.7,0.6l0,0l0,0l-2.1-0.6l0.4-0.9l0,0l0,0L148.6,156.7z
	 M149.9,167.8l-0.3-0.5l0.8-1.8l0.5-2l0,0l0.3,0.4l-0.1,1.5l-1,2.1L149.9,167.8z M148.9,167l0-0.5l0.8-1.4l-0.1-1.3l1-0.2l-0.4,1.9
	l-0.8,1.7L148.9,167z M146.1,164.4l0.6-1l1.5,1.3l-1.9-0.1L146.1,164.4z M146.6,163.2l-0.6,1l-0.4-0.4l1.8-2.6l1.6,0.4l-0.5,0.6
	l-1.3,0L146.6,163.2L146.6,163.2z M147.5,161l1.2-1l0.4,1.4L147.5,161L147.5,161z M147.5,158.3l1.1,1.5l-1.2,1l-0.5-1L147.5,158.3z
	 M148.8,159.9l0.9-0.9l0.6,0.8l-1.2,1.5L148.8,159.9L148.8,159.9L148.8,159.9z M148.8,163.6l-0.5,0l0.3-1.3l0.5-0.6l0.3,2l-0.6,0
	L148.8,163.6z M147.3,162.3l1.1,0l-0.4,1.5l0.1,0l0,0.7l-1.5-1.3L147.3,162.3z M148.2,164.8l-0.8,1l-1-1.1L148.2,164.8z M148.2,165
	l0,0.8v0.8l-0.7-0.8L148.2,165z M148.8,163.9l0.7,0l0.1,1.2l-0.6,1.1L148.8,163.9z M150.8,163.4l-1.2,0.3l-0.3-2L150.8,163.4
	L150.8,163.4z M148.7,159.8l-1-1.5l1.9,0.6L148.7,159.8z M147,157.8l0.7-0.5l-0.1,0.2l-0.2,0.4l0,0l-0.1,0.2l0,0l0,0l-0.6,1.5
	l-0.1-0.2l0.3-1.4L147,157.8z M151.2,158.7l-0.7,0.9l-0.6-0.8l0.7-0.6l0,0l0.2-0.8l0.1,0l0.4,1L151.2,158.7z M147.1,157.5l0.1-0.9
	l-0.3-2.8l0.4-0.4l0.5,3.7L147.1,157.5z M147.8,167.9l0.1-0.1l0.4,0.9l-1.3,0.1l-0.5-0.1l-0.5-1.6l-51.5-46.7l-0.9-2l-1.5-1.6l0-0.1
	l55.4,50.7l-0.1,0.1L147.8,167.9z M151.6,170.4l9.9-0.1l0.6,1.8l-2.7,4.5v0l0,0l0,0v2.1l1.6,2.2l-8.2-2.6l-0.9,0l-1-2.7l0.7-2.2
	L151.6,170.4z M168.4,173.8l-0.2-1.2l0.1,0l-0.3-0.8l2,0L168.4,173.8z M168.2,174.1l-0.5,0.8l-4.2,2.6l-0.1-0.3l-0.2-0.7l0.3-0.4
	l3.7-4.3l0.4,1.1l0.3-0.1l0.3,1.3L168.2,174.1L168.2,174.1z M168.8,178.8l0.3,1.9l-2.5-0.3l2-1.7L168.8,178.8z M169.4,180.8l-0.2,0
	l-0.3-1.9l2.2,1l-1.5,0.9L169.4,180.8z M167.5,181.1l-0.9,0.4l-0.8,0.8l-1-1.9l0-0.2l1,0.7L167.5,181.1z M167.5,183.7l0-0.1l4.6,5.7
	l-31.7-5.9l2-0.9l1-1l0,0l0,0l0.1-0.1l0.1-1.4l5.4-0.4l1.4,1.4l-0.6,0.9l-0.9,1.6l1.9,0.4l1.6-0.7l1.4-2.4l-1.5-1.7h0.4l8.5,2.7
	l-4.4,0.5l0.9,1.8l7.7,0.2l0.3-0.9L167.5,183.7z M184.4,186.3l-11.9,3l2.1-3.2L184.4,186.3z M201.6,214.4l-3.9-15.5l13.2,28.2l0,0.3
	l-1.1,0.2l-5.9-5h-0.3L201.6,214.4z M197.4,193.8l10.2,3.7l-10,0.5L197.4,193.8z M207.3,197.2l-9.8-3.6l2-1.8l0.4,0L207.3,197.2z
	 M197.2,193.8l0.2,4.2l-8.8,0.5l-0.8,0l0-0.1l0,0l-15.1-9L197.2,193.8z M186.6,214.2l-2.1-1.2l-12.6-7.5l11.8-3.4l0.6,2.5
	L186.6,214.2z M136.5,291.7l-0.2-0.2l0.5-2.5l12.5-13l0.1,0.2l0-0.2l7.2-0.2l1.1,0l0.5,2.1l-0.1,0.1l-20.1,12.7L136.5,291.7z
	 M131.1,258.2l4.2-19.2l-0.7,40.6l0,2.6l-8.9,1.2L131.1,258.2z M111.9,267.6L111.9,267.6l-8.9,0.1l0.2,0l-5.3,0l4.9-6.3l10-12.7
	l0,0.1l0,0l6.8,18.7L111.9,267.6L111.9,267.6z M84.2,268.8l1.5-3.2l11.4,2.2l-13.3,1.6L84.2,268.8z M15.9,234.2l0-0.2l-0.1,0
	l-1.3-2.9l-0.2,0.1l-0.1-0.2l3.2-7.4l2.5-5.7l0.5,26.7L15.9,234.2z M16.2,192.9l0.8-0.1l9.5,1.1l-19.4,2l2.4-0.8L16.2,192.9z
	 M52,180.3l-0.8,1l-2.1,2.8l2.1-4.1L52,180.3z M65.8,170.3l-1.9,1.9l-8.3,2.8l-0.1-0.8l-0.1-1l2.6-0.2l3.8-0.9l2.8-1.2l1-0.6
	L65.8,170.3z M65.6,173.8l11.6,19.9l-12.3-14.1l-2.8-4.9l2.2-0.9L65.6,173.8z M49.8,83.4l7.1,7.5l-6.4,2.5L49.8,83.4z M41,44.6
	l3.4,0.8l-8.7,7.7L41,44.6l0,0.1L41,44.6z M44.4,45.6l-1.1,12.7l-7.9-4.7L44.4,45.6z M44.2,29.7L36.5,5.9l13.1,23.8H44.2z M36.1,5.4
	l7.9,24L32.6,17L36.1,5.4z M49.6,29.9l-1.4,17l-3.6-1.4l0,0l-0.1,0l-0.3-15.5H49.6z M59.4,56.5l2.7,7.4l-4.6,1.7l-5.7-7.9L59.4,56.5
	z M63.1,73.6l-1.1,6.5l-0.1,0.4l0,0L57.3,76l5.8-3L63.1,73.6z M74.3,91.7l0.9-1.8l1.7,1.9L74.3,91.7z M74.3,91.7l-3.9-0.1l-1.1,0h0
	h0l0,0l-0.5,0.1l-8-6.6l14.2,4.7l-0.9,1.8L74.3,91.7z M72.6,93.3L72.2,95l-5.8,0L52,98.4l-0.1,0l8.2-3.3l5.6-1l4.7-1l1.9,0.1
	L72.6,93.3z M84,113.7l1,12l-8.1,2.6l0.1-12.3l4.4-1.9l1.7,11.9l0.2,0l-1.7-11.9L84,113.7z M81.6,113.9l1.2-15.3l1,14.9L81.6,113.9z
	 M117.6,155.3l0.3,0.2l0,0.9l-0.1,0.1l-0.1-0.1l-1,2.7l-0.9-1.7l1.5-2.4L117.6,155.3z M115.6,163.7l0.1-6l0.8,1.4l0.1,0.2l0.2,5.9
	l-1.5-1.2L115.6,163.7z M117,165.3l-0.2-6l1-2.5l0,0l-0.1,5.2l-0.3,3.4l-0.1,0.3L117,165.3z M115.2,164.1l1.7,1.3l0.5,0.7l-0.1,1.7
	l-0.8,2.1l-0.2-0.3l-2-4.7L115.2,164.1z M150.9,170.3l0.1,0.4l0,0.9l-1.2,1.7l-0.6-1.9l0.9-0.6L150.9,170.3z M151.1,173.3l-0.6,1.9
	l-0.6-1.7l1.2-1.6L151.1,173.3z M119.2,227.6l-6.5,20.8l-2.9-9.5l3.5-11.2l3.1-1.5l2.6,1.4L119.2,227.6z M51.7,267.8l-12.5-2.6
	l20.8-7.7l-7.6,10.1L51.7,267.8z M27.1,194l3.7,0.9l-21.9,0.9L27.1,194z M31.2,195.1L31.2,195.1l-2.7,0.1L31.2,195.1z M48.9,184.5
	l2.3-3l0.7-1l-1.2,5.1l-0.8-0.8l-0.1,0L48.9,184.5z M51.9,174.5l1.1,0.2l0,1.4l0,1.3l-1.4,0.1l0.1-0.9L51.9,174.5z M87.3,195.8
	L87.3,195.8l5.9-0.3l-32.9,17.9l-0.8,0.2l10.2-23.9l0-0.1l1.1,1.9l0,0.1l4.8,2.6l2.2,0.8l0.1,0l0,0.1l0-0.1L87.3,195.8z M59.5,137
	l-3.4,0.7l-0.1-1c2.9-1,6.8-2.5,8.7-3.1l3.6,1L59.5,137z M39.4,102l-0.2-0.9l3-1.9l4.5,0.7L39.4,102z M43.3,97.7l-1.1,1.4l-2.9,1.7
	l1.2-2.4L43.3,97.7z M47.1,99.8l-4.5-0.7L58,95.5l1.4-0.2l-8.8,3.5L47.1,99.8z M52.2,99l2.5-0.6l3.2,4.6l-0.2,0.1l-6.7,0.9L49,99.9
	l-0.1,0.1l1.8,4l-6.8-2.6L52.2,99z M67.5,97.3l-0.9-1.7h5.1L67.5,97.3L67.5,97.3z M66.4,95.6L66.4,95.6l0.9,1.8l-9.4,5.6l-3.1-4.5
	L66.4,95.6z M94.5,121.7l-0.6,2.7l-2,2.3l-1.9,1l3.2-4.5l0,0l0,0l0,0l0,0l0.8-2.5L94.5,121.7z M116.4,170.1l-0.5,1.3l-1.7,1l0.3,1.3
	l-1.4-0.6l0.3-0.5l1.1-1.9l1.6-0.9L116.4,170.1z M120.3,174.3l0.4,2.4l-2,0.2l-1.3-2.1l2.8-0.6L120.3,174.3z M157.8,275.5l-10-34
	l0.8-11.7l1.2,2.6l5.2,11.9l3.1,1.4l13-19.5l0,0L157.8,275.5z M148.9,269.3l0.3,6.4l-4.9-8.2l3.3-25.1L148.9,269.3z M130.3,234.1
	l0-0.4l10.4-13.9l-2.3,20l-6.8-4.7L130.3,234.1z M60.2,257.3l0.1-0.1l-0.1,0L62,252l6,10.6L60.2,257.3z M51.3,242.6l1.8-12.1
	l2.4,1.3l6.3,19.8L51.3,242.6z M48.6,220.7l0.1-0.2l2.5,8.6l0.1,0.2l-2.6,17.1V220.7z M9.1,210.8l-5.2-6.9l20.4-1l-1.9,4l-12.9,3.9
	L9.1,210.8z M45.8,190.7l1,0.3l-0.8,1.6l-4,1.8l-4.6,0.3l0.2-0.1l4.1-0.6L45.8,190.7z M46.9,191l0.3,0.1l0.6-0.1l-0.4,1.1l-0.4,1.2
	l0,0l0,0l0,0l0.3,0.6l-4.3,1.4l-0.5-0.4l-0.5-0.4l3.9-1.8l0,0L46.9,191z M60.8,182.7L60.8,182.7l2.4,0.9l-5.4,3.8L60.8,182.7z
	 M64.4,180.2l0.4,0.7l-1.3,2.4l-0.1-2.3L64.4,180.2z M64.9,181l3,5.4l-0.1,0.1l-4.3-3.1l0.2-0.3l0,0L64.9,181z M60.3,188.1l-0.8-0.3
	l-1.4-0.5l5.1-3.6l-2.7,4.3L60.3,188.1z M63.4,183.8L63.4,183.8L63.4,183.8l0.8,3.7l-3.4,0.6L63.4,183.8z M67.3,187.2l-2.8,0.1
	l-0.2,0l-0.7-3.7l4.2,3L67.3,187.2z M60.2,188.8l4.4-0.8l3.1-0.1l0.6-0.8l1.4,2.6l-11.3,1.5l-0.7-2.3l-0.1-0.9L60.2,188.8z
	 M100.8,187.2l-4.7-16l3.7,3.7l-0.1,0l0.1,0.2l-0.3-0.1l-0.7,1.6l1.2,2.4l3.8,3.6l1.3,0.8l-4.1,4.5l-1.1-9l-0.2,0L100.8,187.2z
	 M95.1,167.3L95.1,167.3l-0.9-3.2l3.7-10.6l0.3,14L95.1,167.3z M107.4,169.5l0.9-0.6l2.5,1.9l0,0.7l0,0.4l-0.1-0.1l0.1,0.1l-0.8,0
	l0-0.1l-1.4-0.9L107.4,169.5z M113.2,172.7l-0.2,0.3l-1.4-0.8l-0.7-0.4l0-0.5l0-0.6l3.4-0.1L113.2,172.7z M113.7,178.3l-4.8-0.6
	l-0.1-0.2l0.8-1.5l3.7,0.1l0,0l0.1,0l0.1,0l0,0l3.1-0.4l0.6-0.1l0,0l-0.4,1.3L113.7,178.3z M100.6,176.8l-0.5-1.5l0-0.1l-0.1,0
	l0-0.1l0.1,0.1l5.9,5.5l1.6-4.1l1.3-1.8l1.7-1.1l-0.4-1.5l0.8,0l1,1.6l-2.2,2.2l0,0l0,0l-0.1,0.1l0.1,0l-0.7,1.3l0,0l-2.6,5.1
	L100.6,176.8z M102.5,175.1L102.5,175.1l3.3,3.5l0-0.3l0.2,0.2l-0.4,1l-5.2-4.8l-5.9-6l0.5-0.7L102.5,175.1z M101.6,168.4l0.2,0.1
	l-1.7,2.2l-4.8-2.7l4.5,0.3L101.6,168.4z M102.7,175.1l1.4-1.6l1.9,2.1l-0.3,2.4L102.7,175.1z M105.7,178.2L105.7,178.2l-1.6-1.5
	L105.7,178.2z M102,168.5l1.7,0.8l0.3,4l-3.7-2.5L102,168.5z M100.1,170.8l-0.5,1.4l0.1,0.1l0.5-1.3l3.7,2.5l-1.3,1.6l-7.3-6.9
	L100.1,170.8z M116.7,174.9l0.4,0.6l-3.6,0.4l-0.2-1.7l-0.1-1l2,1l0-0.1L116.7,174.9z M112.9,173.2L112.9,173.2L112.9,173.2l0.4,2.8
	l-0.4,0l-3.1-0.1l2.1-2.1l-0.9-1.5l0.5,0.3L112.9,173.2z M108.7,177.8L108.7,177.8l0.7,2.1l-2.2,2.9l-0.9-0.4L108.7,177.8z
	 M116.9,177.1l0.4-1.2l0.7,1.1l-0.1,0l0.6,0.8l2.2,3.1l-0.1,1.1l-0.8,0.6l0.2-1.2L116.9,177.1L116.9,177.1z M110.8,170.6l-2.3-1.8
	l2.5-1.6l-0.1,0.6L110.8,170.6z M109.3,172.1l0.3,1.1l-1.4,0.9l-0.7,1l-0.7-1.5l0.1-1.8l1.2-0.5L109.3,172.1z M107.5,175.3l-0.6,0.8
	l-0.8,2.2l-0.2-0.2l0.3-2.4l0,0l0-0.2l0,0l0,0l-0.2-4.7l0.9,0.8l-0.1,1.9l0,0L107.5,175.3z M106.2,183.8l1.9,0.3l-1.1,6.2l-3.7,9.3
	l2.1,9.6l-11.2-13.7l1-0.1l6.8-2.1l3.3-1.7l1-1.2L106.2,183.8z M171.4,205.6l-11.3,7.8v0l0,0l-0.1,0l-0.1,0l0,0l-15.7-4.8
	L171.4,205.6z M152,219.1l-10.6,0.4l18.2-5.7L152,219.1z M120.7,212.9l7.4,0.5l-0.1,1.5l-6,11.7L120.7,212.9z M159.8,213.6
	l-18.9,5.9l3.1-10.7l13,4L159.8,213.6z M140.7,219.4L140.7,219.4L140.7,219.4l-12.3-6l15.4-4.7L140.7,219.4z M136.6,217.6l4.1,2
	l-10.5,13.9l-2-18.7l0.1-1.3L136.6,217.6z M149.4,225.5l0,0.1l-0.9,2.2l0,0l-0.3,0.4c-2.9,4.1-7.6,10.8-8.3,11.4
	c-0.4,0-0.9,0.1-1.2,0.1l2.3-20.1L149.4,225.5z M157.9,244.8l-0.6-0.1l-1.9-0.8l-6.9-15.8l0.6-1.4l0.4-0.9L157.9,244.8L157.9,244.8z
	 M149.5,225.4l-8.4-5.8l10.9-0.4L149.5,225.4z M143.9,208.5l-0.3,0l0.1,0l-15.4,4.7l-0.1,0l0,0l-7.5-0.5l0,0l-0.1,0l-0.1,0l0,0
	l-10.8-0.1l7.8-3.9l1.2,1.8l3.1,0.7l2.7-1l-0.1-1.9l-1-1.4l-2.4-3.9l-0.7-3.1l3.9,1.5l-0.4,0.6l8.5,0.2l0.1,1.1l5.2,0.1l3.6,1.3
	l4-1.9L143.9,208.5z M116.5,225.4l-0.1,0.1l-20.1-8.5l9.8-3.5l0.4,0.1l3.1-0.3l10.8,14.3L116.5,225.4z M43,195.5L43,195.5l0.2-0.1
	l0,0l4.4-1.4l0,0l0.8,1.2l-6.6,1.7l-3.7,1.2l-1.7,2.2l0.7,0.8l-1.1,0.7l-0.1,0l0.1-1.8l1.9-2.8L43,195.5L43,195.5z M49.4,190.6
	l0.8-1.3l0,1.3l0,0l0,0l0,0.1l0.1,0l0.7,0.7l-2.2,3.7l-0.2,0l-1.3-1.8l0.4-1.2l0.4-1.1L49.4,190.6z M43,197.5l5.5,22.2l-12.5-4.6
	l6.7-16.9L43,197.5z M81.9,233L77,219.9l11.4,9.2L81.9,233z M74.7,253.7l-3.8-3.5l5.8-29.5l-1.9,32.7L74.7,253.7z M67.7,237.6
	l-16.2-8.7l-0.2,0.3l-2.6-8.9l0.1-0.4l0.2,0l-0.1,0l27.8-0.2L67.7,237.6z M29.9,204.5l2.1-9.2l1.7,7.1L29.9,204.5z M30.5,204.3
	l3.3-1.8l2-0.1l0.2,0.1l2-1.2l-0.1-0.2l5-3.7l-7,17.5l-6-10.4L30.5,204.3z M35.7,201.7l-1.2-0.5l1.7-5l1.4,0.9l-1.9,2.8L35.7,201.7z
	 M42.9,197.2l-5.2,3.8l-0.6-0.7l1.3-1.7l3.5-1.2L42.9,197.2L42.9,197.2z M42.9,195.4l-5.2,1.6l-0.9-0.6l-0.5-0.3l0.4-1.1l5.3-0.5
	l0.5,0.4L42.9,195.4z M33.8,201.6l1.7,0.7l-1.6,0.1l-1.8-7.3l0.1,0l3.6,0.7L33.8,201.6z M24.5,202.9l1.7,2.8l-3.5,1.1l1.5-3.2
	L24.5,202.9z M76.7,220.2l-5.8,29.8l-3-12.3L76.7,220.2z M76.9,220l4.9,13.1l0,0L75,252.9L76.9,220z M88.6,229.8l0.1,0.1l5.9,4.8
	l4.5,21.3l-22.3,7.6L88.6,229.8z M88.6,229L88.6,229L77,219.7L96,217l3,14.1l-4.2,2.9L88.6,229z M109.6,184.3h1.4l-1.8,6.2l-2.2,1.7
	l0.7-1.7l0.3-1.9C108.3,187.5,109.2,185.3,109.6,184.3z M119.7,199.6l0.1,0.6l-2,0.9l-0.1-1.5l1.7-1.2l0.2,1.1l-0.1,0.1L119.7,199.6
	z M99.1,231l-3-14l19.9,8.6l-3.2,1.6l-7.1,22.3l-6.5-18.7L99.1,231z M107.2,212.8l-0.5-10.8l2.3-0.7l-0.4,2.3l-0.3,3.5l0,0l0.3,1.1
	l-0.3,4.4L107.2,212.8L107.2,212.8z M117.5,197l0.1,2.8l0,0l0.1,1.5l-0.1,2.5l-1.3-4.6l-1.8-3.3l0,0L117.5,197z M119.4,198.2
	l-1.7,1.2l-0.1-2.5l1.8-1.2l-0.2,1.7L119.4,198.2z M120.2,204.5l-0.3,3.5l-1.3-2.5l-0.7-1l-0.1-0.2l0.1-2.7L120.2,204.5z M111.7,198
	L111.7,198l-4.7-0.6l4.8-3.2L111.7,198z M109.1,200.9l-1.1-1.3l3.3-1.2l-2.1,2.3L109.1,200.9z M109,210.5l0.1,2.2l-0.7,0.1l0.3-3.9
	L109,210.5z M108.9,207.2l0.1-1.7l0.6-4.2l0-0.2l3.7-4l1.1,3.9l3.6,4.8l0.5,1l-9.2,2.6L108.9,207.2z M116.1,202.1l-1-1.4l-1.1-3.9
	l-0.3,0.1l0-0.1l0.8-0.9l1.8,3.3l1.3,4.6L116.1,202.1z M118.8,207.2L118.8,207.2L118.8,207.2L118.8,207.2z M111.9,197.8l0.1-3.6
	l2,1.3L111.9,197.8z M107,197.2l2.2-6.5l2.6,3.3L107,197.2z M106.5,195.9l-0.5-1.5l0.6-1.5l2.4-2.1l-2.2,6.4L106.5,195.9z
	 M106.7,192.6l0.1-0.2l0.9-0.7L106.7,192.6z M103.9,199.6l2-5l0.5,1.6l0.4,1.2l-0.1,0.1l0.1,0l-1.4,2.4l0.3,7.5L103.9,199.6z
	 M106.8,197.6L106.8,197.6l0.1-0.1l4.6,0.7l0,0l-3.7,1.3l-2.3,0.2L106.8,197.6z M107.8,199.7l1.2,1.3l0,0.1l-2.3,0.7L107.8,199.7z
	 M109.6,210.4l-0.2-0.9l9.2-2.6l0.1,0.4l-1.3,1.4l0,0l-7.7,3.8L109.6,210.4z M119.1,207.8l1,1.9l0.5-0.3l-0.6-1.1l0.3-3.6l2.6,3.3
	l0.4,2.1l-1.5,0.6l-2.7-0.6l-0.9-1.3L119.1,207.8z M123.5,210l-0.4-2.1l-2.7-3.5l0,0h0.9l1.8,2.9l0.9,1.2l0.1,1.3L123.5,210z
	 M120.2,204.2L120.2,204.2l-2.3-2.9l2-0.9l0.7,2.8l0,0l0.6,1H120.2z M119.4,192L119.4,192l-0.4,1.3l-1.2,0.1l0.1-2.4l1.4,0.5
	L119.4,192L119.4,192z M115.2,192.4l2.5-1.3l-0.1,2.3L115.2,192.4z M114.7,194.6l0.4-2.1l2.4,1L114.7,194.6L114.7,194.6z
	 M114.9,192.3l-2.5-0.1l1.3-2L114.9,192.3z M113.9,190.1l2-0.7l0.1,0l0,0l0.2,0l-1.1,2.9L113.9,190.1z M116.3,187.9l-0.4,1.3
	l-1.9-1.2L116.3,187.9z M116.2,189.5l1.5,1.4l-2.5,1.3L116.2,189.5z M116.2,189.3l2.4-0.4l-0.8,1.9L116.2,189.3z M118.6,188.8
	L118.6,188.8L118.6,188.8L118.6,188.8z M116,189.2l0.4-1.3l0.1,0l2,0.9L116,189.2z M116.7,187.2l-0.1,0l0-2.9l1.7,3.3l0.2,0.3
	L116.7,187.2z M113.8,185.9l1.7-1.2l0.8-0.6l0,1.6l0,1.5l-2.9,0.1L113.8,185.9z M113.7,188l2,1.3l-1.9,0.7l0-0.1l0,0.1l-1.2-0.6
	L113.7,188z M113.6,190.1l-1.3,2l0.1-2.6L113.6,190.1z M114.9,192.5L114.9,192.5L114.9,192.5l-0.4,2.1l-0.7-0.3l-1.5-1.9
	L114.9,192.5z M117.7,193.6l1.2-0.1l0,0l-1.4,1.6l-1.7,0.1l-0.9-0.4L117.7,193.6z M118,190.9l0.8-1.9l0.4,0.8l0.2,1.6L118,190.9z
	 M116.2,184l-2.4,1.7l0.2-2.8L116.2,184z M113.3,187.5l-1.5,1.8l-0.1,3.3l1.7,2.2l2.3,1.1l2.1-0.1l1.7-1.9l0.1-0.4l0,0.1l-0.2,2.1
	l-1.9,1.3l-3.1-1.2l-0.3-0.3l-0.1,0.1L112,194l0-0.1l-0.1,0l-2.7-3.4l4.3-4.4L113.3,187.5z M102.1,210.4l4.2-0.1l0-0.1l0,0l0,0
	l-0.5-2.1l-0.4-8.2l2.2-0.2l-1.2,2.2l0,0l0.5,10.9l0,0l0.1,0.1l-0.5,0.1l-4.8-1.4L102.1,210.4z M101.2,212l0.6,0.2l4,1.2l-9.8,3.5
	l-0.1,0l0,0.1l-18.2,2.6L101.2,212z M142.4,188.5l2.6,3l1.8,4l-0.1,0l-0.2-0.2l0.1,0.2l-8.8,1.8l2.6-5.4l0.7-0.5L142.4,188.5z
	 M149.6,200.5l-2.7-4.7l4.4,2.8L149.6,200.5L149.6,200.5z M150.9,197.1l0.4,1.3l-4-2.6L150.9,197.1z M140.9,201.1l-7.6,0.3l4.3-3.9
	L140.9,201.1z M141.1,201.1l-3.2-3.6l0.1,0l0,0l5.9,0.8l0,0.1L141.1,201.1z M137.6,197.3l-1.9-1.6l4.4-3.5L137.6,197.3z
	 M135.4,195.9l0.1-0.1l0.8,0.7l1,0.8l-7.7-1.6L135.4,195.9z M137.3,197.4L137.3,197.4l0.2,0.1l-4.4,4l-0.4,0l0,0.2l0.3,0l0,0l-0.3,0
	l-3.8-6L137.3,197.4z M133.2,201.6l7.6-0.3l-2.7,1.6l-0.3-0.1l-4.7-0.1l-0.1-1L133.2,201.6z M141,201.4l-0.2,2.6l-2.5-0.9L141,201.4
	z M141.2,201.3l4.1,0.9l-4,2L141,204L141.2,201.3z M145.7,202l-0.2,0.1l-0.1,0l0,0l-4.2-0.9l2.7-2.7L145.7,202L145.7,202z
	 M143.9,198.1l-5.8-0.8l8.3-1.7l-2.5,2.5L143.9,198.1z M132.4,201.6l-7.1-0.2l2.3-3.9l-0.1,0l1.2-1.8L132.4,201.6z M124.7,200.9
	l-3.7-1.4l0.6-0.4l4.7-0.7L124.7,200.9z M145.9,201.9l-1.9-3.5l2.6-2.7l2.8,4.9L145.9,201.9z M147.3,195.2l-1.8-4l-1.2-1.4l5.5,0.9
	l-1.1,4.9L147.3,195.2z M140.6,191l-3.2,2.6l-2.1,1.7l-6.7-0.2l-0.3,0.4l-0.2,0l0.2,0l-1.4,2.2l-5.3,0.8l-0.1,0l-1.1,0.7l-0.4-1.7
	l0.4-4l-0.5-3.8l-1-2.2l-1.2-2.4l1.3-1l22.6,5.2L140.6,191z M116.3,183.8L116.3,183.8l-2.3-1l2.5-4.2L116.3,183.8z M113.8,183
	l-0.2,2.9l-4.3,4.4l0.5-1.6l1.3-4.3h0l0,0L113.8,183z M109.6,184.1l0-1.8l1.2-1.6l0.2,3.5H109.6z M109.4,182.5l0,1.7
	c-0.1,0.2-0.9,2.3-1.5,3.7l0.8-4.4l-0.1,0L109.4,182.5z M102.7,192.2l-1.6-4.1l4.1-4.4l-1,7.8L102.7,192.2z M104.9,191l-0.6,0.3
	l1-7.8l0.2,0.2l0.1,6.4L104.9,191z M101,188.3l1.6,4l-0.8,0.4l-2.7,0.9L101,188.3z M98.9,193.6l-3.7,1.2l-0.8,0L92,191l8.9-2.8
	L98.9,193.6z M94.2,194.8l-4.6,0.3l2.3-4L94.2,194.8z M94,195.4l5.1,6.3L61,213.2l32.5-17.7L94,195.4z M99.3,201.8l6.3,7.6l0.1,0.3
	l-3.1,0.1l-0.9-0.1l0,0.2l0.1,0l-0.6,2l-24.2,7.6l-0.2-0.1l0.1,0.2l-27.9,0.2l11.5-6.3L99.3,201.8z M48.6,219.7l-5.5-22.2l16.2,16.3
	l0,0l0.3-0.1L48.6,219.7z M59.4,213.6l-16.3-16.3l0-0.1l5.6-1.5l0,0l0,0l0.3-0.1l2.2-3.6l1,0.8l0.5,1.3l-5.6,3.1v0.9h0l0,0.1v1.9
	l4.8,3l4.6-0.2l-0.7-1.6l-2.7-1.1l-1.9-1.4l2.2,0.1l2.2-1l2.1-1.1l1.1-2.6l-0.3-2.4l-0.3-0.9l11-1.5L59.4,213.6z M52.7,194.9
	l1.8-0.8l-1.3,2.6l-1.4-1.4L52.7,194.9L52.7,194.9z M53.2,185.2l0.8,2l1,2.6l-0.6,0l-2.2-0.1l0.7-3.5L53.2,185.2z M51.8,195.4
	l1.4,1.4l-3.2,1.5l-0.5,0l-0.2-0.1l1.3-2.1l0.6-0.4L51.8,195.4L51.8,195.4z M52.2,202.6l-4.3-2.7v-1.5h1.3l1.3,1.7l3.5,2.5
	L52.2,202.6z M49.1,198.2h-1.2v-0.6l2.4-1.4L49.1,198.2z M54.1,202.6l-3.7-2.6l-1.1-1.5l0.5,0.2l3.2,2.3l2.5,1.1l0.2,0.5L54.1,202.6
	z M53.1,197L53.1,197l0.2-0.1l0.1,0l0,0l4.2-2.4l-0.7,2.4l-1.4,0.7l-2.1,0.9l-3.2-0.2L53.1,197z M55,193.9l-0.1-0.3l0.3-3.6l2.1,0.1
	l0.4,4.2l-4.2,2.4l1.3-2.7L55,193.9z M58.2,192.2l0.3,2.2l-0.3,0.7l-0.9,1.5l0.6-2.2l0,0l0,0l-0.1-3.3L58.2,192.2z M57.7,196.1
	l-0.2,0.5l-0.1,0.1L57.7,196.1z M57.6,190.5l0,1.6l-0.2-2l0,0L57.6,190.5z M54.5,190l0.6,0l-0.3,3.3l-0.1,0l-2.4-3.5L54.5,190z
	 M57.3,189.3l0.2,0.6l-2.3-0.1l-0.6-1.4l-1.3-3.4l1.8,0.5l0.5,0.1L57.3,189.3z M56.8,185.5l-1.1,0.1l0.8-4.3L56.8,185.5z
	 M56.5,180.6l-0.9,4.9l-0.4-0.1l-1.9-0.5l0-0.1l0,0l0.7-3.5l2.5-1.1L56.5,180.6z M53.7,181.3l-0.7,3.5l-0.1,0l0,0.1l-2.1,0.8
	l1.2-5.4L53.7,181.3L53.7,181.3z M52.1,189.9l2.4,3.6l-1.2,0.5l-0.6-1.5l-1.7-1.3l-0.1,0.1l-0.6-0.7L52.1,189.9z M41.5,193.4l-4,0.6
	l-1.3,0.5L36,195l-0.3,0.1l0.2,0l-0.2,0.6l-3.3-0.7l12.3-4.3L41.5,193.4z M31.8,195.2l-2.1,9.3l-3.4,1l-0.9-1.4l-0.8-1.4l0.2,0
	l-0.2-0.1L31.8,195.2L31.8,195.2z M22.5,206.9L22.5,206.9L22.5,206.9L22.5,206.9l3.7-1.1l0,0l0.1,0l0.1,0l0,0l3.3-1l0,0l0.1,0
	l6,10.4L9,214.7l0.2-3.8L22.5,206.9z M35.9,215.3l12.1,4.5l-11.5-0.6L35.9,215.3z M67.3,238.1l3,12.4l4.7,4.3l7.3-21.3l6.2-3.7
	l-11.7,33.7l-18.5-30.3L67.3,238.1z M99.1,256.1l-1.5,11.6L77,263.7L99.1,256.1z M99.2,255.9l-4.4-21.2l4.2-2.9l6.9,19.6l3.9-12.4
	l2.9,9.5L99.2,255.9z M109.7,213l0-0.2l10.9,0.1l1.4,13.9l-0.6,1.2l-0.4-0.2L109.7,213z M149.6,225.5L149.6,225.5L149.6,225.5
	l2.4-6.1l5.8,24.8L149.6,225.5z M159.9,213.7l-1.9,30.7l-5.9-25.3L159.9,213.7z M144.2,208.5l28-19l-1,15.9L144.2,208.5z
	 M144.1,208.4l1.4-5.7l0.5-0.3l4.3-1.7l1.7-2.1l-0.2-0.5l0,0l0-0.1l-0.4-1.5l-2.6-0.9l1.1-5l0.2,0l-0.1-0.1l21.9-1.3L144.1,208.4z
	 M139.4,183.8l0.7-0.3h0.2l4.7,3.5l4.7,3.5l-5.4-0.9l-1.9-2.2l-0.8,1.7l-22.5-5.2l0,0l19.9-0.5L139.4,183.8z M118,183.8l-0.8,0.6
	l-0.3-0.5l1.7-2.6l-2.2-3l0,0.3l-0.1-0.1l-2.5,4.3l0,0l0,0.1l-2.7,1.3l-0.2-3.6l0.1-0.1l-0.1-0.1l0-0.3l-0.1,0.2l-0.2-0.2l-2.6,3.5
	l-2-0.3l-1.7-1.1l-3.7-3.5l-1-2.1l0.4-1.1l0.5,1.3l5.8,5.7l0,0l0.1,0l0.1,0.1l0,0l1.1,0.5l2.3-3l0,0l-0.7-2.1l4.7,0.6l0,0l3.1-1.2
	l3,4.2l-0.2,1.3l-1.4,1.1l-0.4,0L118,183.8z M116.9,182.8l0.1-2.8l0.9,1.2L116.9,182.8z M120.5,179.6l1.9-0.5l1,1.4v0.9l-1.4,0.5
	l-0.8-0.1l0.1-1.1L120.5,179.6z M115.1,173.6l-0.2-0.8l1.3-0.7l0.4,2.2L115.1,173.6z M110.9,170.7l0.1-2.9l0.2-1.8l0.3-1.7l2.9,6.2
	L110.9,170.7z M111,166l-0.2,1.1l-2.5,1.7l-0.1-0.1l-0.9,0.7l-0.1-0.1v-1.7l3.1-2.6l0-0.1l0.9-0.5L111,166z M105.2,170.3l0.6,0.5
	l0.2,4.6l-1.9-2.1l-0.3-4l0.2,0.1L105.2,170.3z M101.7,167.7l-3.4-0.2l0.1,0L98,153.6l3.9,14.2L101.7,167.7z M94.1,163.9l-3.8-13
	l5.2-6.9l-0.1-0.1l-5.1,6.7L89,129l3.2-1.8l1.5-1.7l1.9,19.1l2.3,8.4L94.1,163.9z M89.7,128l-0.7,0.4l-3.6,0.3l7.4-5.2L89.7,128z
	 M88.6,128.6l-2.9,1.6l-9.3,2.4l2.7-2.3c2.9-0.7,5.4-1.3,6.1-1.4L88.6,128.6z M86.4,138.1l-4,9.2l-1.4,1.5l-2,0.6l3.7-3.6l2.1-10
	l0,0l1.5,2.1L86.4,138.1z M72.4,144.7l-0.9-1.2l-3.6-8l1.5-0.4l0,0l0,0l0.6-0.2l3.3-0.9l3.3,9.6L72.4,144.7L72.4,144.7z M84.1,131.2
	l0.2,4.4l-2,9.2l-2.2-12.6L84.1,131.2z M80,132.3l2.2,13l-5.3-1.7l0.1-10.5L80,132.3z M76.8,143.2l-3.2-9.2l0.6-0.2l2.7-0.7
	L76.8,143.2z M74,133.2l-5.4,1.4l-3.6-1.1c0.4-0.2,0.7-0.2,0.8-0.2c0.2,0,7.4-1.7,13-3l-2.7,2.3L74,133.2z M82.2,145.4L82.2,145.4
	l-4.2,4.2l-1-5.9L82.2,145.4z M84.9,135.5l-0.2-4.4l0.8-0.2l0.8,6.7L84.9,135.5z M79.3,130.1l2.7-2.7l0.6-0.2l2.4,1.6
	C83.3,129.2,81.3,129.6,79.3,130.1z M79,130.2c-6.2,1.4-13,3-13.2,3c-0.1,0-0.4,0.1-1,0.3l0.1-1.2l6.5-1.5l10.3-3.3L79,130.2z
	 M62.3,122.3l6.8-0.8l2.7,8.4l-0.7,0.2l-5,1.2l0.1,0l-3.8-8.8l0.2,0.2L62.3,122.3z M69.2,121.3l-10.9-17.9L76.9,116L69.2,121.3z
	 M69.1,121.4l-6.8,0.8l-4-18.5L69.1,121.4z M58,103.2l4.1,18.6l-11-17.7l6.7-0.9l0.3-0.1L58,103.2z M59.2,125.7l-6.9-13.1l9.8,9.6
	L59.2,125.7z M59,125.8l-4.1-1.8l-0.1,0.2l-2.7-11.2l0-0.3L59,125.8z M54.8,124.6l3.8,1.7l-2.8,1.8l-5.5,5.9L54.8,124.6z
	 M62.2,122.4l3.9,9l-2.5,0.6l-4.4-6L62.2,122.4z M72,129.9l-2.8-8.5l7.6-5.3l-0.1,12.3L72,129.9z M58.1,103.1L58.1,103.1l9.3-5.6
	l9.4,18.2L58.1,103.1z M61.8,121.7l-9.7-9.6l-1.1-7.7L61.8,121.7z M52,112.9l2.7,11.3l-4.9,10.1l-0.9,1l0,0l-5.4-12.5l8.5-10.5
	L52,112.9z M49.6,134.8l-0.2,0.5l-0.2,0l-0.1,0L49.6,134.8z M50,134.4l5.8-6.2l2.9-1.9l0.1,0l4.2,5.8l-2.9,0.7l-10.5,2.5L50,134.4z
	 M60.2,133.4l4.4-1l-0.1,1.2c-2.4,0.8-7.7,2.7-8.6,3.1l-1.6-1.9L60.2,133.4z M67.8,135.5l3.3,7.3l-4.8-6.9L67.8,135.5z M76.8,143.7
	l1,5.9l-5.3-4.7L76.8,143.7z M81.3,149.3l1.6-1.7l4.1-9.4l-0.9-7.5l2.7-1.5l1.3,21.7l-11.2,1.7l-0.8-2.2L81.3,149.3z M90.2,151
	l3.9,13.1l-0.1,0.3l-13.2-6.5l-1.8-5.2L90.2,151z M94,164.6L94,164.6l0.2-0.2l0.9,2.9l-0.3,0l-0.8,1.3l-0.2,0.2l2.3,2.2L96,171
	l-0.1,0l5,16.9l-9,2.8l-11.1-32.8L94,164.6z M89.4,195.1l-1.5,0.1l-2-0.3l-4.8-13.2l10.7,9.2L89.4,195.1z M75.9,193.7l-4.6-2.5
	l-6.1-10.8l12.2,13.9L75.9,193.7z M63.3,181l0.1,2.4l0,0l0,0.1l-2.3-0.9L63.3,181z M57.2,182.4l2.7,0.2l-2.6,2.1L57.2,182.4z
	 M57.4,186.2l-0.1-1.3l2.7-2.2l-2.5,4L57.4,186.2z M57,187.6l0.1,1l-1.4-2.9l1.1-0.1l0,0.6L57,187.6L57,187.6L57,187.6z M56.4,180.1
	l-2.5,1.1l1.2-3.2l1.2,1.9L56.4,180.1z M53.1,177.4L53.1,177.4L53.1,177.4l0-1.3l0-1.4l2.3,0.5l-0.3,2.4l-0.8-0.1L53.1,177.4z
	 M53.1,177.6l1.2,0.2l0.8,0.1l-1.3,3.3l0,0l-1.5-0.9l0,0l0,0l0.4-1.3L53.1,177.6z M50.9,186L50.9,186l2.1-0.9l-0.9,4.7l-0.1,0l0,0
	l-1.7,0.7l0.1-1.6l0.2-0.4l-0.2-0.1l0-0.4l-0.1,0.2l0-0.8L50.9,186L50.9,186z M45.3,190.3l-0.2,0.1l-12.2,4.3l12.2-4.6L45.3,190.3z
	 M31.6,195.2l-7.1,7.4l0,0l0,0.1l-17.7-6.5L31.6,195.2z M34.9,215.2l-11.5,1.7l-3.4,0.5l0-0.3l-0.1,0.3l-10.4-2.6L34.9,215.2z
	 M20.6,217.5l9.5-1.4l5.6-0.8l0.6,3.9L20.6,217.5z M39.7,249.5l2.8-0.5l-3.1,7.1l-1.9,0.6L39.7,249.5z M39.9,248.9l8.5-27.6v26.2
	L39.9,248.9z M51.3,229.6l1.3,0.7l-0.1,0l-1.8,11.9l-0.2-0.2l0.2,0.4l-0.6,4.2l-1.5,0.9L51.3,229.6z M51.3,242.8l10.6,9.1l-1.8,5.3
	L51.3,242.8L51.3,242.8z M62,251.8l-6.3-19.9l2.1,1.1l18.5,30.3l-9.2-7.4L62,251.8z M97.8,267.6l1.5-11.5l0,0l0,0l13.2-7.2L99.8,265
	L97.8,267.6z M135.1,262.5l0.4-23.9l2.8,1.9l0.1,0c0,0,1-0.1,1.5-0.1c0.2,0,0.6,0,8-10.6l0.4-0.5l0.2,0.3l-0.8,11.6l-0.1-0.2l0,0.6
	l-12.9,40.2L135.1,262.5z M147.5,242.3l-3.3,25.1l-9.3,14.3L147.5,242.3z M144.2,267.6l5,8.3l-14.4,6.1L144.2,267.6z M149.4,275.9
	l-1.6-33.7l9.9,33.5l-5.1,0.1L149.4,275.9z M157.9,275.8L157.9,275.8L157.9,275.8l13.2-49.4l2.7,10.5l2.6,0.5l0.6-0.2l-18.6,40.5
	l-0.1-0.6L157.9,275.8z M160.2,213.6L160.2,213.6L160.2,213.6l5.1-3.6l6.3-4.4l1.3,16.3L160.2,213.6z M171.6,205.3L171.6,205.3
	L171.6,205.3l-0.2,0.1l1-15.8l11.2,12.4L171.6,205.3z M160.8,190l-10.8,0.6l-0.3-0.2l-9-6.8l31.1,5.8L160.8,190z M151.5,178.9
	L151.5,178.9l1.5,1.7l-1.1-0.3l-1.5-1.5L151.5,178.9L151.5,178.9z M150.8,183.1l-0.9-0.2l0.5-0.9l0.8-1.3l0.6-0.2L150.8,183.1z
	 M150.3,179l1.5,1.5l-0.6,0.2l-1.2-1.2L150.3,179z M144.3,177.4l1.6-2.4l1.5-1.4l-0.2,1.9l1.7,3.3l-5,0.4L144.3,177.4z M151.9,180.5
	l1.1,0.3l-1,1.8L151,183L151.9,180.5z M150.3,178.8l-1.6-3l1.7-0.1l1.1,3.1H150.3z M149.8,173.7L149.8,173.7l0.6,1.7l0,0.1l-1.7,0.1
	l0.5-3.8l0.6,1.6L149.8,173.7z M148.4,171.4l0.6,0.1l-0.5,4.2l0,0l0,0.1l0,0l1.7,3.1l-0.4,0.5l-0.1-0.1l-1.9-3.8l0.4-3.3l-0.2,0.2
	L148.4,171.4z M147.6,172.7l-2.1,2l-0.7,1l-0.6-1.4l2.1-2.2l1.5,0.3L147.6,172.7z M144.6,175.8l-0.9,1.3l-0.4,1.6l0,0l-0.3-1.6
	l1.1-2.6L144.6,175.8z M143.2,178.9L143.2,178.9l-0.2,1l0.1,0l-0.1,1.1l-0.9,0.9l-2.6,1.1l-0.3-0.2l2.4-1.5L143.2,178.9z
	 M138.7,183.2l-19.5,0.5l1.7-1.3l1.2,0.1l1.9-0.7v-1.5l-0.8-1.1l17.2,1.1l-1.4,1.3l-0.8,1.3L138.7,183.2z M120.4,179.5l-1.5-2.2
	l-0.2-0.2l2-0.2l0.1,0.4l1.5,1.7L120.4,179.5z M117.2,174.6l-0.1-0.2l-0.4-0.2l-0.4-2.2l3.6,2L117.2,174.6z M113.3,162.1l0.4,1.3
	l0.4,1.4l2,4.8l-1.6,0.8l-3-6.5l0-0.1l-0.1,0l-0.1-0.2l-0.7-4.3l0.6-3.1l0.1-0.1l0.9,0.5L113.3,162.1z M110.5,159.5L110.5,159.5
	l0.7,4.4l0,0.3l-1,0.6l-0.7-2.8l0.6-4.1l1-1.2L110.5,159.5z M102.1,167.9L98,153l0-0.3l0,0.1l-2.2-8.2l-1.9-19.2l0.2-0.2l10.2,43.6
	L102.1,167.9z M93.9,120.5l-0.8,2.5l-0.3-1.3l0.2-0.1l-0.6-3.7l0.8,0.9L93.9,120.5z M92.7,121.7l0.4,1.5l-7.9,5.5l-2.4-1.6l2.7-0.9
	l6-3.7L92.7,121.7z M85.6,125.4l-0.7-8l3.1-0.5l0.2,6.8l0,0L85.6,125.4z M84.9,117.3l-0.3-4.1l0.7-1.4l2.7,5L84.9,117.3z M77,115.9
	l-9.5-18.4l0.1,0l4.5-1.8h0.2l9.2,18.4L77,115.9z M70.5,93l-4.7,1l-4.7,0.8l7.1-2.4l0.8-0.1l2.8,0.8L70.5,93z M64.6,92.4l-3.9-7.2
	l7.9,6.6L64.6,92.4z M60.4,84.8l-10.4-1.7l7.2-7L60.4,84.8L60.4,84.8L60.4,84.8z M44.5,45.7l7,11.9l-8.1,0.8L44.5,45.7z M51.6,57.7
	l5.7,7.9l-8.9,4l-5-11.1L51.6,57.7z M40.9,82.2l7.5-12.3l1.3,13.2L40.9,82.2z M48.3,69.6l-10.4,0.1l5.4-11.1L48.3,69.6z M37.8,69.5
	l-2.5-15.8l7.9,4.7L37.8,69.5z M48.3,69.8L40.8,82l-2.9-12.2L48.3,69.8z M40.7,82.2l-5.3,3.1l2.4-15.2L40.7,82.2z M49.4,83.2
	L49.4,83.2l-4.9,2.2L41,82.3L49.4,83.2z M57.3,76.3l4.3,4.4l0.1,0.1l-1.3,3.9L57.3,76.3z M57.1,75.9L49.8,83l-1.3-13.2l0,0l0,0
	l8.8-4L57.1,75.9z M51.7,57.5l-7.1-12l3.6,1.4l11.1,9.4L51.7,57.5z M35,53.9L24.3,74.4l0.8-19.5l10-1.2L35,53.9L35,53.9z M35.2,53.8
	l2.5,15.9l-13.3,4.9L35.2,53.8z M37.7,69.9l-2.5,15.4L24.4,74.8L37.7,69.9z M40.7,82.3l3.6,3.1h-8.7L40.7,82.3z M44.6,85.5l0.3-0.1
	h-0.1l4.7-2.1l-5,6.7L44.6,85.5z M49.7,83.4l0.7,9.9l-5.9-3L49.7,83.4z M50,83.3l10.4,1.6L57,90.7L50,83.3z M60.5,85L60.5,85
	L60.5,85l4,7.4L61,93l-3.8-2.2L60.5,85z M67.3,92.6L60.1,95l0,0L58,95.4L42.4,99l1.1-1.4l10.2-2.8L67.3,92.6z M40.3,98.5l-1.2,2.4
	l-2.1-0.1l0.4-1.5L40.3,98.5z M39,101.1l0.2,0.9l-1.9,0.5l-0.1,0l-0.4-1.6L39,101.1z M37.6,103.1l6.1-1.7l7.1,2.8l1.1,7.9l-14.4-8.9
	L37.6,103.1z M37.3,103.2l14.6,9l-8.5,10.5l-6.3-19.4L37.3,103.2z M43.4,123.1l5.3,12.3l0,0l-7.4-3.1L43.4,123.1z M49.2,136l5-1.2
	l1.5,1.9l-7,0.2l-1.6-0.9L49.2,136z M46.9,135.9l1.7,1l-6.1,1.4l1.1-2.5L46.9,135.9z M48.8,137l7.1-0.2l0.1,1l-6.9,1.5l-0.5,0
	L48.8,137z M59.6,137.6l0.6-0.2l2.5,5.4l-11.3-3.5L59.6,137.6z M60.3,137.4l5.3-1.4l-0.1,0l6.3,9l5.9,5.3l0.2,0l0.8,2L63,143
	L60.3,137.4z M78.8,152.6l1.7,5.1l-0.1,0l-11-0.7l-6.5-13.8L78.8,152.6z M80.5,157.9l0.2,0.1l11.1,32.7L81,181.4l0,0l-11.4-24.2
	L80.5,157.9z M85.8,195l0.7,0.1l-2.3-0.2l-11.4-15.4l7.7,1.7l0.4,0.3L85.8,195z M84,194.9l-6.1-0.5l-0.2-0.1l-4.8-14.5L84,194.9z
	 M61.6,175l2.6,4.6l-3.6,2.5l-3.4-0.3l-0.2-3.3l1-1.5l3-1.8L61.6,175z M57.5,176.6l-1.2,1.8l0.1,1.2l-1.1-1.8l0-0.1l0,0l0.3-2.4
	l2.1,1.1L57.5,176.6z M51.5,177.6l1.4-0.1l-0.4,1.3l-0.4,1.3l0,0l0,0l-0.9-0.5L51.5,177.6z M48.5,184.7h0.2l-0.1,0.3l0.2-0.3
	l1.1,0.3l0.4,0.4l0.4,0.4l-3.7,1.8l0.4-0.7L48.5,184.7z M50.7,186l-0.5,1.3l0,0.9l-0.1-0.1l-0.9,1.5l-2-0.2l-0.3-1.6L50.7,186z
	 M47.3,189.6L47.3,189.6l1.9,0.2l-0.2,0.3l-1.8,0.4l-0.1,0L47.3,189.6L47.3,189.6z M44.8,189.4l0.3,0.5l-13,4.9l0-0.1l-0.1,0.1
	l0-0.2l-0.1,0.3l-0.6,0l-4-1l7.2-3.1L44.8,189.4z M27.1,193.8l-9.5-1.1l14.9-1.7l1.4-0.2L27.1,193.8z M6.3,196.1l17.7,6.5l-20.2,1
	l0.1-0.2l0,0l0.2-0.5L6.3,196.1z M28.9,218.5l7.5,0.8L27,236.9l-6.9-19.3L28.9,218.5z M36.6,219.3l4.7,0.2l7,0.4L37,256.4l0,0
	L36.6,219.3L36.6,219.3L36.6,219.3z M39.9,256.7l3.2-7.4l-0.4-0.2l6-1l2-1.2l0.6-3.8l8.8,14.2l-21.1,7.8l-1.8-7.6L39.9,256.7z
	 M51.4,267.9l-11.9,4l-0.6-6.6L51.4,267.9z M53.8,267.1l-1.3,0.4l4.3-5.6l3.3-4.4l0,0l0-0.1l7.7,5.4l-0.2,0l0.3,0.1l-7.3,2.3
	L53.8,267.1z M68.2,262.9l-0.9-1.6l-5.1-9.1l5.1,4.1l9.1,7.3l-3.9-0.3L68.2,262.9z M112.8,248.6l0.2-0.3l-0.2,0.1l6.4-20.4l0.3,39.2
	L112.8,248.6z M127.8,216.7l1.8,17.5l-7.8,11.7l2.2-21.8L127.8,216.7z M121.9,246.1l7.8-11.7l0,0.1l5.4,3.7l-7,4.2L121.9,246.1z
	 M125.8,283.7l-0.2-0.2l8.8-1.2l0,0.1l0.1-0.1l0,0.4l0.1-0.4l0,0l0,0l14.3-6.1l-12.3,12.8l-10.5-4.9L125.8,283.7z M136.7,289.1
	l-0.5,2.4l-9.3-7L136.7,289.1z M171.3,224.7l-13.1,19.7l1.6-25.7l0.3-4.9l12.8,8.4l-1.5,2.9L171.3,224.7z M183.7,201.9l-11.1-12.2
	l15,8.9L183.7,201.9z M172.7,189.4l12-3l0.1,0.1l0,0.1l-0.9,4.8L172.7,189.4z M172.3,189.2l-4.5-5.6l6.6,2.3L172.3,189.2z
	 M162.5,181.7c-0.1-0.7-0.4-3.4-0.5-4.2l2.1,2.3l0,0.1l-0.1,0.2L162.5,181.7z M162.8,167l1.4-0.4l-1.3,3l-0.1,0l0,0.1l0.7,1.8
	l-0.8,0.3l-0.7-1.9L162.8,167z M162.8,160.9L162.8,160.9l1.1-1.1l0.1-0.9l1.1,0.9l0.2,1.5l-2.3-0.4L162.8,160.9z M163.5,158.7
	l0.4,0.1l-0.1,0.9l-1.1,1.1l-0.7-0.9v-1l0.5-0.6L163.5,158.7z M163.9,158.6L163.9,158.6L163.9,158.6l-1.4-0.5l1.2-1.4l0.9,0
	L163.9,158.6L163.9,158.6z M165.4,161.5v0.9l-1.4,0.3l-0.9-1.5l-0.2-0.2l0,0L165.4,161.5z M165.4,162.7L165.4,162.7l0.4,1.6v1.6
	l-2-1.6L165.4,162.7z M166,166.2L166,166.2L166,166.2L166,166.2l0.8-0.1l0,0.6l0.4,1.7l-0.1,0.2l-0.5,0.9l0-0.1l0,0l-0.7-2.2
	L166,166.2z M167.4,171.4L167.4,171.4l-0.8-1.8l0.6-1l0.4,1.9L167.4,171.4z M166.4,169.6L166.4,169.6L166.4,169.6l0.1,0.2l0,0
	l0.8,1.7l-0.8,0.1l-1.4,0.1l0.1-0.1l-0.2,0.2l-1.4-0.1l-0.7-1.7l0-0.1l3.4-0.3L166.4,169.6z M164,180.1L164,180.1l0.2,0.4l1,1.9
	l-2.6-0.6L164,180.1z M162,177.1l2.5-4.3l-1.4,3.7L162,177.1z M163.3,171.8l0.4-0.1l1.2,0.1l-0.1,0.1l-3.8,3.4l1.9-3.1l0-0.1
	L163.3,171.8z M160.8,175.7L160.8,175.7L160.8,175.7L160.8,175.7z M164.6,172.2l-2.8,4.9l-0.1-0.1l0,0.1l-1.6-0.5l0.2-0.4
	L164.6,172.2z M164,179.5L164,179.5L164,179.5L164,179.5z M163.8,179.2l-1.8-2l1.1-0.6l-0.1,0.2l0.2-0.2l0.5,1.4L163.8,179.2z
	 M160.1,176.8l1.6,0.5l-1.6,1.1V176.8z M162.3,182v0.1V182l0.4,0.1l0-0.1l2.6,0.6l0,0l0,0.1l-0.4,0.4l0.3,0.1l-0.1,0.4l-6.9-0.1
	l-0.3-0.7l4.4-0.6L162.3,182L162.3,182z M163.4,176.1l1.7-4.3l1.6-0.1l0.5,0l-2.1,2.4L163.4,176.1z M166.8,165.9l-0.8,0.1l0,0l0-1.5
	l-0.1-0.2v-0.1l-0.4-1.6l0.2-0.2l-0.2,0v-0.8l0.1,0l0,0.1l0,0l1.3,1.7L166.8,165.9z M165.5,161.4l0-0.1L165.5,161.4L165.5,161.4z
	 M165.8,166.1l-0.2,1l0,0l0.7,2.2l-3.4,0.3l1.3-3l0.2,0l-0.2-0.6l0,0l-0.5-1.5L165.8,166.1z M161.8,177.4c0.1,1.1,0.4,3.2,0.5,4.1
	l-2.2-2.9L161.8,177.4z M165.9,180.2l-1.4-1l-0.3-1.4l1.9-1.2l0.3,0.3L165.9,180.2z M170,171.8l0.3,1.4l-1.7,0.6L170,171.8z
	 M170.2,171.8l1.4,0.9l-0.2,0.2l-0.9,0.2L170.2,171.8z M171.6,172.6L171.6,172.6l-1.4-0.9l1.6-0.9L171.6,172.6z M171.2,173.1
	l-0.8,0.9l0.1-0.7L171.2,173.1z M170.1,171.5L170.1,171.5L170.1,171.5l-0.5-1.5l2.1,0.6L170.1,171.5z M170,171.6l-2,0l0.3-1l1.1-0.6
	l0,0L170,171.6z M167.8,159.2l-2.2,2l-0.4-1.4l2.5-2.4L167.8,159.2z M165.2,159.7l-1.2-0.9l0.8-2.1l0.2,0l0.9,0.4l0.2-0.4l0.8,1.5
	L165.2,159.7z M163.8,156.1l-0.2-1.2l0.1-1.4l0.1,0l0.4,0.1l0.5,2.5L163.8,156.1z M164.2,153.5l-0.4-0.1l-0.2,0l0.1-1.9l0.4-0.3
	l0.5,0.8L164.2,153.5z M159.4,167.4l4.7-4.4l-0.1-0.1l1.1-0.3l-1.5,1.4l0,0l-0.1,0.1l-0.1,0.1l0,0l-3.9,3.8l-0.6,0.1L159.4,167.4
	L159.4,167.4z M163.6,164.4l0.5,1.6l-1.8,0.5l-0.2,0.2l-0.2-0.6L163.6,164.4z M162,167.8l-0.5,1.9l-1.6,0L162,167.8L162,167.8z
	 M150,170.7l-0.9,0.6l0-0.1l0,0.1l-0.7-0.1l-0.1-0.5l0,0l0.2,0.1l1.5-0.8l0-0.1l0.9,0.2L150,170.7z M148.3,171.3l-0.5,1l-1.6-0.4
	l-2.1,2.2l0-0.1l-0.1,0.2l0,0l0,0l-1.2,2.8l0.3,1.6l-1.5,2.5l-2.5,1.5l-0.2-0.1l0.4-0.7l1.8-1.6l0.1,0l1.4-5.9l0.3-0.9l2.6-2
	l0.2,0.1l0-0.1l0.8,0.1l0.6-1.4l0.8,0.3l0,0L148.3,171.3z M144.1,170.9l0.2-0.2l0.1-0.1l0.6,1l0.4,0l-2.3,1.7L144.1,170.9z
	 M144.6,169.5l-1.1,1.1l-1.4,3.7l-1.3,5.4l-18.2-1.2l-1.4-1.5l-0.5-3.1l-4.3-2.4l1.3-3.6l0.5-5.9l0.2-7l-1.5-0.8l-0.1,0.2l0,0l0,0.1
	l-1.7,2.8l-0.2,6.2l-0.5,0.5l-0.6-1.9l-1.1-5.6l-1.6-1l-1.7,2.1l-0.6,4.4l0.7,2.8l-3,2.5v2.2l1.2,1.4l-0.6,0.2l-2.2-1.9l-10.4-44.6
	l0.5-2.3l49.9,45.6l-0.1,0.1l0.1,0.1L144.6,169.5z M95,121.5l-0.3-0.8l51.2,46.4l0.5,1.4l-0.7-0.6l0-0.1L95,121.5z M147.9,168.8
	l-0.3,0.1l-0.3-0.1L147.9,168.8z M91.4,115.8l-0.3-0.4l1.3,5.8l-1.2,0.8l-2.7,1.7l-0.2-6.4l2,5.1l0.1-0.1l-2.1-5.4l0,0l0-0.1
	l-0.2-0.4l0,0.1l-2.6-4.9l0-0.1l5.8,4L91.4,115.8z M85.3,111.5L85.3,111.5l0.1,0.1L85.3,111.5z M81.5,113.8l-9.1-18.2H77l5.3,1.6
	l0.5,0.8L81.5,113.8z M72.3,95l0.4-1.7l5.4,0.2L73.3,95L72.3,95z M79.4,92.4l3,1.7l1.4,1.8l-2.9-1.4l-2.2-1.1L79.4,92.4z M79.3,92.4
	l-0.7,1l-6.1-0.2l-3.1-0.9l0.1,0l0.7,0L79.3,92.4z M77.1,91.7l-1.8-2l1.4-0.9l2.2,2.9L77.1,91.7z M60.6,84.8L60.6,84.8L60.6,84.8
	l1.2-3.8l0.1,0l0.1-0.2l12.7,8.6L60.6,84.8z M62.1,80.2l1-5.9l0.2,3.3l0.1,0.1L62,80.5L62.1,80.2z M63,72.8l-5.8,3l0.3-10.1l4.6-1.7
	l1,8L63,72.6L63,72.8z M59.5,56.3l-11-9.3l4.2-0.1l9.1,9.3L59.5,56.3z M32.5,16.7L30.2,6.1V5.2l0.1-0.1L36,5.2L32.5,16.7z M32.4,17
	l-2.2,3.9V6.8L32.4,17z M44.1,29.8l0.3,15.5l-3.5-0.9l-8.2-27.1L44.1,29.8z M40.6,44.8l-5.4,8.7l-0.1,0l0,0.1l-9.8,1.2L40.6,44.8z
	 M24.2,74.7L22,74.5l0-1.2L24.9,56L24.2,74.7z M22,74.6l2,0.2l-1.9,2.3L22,74.6z M22.2,77.5l0-0.2l2-2.3l0,0.1l0.1-0.2l10.5,10.2
	l-12.1-6.9L22.2,77.5z M44.1,85.6l-7.2,2.7l-1.5-2.7H44.1z M50.6,93.5L50.6,93.5l6.5-2.6l3.7,2.1l-6.9,1.1l-0.2,0.1l-0.5,0.1l-6,1.5
	l-2.5-5.5L50.6,93.5z M46.9,95.9l-6.3,1.6l3.8-7.1L46.9,95.9z M34.9,100.1l0,0.1l1.8-0.7l0.5-0.1l-0.4,1.4l-2.2,0.6l-0.1-1.2
	L34.9,100.1z M37,103.4l6.3,19.5l-2.2,9.1l-1.6-5l-3.2-13.5l-0.2,0.1L37,103.4L37,103.4z M48.3,135.3l-6.1-0.1l-0.9-2.8L48.3,135.3z
	 M51,139.5l0.1,0l11.6,3.5l0.2,0.1l6.5,13.9l-0.1,0l0,0l-5.8,5.2L51,139.5z M72.5,179.3L72.5,179.3l0.1,0.1l4.8,14.3l-11.6-19.9
	l1.2-0.1l1.4-1.9l-0.1-0.4L72.5,179.3z M66.7,173.2l-2.4,0.1l-3.6,1.4l-2.8,1.7l-2.1-1.2l8.3-2.8l2-2l1.5,0.5l0.2,0.9L66.7,173.2z
	 M55.4,174.3l0.1,0.9l-2.3-0.5l0.1-2.4l2,0.9L55.4,174.3z M53,174.6L53,174.6L53,174.6L53,174.6l-1.1-0.2l0.3-2.1l-0.1-0.1h1
	L53,174.6z M51.2,179.7l0.2,0.1L51.2,179.7L51.2,179.7z M46.6,184.7h1.7l-1.2,2.3l-0.3,0.6l-1-1.6L46.6,184.7z M46.8,187.9l0.3,1.5
	l-1.8-0.9l1.4-0.5l0,0L46.8,187.9z M47.1,189.5l-0.1,0.9l-1.1-0.3l-0.5-0.8l0,0l0,0l-0.1-0.2l0-0.4L47.1,189.5z M6.2,196.2L4,202.8
	l-0.2,0.5l-3-3.5l2-1.4L6.2,196.2z M19.6,217.5l-0.2,0l0.5,0.1l-5.6,13l0-0.3l-0.1,0.4L9,214.9L19.6,217.5z M20.6,245l-0.5-27
	l6.9,19.2l-6.2,8.1L20.6,245z M36.4,219.5l0.4,36.5l-9.6-19.2l-0.2,0.2L36.4,219.5z M36.9,257.5L36.9,257.5l1.9,7.6l-13.2,1.5l0-0.1
	l11.2-9.4L36.9,257.5z M29.8,273.1l-3.9-6l13,5L29.8,273.1z M25.8,266.9l-0.1-0.1l13.1-1.5l0.6,6.7l-0.2,0.1L25.8,266.9z M68.2,263
	l0.1,0.1l-3.7,1L68.2,263z M68.4,263.1L68.4,263.1L68.4,263.1L68.4,263.1z M76.6,263.8L76.6,263.8L76.6,263.8L77,264l-0.1-0.2
	l8.7,1.8l-1.6,3.3l-0.2,0.5l-0.2-0.2l0.1,0.2l-15-6.4L76.6,263.8z M83.7,269.7l4.5,13l-6.8-11.5l-0.5-0.5L83.7,269.7z M106,282.9
	l-8.6,1.1l11.4-14.7l1.5,0.4L106,282.9L106,282.9z M97,284.1l-13.1-14.5l13.6-1.7l0,0.2l0.1-0.2l0,0l0,0l6-0.1l5,1.3L97,284.1z
	 M119.4,227.7L119.4,227.7l2.2,1.2l2.2-4.4l-2.2,21.7l-0.1,0.1l0,0l0,0l-0.2,0.3l0.2-0.1l0,0.4l-1.9,19.4L119.4,227.7z M121.8,246.4
	l6.2-3.7l7.2-4.3l0,0l-9.8,44.6l-3.7-36.1L121.8,246.4z M176.3,236.8l-2-0.4l-2.9-11.2l1.5-2.9l3.4,14.4L176.3,236.8L176.3,236.8z
	 M173.1,222.1L173.1,222.1L173.1,222.1l-0.7-8.8l-0.6-7.1l7.7,27.8l0,0.1l-0.3,0.6l-0.4,0.4l-2.4,1.5L173.1,222.1z M190.9,209
	l-7.1-7l3.9-3.3l3.7,10.8L190.9,209z M189.7,198.6l7.8-0.4l6,24.1l-9-17.7l-0.1-0.1l0,0l-6.4-5.8L189.7,198.6z M194.4,204.7l3,5.8
	l6.1,12h-2.8l-5.6-8.4l-0.1,0.1l-3.1-4.9L194.4,204.7z M210.9,226.6l-13.3-28.5l10.2-0.5l2.4,9.4L210.9,226.6z M186.4,190.4l7.2,1.9
	l5.5-0.4l-1.9,1.7l-13.3-2.3l0.9-4.5L186.4,190.4z M184.2,186.1l-9.2-0.3l5.6-1.5l0.6,0L184.2,186.1z M180.2,184.3l-5.7,1.5
	l-6.8-2.4L180.2,184.3z M167.5,183.1l-1.4-0.3l0.8-0.8l2.9-1.2l-0.1,0l1.6-0.9l0.7,0.3L167.5,183.1z M168.3,178.6L168.3,178.6
	l-2,1.8l-0.2,0l0.5-3.3l0-0.1L168.3,178.6z M166.5,176.8l-0.2-0.2l1.1-0.7L166.5,176.8z M168.3,174.9l-0.3,0.3l-0.1-0.2l0.5-1
	l1.9-0.7l-0.1,0.9l0,0L168.3,174.9z M166.7,155.9l0.2-4.7h0.8l0.1,6l-0.8,0.8l-0.8-1.6l-0.1,0l-0.9-0.4l-0.3,0l-0.5-2.5l0.4-1.4
	L166.7,155.9z M158,167.1l1.2,0.3l-0.3,1l0.9-0.2l2.1-2l0.2,0.7l-2.5,2.4l-1-0.1l-1-1l0.2-0.9L158,167.1z M156.6,167.7L156.6,167.7
	l0.5-0.2l-0.2,0.8l1.3,1.4l0.5,0.1l-7.8,0.1l0,0.1l-1-0.2l0.2-1.2l-0.6-0.1l-0.2,1.1l-1,0.5l-1.4-0.5l-0.6,1.5l-1-0.1l-0.5-0.8
	l0.3-0.3l0.3-1.3l0.7,0.7l1.6,0.4l1-0.5l-0.3-0.5l-0.1,0l-0.4-0.9l0.8-0.6l0.6,0.3l0.4,0.6l0,0l0,0l0,0l0,0L156.6,167.7z
	 M151.7,154.6l1-0.5l-0.3,1.8l-1,2.3l-0.4-1L151.7,154.6z M148.2,154.1l0.2,2.6L148,157l-0.6-3.7l0.4-0.4L148.2,154.1z M145,164.1
	l2.9,3l-0.2,0.1l-55.6-50.9l-0.1-0.5l-0.7-1.6L145,164.1z M86,102.8l5.2,12.5l-6-4.2l-2-12.6L86,102.8z M85.2,98.8l0.5,2.4l-3-4.6
	L77.1,95l-3.2,0l4.7-1.4l2.3,1.1l3.2,1.6L85.2,98.8z M76.5,88.6l0.1,0.1l-1.4,0.9L62,80.7l1.5-2.9L76.5,88.6z M63.3,71.6l-1-7.6
	l2.9-0.2L63.3,71.6z M65.6,62.3l-0.3,1.1l-5.7-6.9l2.3-0.2l0.1,0.1L65.6,62.3z M52.4,31.5l-2.7-1.7L49.1,22l3.3,9.3L52.4,31.5z
	 M42.3,9.4l6,10.4l0.1,0.2L36.2,5.2l0,0l0,0l-1-4.4l0,0L42.3,9.4z M35.1,0.8L36,4.9l-4-4.1l0.1-0.2L35.1,0.8z M32,0.9l4,4.1L30.3,5
	L32,0.9z M30.2,21.5v-0.3l2.3-4l8.2,27.1l-1.9-1.7l0.2-0.1L30.2,21.5z M36.9,43.5l-5.8,3.8L28,50l-5.6-19.8l5.6,1.5l3.6,15.1l0.1,0
	l-3.6-15l4.2,1.9l3.3,10.3l0.1,0l-3.4-10.4l-4.4-2l0,0l0,0L26,23.6L35.7,38L36.9,43.5z M22.4,30l3.4-6.7l2.2,8.2l-0.8-0.2L22.4,30z
	 M23.5,19.8l1.9,2.9L17.8,17l0-0.1L23.5,19.8z M17.8,17.1l7.8,6l0,0.1l-3.4,6.8l-4.6-8.6l-0.2-1.6L17.8,17.1z M17.7,21.7l4.5,8.3
	l-3.1,0.8L19,30.5L17.7,21.7z M22.3,30.2l5.6,20l-1.5,1.3l-7.3-20.5L22.3,30.2z M26.1,52.5l5.3-4.7l3.6-2.4l-10,9.3l-1.8-0.3
	L26.1,52.5L26.1,52.5z M23.1,54.5l1.8,0.3l-3.5,4.5l0-0.2L23.1,54.5z M21.4,59.6l3.5-4.5l-3,17.5L21.4,59.6z M30.4,87.4L23,78.5
	l12.1,7l-4.5,2L30.4,87.4z M30.8,87.5l4.3-1.9l0,0l0.1,0l2.4,4.5l-1.5-1.4L30.8,87.5z M38.9,91.2L38.9,91.2l5.3-0.9l-3.8,7.2
	L38.6,98l-2.7,1L38.9,91.2z M34.3,100.3l0.1,1.2l-1.9,1.4l0.1-1.9L34.3,100.3z M32.5,103.1l1.9-1.5l0.5,1.9l-0.7,0.3l-0.1,1.8
	l-1.6-2.1L32.5,103.1z M35.2,121.1l-0.5-7.9l-0.2-6.7l0.1-2.2l2-0.8l-0.9,10.2l0.1,0l-0.3,0.1l3.2,13.5l2.6,8l-0.3,0l-2.1-1l-3-6.2
	L35.2,121.1z M39.4,137.2l2.8,1.3l0.7,1.1l-0.2,0l-2.7-1.3L39.4,137.2z M43.2,140.2l0.6,0l-0.1,0l3.6,6.8l-0.8-0.5L43.2,140.2z
	 M48.4,147.8L48.4,147.8L48.4,147.8L48.4,147.8L48.4,147.8l-4-7.7l1.1-0.1l0,0l11.3,18.6l-1.4,2.7L48.4,147.8z M55.5,161.5l1.4-2.6
	l0.1,0l7.1,11.7l0.1-0.1l-7-11.4l6,3.5l0,0l0.2-0.2l4.2,7.7l-1.9-0.6l-1.3,0.8l-2.7,1.2l-3.7,0.9l-2.1,0.1l-0.1-0.9l3.4-2.1l1.2,2.2
	l0.5-0.3l-2.6-4.7L55.5,161.5z M57.9,167.6l0.9,1.6l-3.2,1.9l1.4-2.8L57.9,167.6z M55.6,166.2l0.8,1.8l-1.4-0.4l-2.7-0.8l0,0l-0.5-2
	l1.8,0.2L55.6,166.2z M51.2,164.6l0.6,2.4l0.1,0l-1,1.5l-0.4-3l-1.5-3.6l0.2,0L51.2,164.6z M46,162.7l-1.2-2.1l0.8-0.5l1.9,1.8
	l1.3,4.8l0.3-0.1l0.5,1.9l-1.3,0.1l-0.9-2.1L46,162.7z M48.3,168.8l1.3-0.1l-0.6,1.7L48.3,168.8z M51.5,171.8l2.1-1.6l1.3,1.2
	l0.1-0.1l0,0.1l-0.1,0l0.1,0.1l0.2,1.2l-1.9-0.8l0,0h-0.1l-0.1,0l0,0H52l0,0.1L51.5,171.8z M45.7,186.1l1,1.6l-1.5,0.6l-0.1-1.2
	L45.7,186.1z M6,196.1L6,196.1L6,196.1l-0.3,0.2L6,196.1z M8,226.3l0.5-4.1l0.1,0.2l0.4-7.3l5.2,15.9l0,0l0,0l-0.1,0.3l-0.1,0l0,0.1
	l-4.7,18.3L8,226.3z M14.4,240.5l1.3-5.4l4.9,11.4l6.6-8.5l9.5,19l-11.2,9.4l-9.4-14.7L14.4,240.5z M28.8,272.8l0.5,0.8l0,0.1l0,0
	L28.8,272.8z M76.4,266.5l7.2,3l-2.8,1l-3.8-3.8L76.4,266.5z M106.3,282.6l4.2-12.9l4.7,1.1l1.4,2L106.3,282.6z M122.5,279
	L122.5,279l-2.8-11.3l0,0l0-0.1l2-20l3.7,35.7l-1.8-1.7L122.5,279z M177.4,236.4l-1,0.4l1.8-1.2L177.4,236.4z M181.3,230.8l-0.4,0.8
	l4.5-13.3l2.2,5.5L181.3,230.8z M189.5,228l-1.6-4.4l-0.2,0.2l-2.2-5.6l1.2-3.6l5.2,13.2l0,0.2H189.5z M191.9,218.2l-0.2-8.2
	l0.1,0.1l-0.1-0.3l0,0l0,0l-3.7-10.9l6.3,5.7l-2.6,4.7l0,0l3.2,5L191.9,218.2z"/>
</svg>
