<svg xmlns="http://www.w3.org/2000/svg" width="151.306" height="177.755" viewBox="0 0 151.306 177.755">
  <g id="Layer_1" transform="translate(-32.896 -24.359)">
    <g id="Group_107" data-name="Group 107">
      <g id="Group_100" data-name="Group 100">
        <g id="Group_99" data-name="Group 99">
          <g id="Group_96" data-name="Group 96" opacity="0.2">
            <g id="Group_95" data-name="Group 95">
              <path id="Path_78" data-name="Path 78" d="M101.55,93.1l15.056-24.709,27.528-3.737L142.024,93.8l-21.533,3.844ZM35.376,79.738l20.051,1.791.064.258.054-.069,12.211,25.471Zm23.364-34.9-4.186-3.541,12.222-6.5Zm86,19.915,37.254,11.138L163.36,101.225Zm-.242.4,18.515,36.265-19.966-7.681-.209-.077-.408.071Zm-27.762,2.788,4.694-26.977.14.018.944.941,10.653.464,1.1.133,8.14,18.063,1.658,3.684-27.186,3.689.036-.059ZM65.783,84.049l19.329,8.12C80.714,97.4,73,106.47,70.3,109.35l-.852-.722ZM34.488,78.983V51.965l.133-.069,14.035,2.551,6.655,26.624-.087-.02.028.061-20.4-1.821Zm14.341-24.99-.393-.423.112.454L35.186,51.593l18.989-10.1,4.291,3.63Zm56.589-27.622L70.89,44.4l-.673-11.441,1.156-.615L103.3,26.67ZM85.533,92.345l.041.015.013-.056,13.347,1.37-27.8,15.364c3.472-3.8,11.635-13.467,13.89-16.145l-.263,1ZM93.446,60.8,90.9,70.5,85.3,91.817,65.931,83.682C68.821,81.426,89.87,63.8,93.446,60.8M55.931,81.22,63.956,70.9l.084.089.066-.242,28.719-9.956L65.485,83.513,58.37,81.8Zm38.2-21.454.018-.077-.176.148-.048-.855-.247.941L79.5,50.391l-8.2-5.518L120.56,41Zm-.46,1.74.714,12.12-.046.013.041.122-8.26,16.523,5.01-19.1Zm-29.989,9.1-8,10.291L49.2,54.978ZM69.046,52.82l.066-.291.036-.128,0,0,1.7-7.352,22.515,15.14L64.235,70.281l4.8-17.469Zm31.4,40.014-.9.5L91.408,92.5l-5.663-.582L94.554,74.3l5.931,18.54ZM106.5,26.257l14.319,14.319-49.15,3.87ZM58.783,45.376l5.842,4.24,3.867,2.8-4.65,17.773L49.1,54.284l8.081-7.436ZM108.39,70.062,94.778,73.526l-.707-12L94,60.383l.235-.082-.092-.061,26.836-19.058-4.671,26.862Zm26.323-27.515,42.014,1.944-32.29,19.645-.952-2.112Zm47.53,33L144.836,64.363,177.18,44.682l5.337,30.492ZM59.054,45.08l8.61-10.763,2.168-1.15.668,11.37-.375.031.357.24-1.882,7.2-3.872-2.811ZM68.5,107.819,55.944,81.633l9.413,2.26,3.635,24.344Zm47.563-39.3L101.142,93l-.2-.048L94.846,73.919l13.6-3.462Zm62.4-25.76-55.262-2.4-16-16L70.97,30.8l-.092.048-.778.11-.018-.3L69.806,31l-.1.013.008.107-.482.6L32.9,51.009V79.72L69.441,110.7l.467.972-.1-.661.408.347,30.461-16.836,19.765,4.745L142.68,95.3l21.058,8.1L184.2,75.567Z" fill="#a7ff2d"/>
            </g>
          </g>
          <g id="Group_98" data-name="Group 98" opacity="0.2">
            <g id="Group_97" data-name="Group 97">
              <path id="Path_79" data-name="Path 79" d="M89.162,191.712l-4.418-1.656,5.2-8.084,3.931,5.617Zm-8.293,3.069v4.385l-5.135,1.709-1.673-4.462,6.209-4.347,2.658-.885ZM74.588,187.4l4.008-1-.079.212.454-.2.551,4.969L74.03,195.23Zm-.14-9.237,2.349-5.176,4.025,7.474-1.8,4.814-4.765,1.191L69.6,182.4Zm5.811,6.607,1.436-3.824,6.217.477Zm3.518,4.921-.115.2-3.191,1.066-.477-4.275L79.92,186l8.7-3.809L83.8,189.7Zm6.74-8.62.7-1.1-1.385.607-8.166-.628-4.959-9.209-3,6.747L68.1,182.4l5.508,4.819-.622,8.737-.12.084,2.275,6.071,6.712-2.24v-4.832l2.36-4.13,5.15,1.931,5.821-5.094Z" fill="#a7ff2d"/>
            </g>
          </g>
        </g>
      </g>
      <g id="Group_102" data-name="Group 102" opacity="0.17">
        <g id="Group_101" data-name="Group 101">
          <path id="Path_80" data-name="Path 80" d="M161.484,159.335l-9-2,9.186-5.1,5.648,7.1ZM143.316,163l7.722-4.824,1.93,7.72Zm12.018,1.435-1.531,1.315-1.921-7.681,8.64,1.919Zm3.333-15.953,2.168,3.252-9.1,5.057v-8.95ZM168.21,159.1l-8.363-10.52,16.476,1.394-2.661,2.994Zm6.653-6.215,3.21-3.611-.772-.063-25.838-2.246-.578-.055V156.98l-.153-.033.089.364-9.535,5.958,11.92,3.577.107.43,2.161-1.854,6.119-5.243h6.394l.185.233.207-.233Z" fill="#a7ff2d"/>
        </g>
      </g>
      <g id="Group_104" data-name="Group 104" opacity="0.17">
        <g id="Group_103" data-name="Group 103">
          <path id="Path_81" data-name="Path 81" d="M124.207,128.981l2.914-2.914-1.841,4.458-1.838,2.277ZM130.335,134l3.74-1.11-3.234,4.852Zm-1.888-8.93,5.882,6.863-4.386,1.3-3.777-2.643ZM125.9,135.748l-2.569-1.468,2.4-2.964,3.747,2.621.565,4.176Zm5.112,3.258,4.591-6.887-7.26-8.47-4.913,4.918-1.13,5.65-.246.3,3.321,1.9,5.33,3.047.4.229Z" fill="#a7ff2d"/>
        </g>
      </g>
      <g id="Group_106" data-name="Group 106" opacity="0.17">
        <g id="Group_105" data-name="Group 105">
          <path id="Path_82" data-name="Path 82" d="M116.675,165.011l1.282-7.7L121.209,154v5.57Zm.835-8.388-6.651-5.184,9.918,1.8Zm-4.588,1.6-2.641-6.161,6.377,4.972Zm2.9,6.764L113.255,159l3.762-1.2Zm-7.271-14.823,7.334,17.115,6.169-7.4v-7.258Z" fill="#a7ff2d"/>
        </g>
      </g>
    </g>
  </g>
</svg>
