<svg id="Group_86" data-name="Group 86" xmlns="http://www.w3.org/2000/svg" width="83.44" height="107.546" viewBox="0 0 83.44 107.546">
  <g id="Group_85" data-name="Group 85">
    <g id="Group_80" data-name="Group 80" transform="translate(2.095)" opacity="0.4">
      <g id="Group_79" data-name="Group 79">
        <path id="Path_72" data-name="Path 72" d="M359.492,47.512l1.059,7.527-15.442-1.128,4.925-9.89Zm10.728,9.372,6.2-3.375L382.8,59.46l-5.025,5.805-10.937-5.441-3.3-3.079Zm-5.6,14.572-4.5-4.9.362-.052-.633-.49,6.609-4.607,9.672,4.814Zm-12.965,7.313-9.133.66L350,67.975l8.2-1.154,5.355,5.829-2.174,9.709Zm4.877-13.316-6.52.912L345.9,57.2Zm4.256-8.766.369.008,3.966,3.7-5.683,3.963-.908.631L346.435,55.6l14.343,1.053Zm-17.389-2.9-2.092-.153,1.921,1.492,5.4,12.039-9.214,14.106,11.856-.95,11.268,4.162,2.578-11.5,12.846-5.848.211.107,6.839-7.9-8.338-7.779-6.84,3.721-7.662-.159-1.231-8.775-11.692-4.314Z" transform="translate(-339.409 -42.036)" fill="#abff4f"/>
      </g>
    </g>
    <g id="Group_82" data-name="Group 82" transform="translate(0 79.008)" opacity="0.4">
      <g id="Group_81" data-name="Group 81">
        <path id="Path_73" data-name="Path 73" d="M349.864,142.736l-7.448-2.2,9.037-.969,5.422.992Zm2.787-14.663-5.208-5.191,10.946.984ZM339.565,139.24l6.065-15.919,6.109,6.084-.975,8.637Zm19.976-5.4-.116,5.571-7.068-1.295.968-8.564,6.4-4.7Zm.789-11.4-15.537-1.4-7.479,19.648,12.562,3.706,10.374-3.218.727.133.149-7.21.245-11.566.016-.869Z" transform="translate(-337.314 -121.044)" fill="#abff4f"/>
      </g>
    </g>
    <g id="Group_84" data-name="Group 84" transform="translate(53.617 76.445)" opacity="0.4">
      <g id="Group_83" data-name="Group 83">
        <path id="Path_74" data-name="Path 74" d="M416.291,122.76l-13.909,4.811-8.4-2.4,9.219-5.016Zm-14.636,6.169-2.591,15.679-5.949-18.045Zm6.773,6.159-7.818,9.92,2.487-15.036Zm8.588-10.893-7.6,9.636-5.369-5.151Zm-17.989,25.387,21.727-27.555-17.806-3.546-12.017,6.538Z" transform="translate(-390.931 -118.481)" fill="#abff4f"/>
      </g>
    </g>
  </g>
</svg>
