<svg id="Group_94" data-name="Group 94" xmlns="http://www.w3.org/2000/svg" width="82.214" height="118.258" viewBox="0 0 82.214 118.258">
  <g id="Group_93" data-name="Group 93">
    <g id="Group_88" data-name="Group 88" transform="translate(1.44 74.622)" opacity="0.4">
      <g id="Group_87" data-name="Group 87">
        <path id="Path_75" data-name="Path 75" d="M623.4,190.962l2.667-7.118,13.026,8.371-9.053,6.334Zm-4.945-13.36H611.4l-2.758-8.276,7.188-2.7,7.007,10.006,1.426,4.282Zm11.887-10.122,1.612,6.457-.343-.128.322.733-8.007.888-6.2-8.851Zm14.884-.227,8.338,3.785-12.042,6.487-7.756-2.906-1.918-7.68,6.55-7.489Zm-10.648,9.365,6.163,2.315-.77,10.013Zm-7.928,5.667-.32-.183-1.716-5.144,6.886-.765,1.1-.121,6.137,14.023-12.1-7.779Zm13.888,10.857,1.765,1.134-.974-2.229,1.011-13.156,14.835-7.988-10.869-4.831-7.909-9.041-7.763,8.874-14.079-1-.135-.2-9.781,3.667,3.607,10.818h7.786l6.654,3.8-3.113,8.3,8.208,9.377Z" transform="translate(-606.642 -157.031)" fill="#abff4f"/>
      </g>
    </g>
    <g id="Group_90" data-name="Group 90" transform="translate(51.975 25.447)" opacity="0.4">
      <g id="Group_89" data-name="Group 89">
        <path id="Path_76" data-name="Path 76" d="M677.369,111.917l5.492,5.49-8.4-3.468-4.289-3.463Zm-9.457,11.548,2.094,7.049-9.145-6.1Zm16.832-3.555-12.935,11.084-2.459-8.264,4.984-7.121Zm-20.127-4.8,2.765-4.838,5.59,4.516-4.943,7.06-7.87,1.065Zm-6.14,9.635,12.979,8.654,15.96-13.684-9.264-9.259L667.5,108.32l-.575-.464-3.577,6.262-5.743,10.043-.429.756Z" transform="translate(-657.177 -107.856)" fill="#abff4f"/>
      </g>
    </g>
    <g id="Group_92" data-name="Group 92" opacity="0.4">
      <g id="Group_91" data-name="Group 91">
        <path id="Path_77" data-name="Path 77" d="M609.472,97.719l14.517,2.421,6.23,6.126H619.724Zm15.8,1.575,9.769-12.534-3.4,18.694Zm-3.006-8.647,11.609-4.977-9.37,12.019Zm-12.75,5.465L620.8,91.278l2.254,7.09Zm27.935-13.7L605.2,96.23l13.947,11.625h13.68Z" transform="translate(-605.202 -82.409)" fill="#abff4f"/>
      </g>
    </g>
  </g>
</svg>
