<svg id="Group_70" data-name="Group 70" xmlns="http://www.w3.org/2000/svg" width="118.26" height="82.215" viewBox="0 0 118.26 82.215">
  <g id="Group_69" data-name="Group 69">
    <g id="Group_64" data-name="Group 64" transform="translate(74.623 30.238)" opacity="0.4">
      <g id="Group_63" data-name="Group 63">
        <path id="Path_66" data-name="Path 66" d="M146.134,370.66l-7.118-2.667,8.371-13.026,6.334,9.053Zm-13.36,4.945v7.063l-8.276,2.758-2.7-7.188,10.006-7.007,4.282-1.426Zm-10.122-11.887,6.457-1.612-.128.343.733-.322.888,8.007-8.851,6.2Zm-.227-14.883,3.785-8.338,6.487,12.042-2.906,7.756-7.68,1.918-7.489-6.55Zm9.365,10.648,2.315-6.163,10.013.77Zm5.667,7.928-.183.32-5.144,1.716-.765-6.886-.121-1.1,14.023-6.137-7.779,12.1Zm10.857-13.889,1.134-1.765-2.229.974-13.156-1.011-7.988-14.835-4.831,10.869-9.041,7.909,8.874,7.763-1,14.079-.195.135,3.667,9.781,10.818-3.607v-7.786l3.8-6.654,8.3,3.113,9.377-8.208Z" transform="translate(-112.203 -336.885)" fill="#abff4f"/>
      </g>
    </g>
    <g id="Group_66" data-name="Group 66" transform="translate(25.448)" opacity="0.4">
      <g id="Group_65" data-name="Group 65">
        <path id="Path_67" data-name="Path 67" d="M67.089,316.7l5.49-5.492-3.468,8.4-3.463,4.289Zm11.548,9.456,7.049-2.094-6.1,9.145Zm-3.555-16.832,11.084,12.935L77.9,324.713l-7.121-4.984Zm-4.8,20.128-4.838-2.765,4.516-5.59,7.06,4.943,1.065,7.87Zm9.635,6.139,8.654-12.979-13.684-15.96-9.259,9.264-2.132,10.651-.464.575,6.262,3.577,10.043,5.743.756.429Z" transform="translate(-63.028 -306.647)" fill="#abff4f"/>
      </g>
    </g>
    <g id="Group_68" data-name="Group 68" transform="translate(0 49.961)" opacity="0.4">
      <g id="Group_67" data-name="Group 67">
        <path id="Path_68" data-name="Path 68" d="M52.891,384.592l2.421-14.517,6.126-6.23V374.34Zm1.575-15.8-12.534-9.769,18.694,3.4Zm-8.647,3.005-4.977-11.609,12.019,9.37Zm5.464,12.75-4.834-11.279,7.09-2.254Zm-13.7-27.935L51.4,388.862l11.625-13.947v-13.68Z" transform="translate(-37.58 -356.608)" fill="#abff4f"/>
      </g>
    </g>
  </g>
</svg>
