<?xml version="1.0" encoding="utf-8"?>
<!-- Generator: Adobe Illustrator 17.0.0, SVG Export Plug-In . SVG Version: 6.00 Build 0)  -->
<!DOCTYPE svg PUBLIC "-//W3C//DTD SVG 1.1//EN" "http://www.w3.org/Graphics/SVG/1.1/DTD/svg11.dtd">
<svg version="1.1" xmlns="http://www.w3.org/2000/svg" xmlns:xlink="http://www.w3.org/1999/xlink" x="0px" y="0px"
	 width="717.237px" height="712.569px" viewBox="0 0 717.237 712.569" enable-background="new 0 0 717.237 712.569"
	 xml:space="preserve">
<g id="Layer_2">
</g>
<g id="Layer_1">
	<g>
		<g>
			<g opacity="1">
				<g>
					<path fill="#ABFF4F" d="M689.261,519.92l-5.446,27.03l-2.471-88.118l7.916,21.45V519.92z M636.584,533.682l21.252,1.826
						l23.514,12.483l-26.999-7.542L636.584,533.682z M611.858,489.467l0.218-0.905l23.806,36.252l-0.27,7.88L611.858,489.467z
						 M616.835,533.937l-1.513-34.484l11.599,21.101L616.835,533.937z M550.032,570.355l-77.482,26.833l5.009-4.093l88.326-31.55
						l8.291-1.264L550.032,570.355z M519.543,617.332l-6.418,5.144l-39.211,20.836l56.505-64.291l17.788-6.158L519.543,617.332z
						 M491.899,639.494l-17.049,3.823l36.424-19.353L491.899,639.494z M406.48,632.821c6.678-2.304,12.722-4.374,17.543-6.007
						l9.882,14.683l-4.972,0.062l-5.134-2.694L406.48,632.821z M383.137,681.067l-0.083,0.073l-13.253,1.852l16.399-43.149
						c5.414-1.878,10.787-3.74,15.884-5.503L383.137,681.067z M373.234,689.696l-8.041-0.603l4.385-5.513l0.042-0.114l12.821-1.789
						L373.234,689.696z M343.916,629.393l5.908,3.625l0.078,3.402l0.094,0.364l6.205,12.706l1.087,0.447
						c1.004-0.354,2.023-0.707,3.058-1.071l-0.322,32.767h-4.676l-0.505-0.39L343.916,629.393z M319.725,608.927l-34.317-4.374
						l31.93-4.676h0.016l19.348,10.335L319.725,608.927z M311.278,618.19l-10.642-1.082l12.077-7.287l5.17,0.661L311.278,618.19z
						 M281.663,605.858l30.344,3.875l-11.952,7.214L281.663,605.858z M244.646,600.876l0.01-0.068l-32.705-6.642l64.765,3.506
						l4.712,6.371l-3.937-0.505l-0.005,0.052l-32.824-2.715H244.646z M86.636,560.629l24.924,18.932l-12.888-5.784L86.636,560.629z
						 M62.435,510.943l3.651-11.349l2.731,1.519l13.232,42.53h-0.156v11.619L62.435,510.943z M34.343,477.021l10.199,9.066
						l-5.118,26.079L34.343,477.021z M40.964,435.474l0.785,4.764l-5.856,24.887L40.964,435.474z M59.98,409.198l0.005,0.021
						l42.946-12.4l5.638,0.099l4.613,22.422l-13.247-0.364l-0.276,0.036l-41.724,12.446L59.98,409.198z M70.637,399.846l8.369-2.013
						l22.1-0.936l-40.678,11.729L70.637,399.846z M93.366,394.385l10.111,0.12l-0.728,1.878l-21.496,0.915L93.366,394.385z
						 M226.084,388.617l0.525-0.255l3.776-3.781l11.5-1.618l-0.9,2.304l-5.633,3.724l0.525,1.623l33.958-1.607l0.796-0.588
						l1.368-3.896l27.774,1.706l1.217,7.927v0.114h0.016v0.005l0.036-0.005l4.494-0.057l-124.094,3.474l40.366-8.582
						L226.084,388.617z M245.952,377.419l2.122-0.999l-4.639,7.453L245.952,377.419z M251.184,369.248l1.919,5.633l-4.062,0.754
						L251.184,369.248z M257.925,366.642l0.614,0.01l0.921,7.968l-5.841,0.255l1.155-5.706l0.307-0.094L257.925,366.642z
						 M272.961,376.451l-0.385,1.092l-12.426-2.788l4.884-4.879l5.903,3.563L272.961,376.451z M271.765,379.858l-2.611,7.406
						l-2.569,0.125L271.765,379.858z M259.423,387.727l-0.91-7.927l5.716,1.519l1.092,6.127L259.423,387.727z M258.107,380.165
						l0.869,7.583l-5.753,0.27L258.107,380.165z M251.075,380.669l1.238,7.391l-6.975,0.333L251.075,380.669z M242.113,386.651
						l1.503,1.826l-4.598,0.213L242.113,386.651z M257.847,379.744l-5.102,8.207l-1.274-7.615L257.847,379.744z M257.103,379.369
						l-5.856,0.546l-2.117-3.443L257.103,379.369z M264.463,380.857l-4.088-5.596l11.723,2.632L264.463,380.857z M265.768,387.426
						l-1.103-6.174l7.64-2.965l-6.278,9.128L265.768,387.426z M263.839,380.763l-5.326-1.425l1.295-4.098L263.839,380.763z
						 M259.735,366.683l4.91,2.959l-4.764,4.759l-0.895-7.739L259.735,366.683z M253.322,375.291l0.031,0.036l6.044-0.26
						l-1.321,4.182l-8.821-3.204L253.322,375.291z M254.3,369.274l-0.983,4.853l-1.763-5.17L254.3,369.274z M242.535,386.172
						l0.021-0.052l6.028-9.685l2.304,3.745l-6.122,8.239l-0.598,0.031l-1.742-2.117l0.057-0.094L242.535,386.172z M299.316,384.336
						l0.25,0.551l0.135,0.889l-27.545-1.685l0.088-0.265L299.316,384.336z M258.929,313.928l0.01,0.005l9.638-4.603l0.078-0.01
						l13.747,17.455l-5.118,4.665L258.929,313.928z M248.958,299.188l-2.897-10.865l11.895,7.412l0.666,17.897l-0.494-0.468
						L248.958,299.188z M261.545,235.068l-0.036,0.234l11.037,1.711l-19.588,25.465l-8.233-5.248l-0.016-0.473L261.545,235.068z
						 M261.982,234.273l1.748-20.373l11.276,5.768l-2.247,16.93l-11.073-1.716l0.109-0.146L261.982,234.273z M236.137,169.425
						l0.208,0.088l31.446-15.942l-7.172,56.745l-0.109-0.057L236.137,169.425z M239.019,185.715l-0.671-0.26l-1.004,0.042
						l3.334-5.009l10.35,17.341L239.019,185.715z M196.094,176.514l39.144,9.071l-17.283,0.744L196.094,176.514z M170.52,158.201
						l-0.328-0.338l1.555-35.737l21.231,52.989l-0.884-0.4L170.52,158.201z M143.588,122.594l17.377,25.699l-19.681-20.414
						L143.588,122.594z M167.763,110.267l1.175,3.552l-24.466,6.746l0.203-0.463L167.763,110.267z M217.918,77.292l1.337-0.177
						l15.588,16.821l-26.131-9.32L217.918,77.292z M297.714,45.83l17.538-2.148l-40.715,23.39L297.714,45.83z M326.211,54.339
						l12.342,18.979l-66.757-3.734l1.248-1.139l43.341-24.898l0.515-0.062L326.211,54.339z M382.336,109.695l-22.604,6.938
						l0.931-22.126l0.016,0.016L382.336,109.695z M397.924,138.306l-36.803-20.524l42.27,12.628L397.924,138.306z M406.043,168
						l-3.958-2.408l-1.196-12.181L406.043,168z M403.183,197.209l-0.406,0.01l-0.208-20.929l3.807,4.27l-0.047,2.793
						L403.183,197.209z M374.171,192.814l-0.01,0.057l24.206,4.442l-32.897,0.718L374.171,192.814z M353.673,203.029l-20.883,6.798
						l21.122-38.187l1.415,30.395L353.673,203.029z M334.98,234.481l-6.07-8.769l9.352-15.713l11.604-3.838L334.98,234.481z
						 M334.569,235.323l-6.839,29.761l1.191-38.296l0.151-0.062l5.674,8.197l-0.099,0.187L334.569,235.323z M291.79,298.08
						l-0.328,0.255l-0.322,0.401l-20.716,9.289l43.081-32.268l3.948,10.205l-0.385,0.723L291.79,298.08z M299.258,312.103
						l-12.67-4.905l3.199-3.968L299.258,312.103z M326.788,378.376l-0.104,13.804l-3.344,0.042l-37.266-84.389l0.218-0.27
						l13.835,5.352l1.025,0.962L326.788,378.376z M346.266,387.628l0.208,0.031l84.212,3.053l-102.759,2.876l0.525-0.531
						l0.078-10.48L346.266,387.628z M451.288,378.578l-0.926,11.219l-0.177-0.036l-2.044-10.792L451.288,378.578z M466.704,376.649
						l7.458-3.298l3.745,0.374l-7.141,2.772l0.869,3.766l-9.071-1.467l1.987-1.878L466.704,376.649z M490.853,366.179l-6.631,5.097
						l-3.766,1.462l0.583-10.527L490.853,366.179z M516.916,375.499l-15.198-9.102l10.309-3.994l3.043,2.949L516.916,375.499z
						 M531.386,382.724l-25.709,12.072l-0.369-0.052l12.644-17.866L531.386,382.724z M528.853,394.364l-8.904,2.45l-0.265-0.036
						l11.573-12.784l-1.254,9.107L528.853,394.364z M521.051,396.97l7.24-1.992l-2.439,2.668L521.051,396.97z M586.06,407.107
						l0.406,0.109l1.893,3.911l-77.721-13.84l15.895,2.247l0.333-0.364L586.06,407.107z M588.895,411.221l-1.862-3.854
						l37.656,10.225L588.895,411.221z M630.072,424.931l-33.241-7.157l-0.161,0.775l-4.775-1.129l-2.762-5.706l37.818,6.73
						L630.072,424.931z M678.609,451.415l-39.227-13.148l-0.198-0.094l0.104-0.047l0.114,0.016l33.745,0.879l1.025,0.364
						L678.609,451.415z M644.386,455.613l34.541-3.334l1.94,5.253l2.528,90.36L644.386,455.613z M658.096,535.138l-13.487-77.851
						l38.535,91.15L658.096,535.138z M614.921,476.511l18.365,16.035l2.517,31.342l-23.535-35.836l-0.088,0.057L614.921,476.511z
						 M599.942,532.179l-21.476-0.421l-9.711-12.082l-1.404,0.031l-32.289,44.267l22.583-94.874l-0.432-0.104l-22.552,94.755
						l-11.651-104.299l34.64,8.608l19.525,39.045l22.037,24.716l0.38-0.208l-17.923-58.471l31.503,3.074L599.942,532.179z
						 M565.651,560.874l-16.3-13.481l18.303-25.096L565.651,560.874z M568.127,521.719l8.889,11.063l-10.87,27.223L568.127,521.719z
						 M504.761,539.434l13.497,23.405l0.583,0.421l15.806,3.402l0.905-0.343l13.539-18.568l16.321,13.497l-87.514,31.254
						L504.761,539.434z M468.369,598.634l-0.224,0.114c-10.579,7.542-26.027,18.381-31.217,21.652l-25.304-69.898l17.632,10.402
						l0.213,0.421l0.374,0.38l3.183,1.664l-0.01,0.026l44.069,29.527l-5.742,4.681L468.369,598.634z M367.076,533.084l13.331,6.189
						l1.181-0.442l4.52-10.121l24.757,21.403l-30.609,89.637l-9.154-103.586l-0.442,0.036l9.19,103.971
						c-6.527,2.278-13.83,4.832-21.985,7.687L367.076,533.084z M350.594,592.304l6.652,55.293l-5.576-11.417L350.594,592.304z
						 M348.617,596.553l-9.284,13.913l-0.073-0.062l-1.462-0.109l-19.65-10.496L348.617,596.553z M317.306,599.43l-40.194-2.174
						l34.556-69.992l5.648,72.166H317.306z M204.665,592.684l-20.373-34.099l6.158-2.762l0.426-0.411l7.016-13.825l7.484,51.122
						l0.338,0.156l65.8-42.031l1.092,2.143h0.593l3.355,44.246l-67.584-3.662L204.665,592.684z M192.692,595.815l8.962-1.93
						l30.734,6.241L192.692,595.815z M173.344,588.096l0.062,0.047l2.502,0.51l15.302,7.438l0.135,0.01l0.005,0.005h0.005
						l45.749,4.978l2.517,0.51l-81.668,11.994L173.344,588.096z M116.246,568.223l36.897,42.228l-30.172-23.343L116.246,568.223z
						 M95.685,549.941l10.985-1.363l0.468-0.203l12.587-10.777l20.253-9.43l-24.435,38.842l-31.935-9.685l-1.113-1.212
						L95.685,549.941z M84.222,550.622l0.957,0.619l9.081-1.129l-11.926,5.586v-11.136L84.222,550.622z M66.003,497.518l-0.026,0.01
						L45.598,484.64l8.623-34.848l15.125,49.453l0.416,0.026l24.862-56.859l-8.858,106.967l-0.073,0.01l-15.286-49.146l-0.421-0.51
						L66.003,497.518z M55.699,433.7l-13.554,6.221l-0.832-5.071L55.699,433.7z M65.186,431.147l28.622,9.679l-50.93-0.749
						l14.106-6.481h0.016l0.016-0.016L65.186,431.147z M124.651,421.426l-16.93,8.233l0.276,0.562l-2.928,1.638l-38.182-1.222
						l33.142-9.887L124.651,421.426z M129.592,419.038l-1.607,0.707l-14.345-0.395l-4.494-21.819L129.592,419.038z M145.45,397.557
						l-15.151,21.169l-0.276,0.12l-20.836-21.918L145.45,397.557z M146.261,397.131l-43.034-0.749l0.723-1.872l50.087,0.593
						L146.261,397.131z M179.341,397.682l-7.828-2.803l45.671-5.243L179.341,397.682z M440.277,391.061l-191.054,52.266
						l-69.004-45.162l257.374-7.204L440.277,391.061z M477.663,457.256l-138.949-11.224l103.893-54.888l1.071,0.036L477.663,457.256
						z M455.797,390.952l-4.998-1.061l0.863-10.496L455.797,390.952z M461.971,379.031l-2.008,12.805l-3.662-0.775l-4.483-12.55
						l7.089-0.884L461.971,379.031z M462.117,378.61l-2.372-1.087l4.062-0.51L462.117,378.61z M467.781,388.939l-4.489,3.604
						l-2.897-0.614l1.935-12.327L467.781,388.939z M471.765,380.825l-3.714,7.693l-5.404-9.258l9.097,1.472L471.765,380.825z
						 M475.042,395.04l-0.27-0.057l-6.444-6.023l3.594-7.443L475.042,395.04z M466.845,393.298l-2.996-0.635l3.875-3.11
						L466.845,393.298z M468.202,389.449l5.732,5.357l-6.657-1.415L468.202,389.449z M474.776,376.841l8.083,19.863l-5.903-1.253
						l-4.119-17.856L474.776,376.841z M475.369,376.612l12.748,13.825l-2.158,6.923l-2.575-0.546l-8.197-20.134L475.369,376.612z
						 M489.699,371.058l11.879-4.608l-0.166,0.281l14.652,8.774L489.699,371.058z M503.612,396.486l84.982,15.13l2.746,5.669
						L503.612,396.486z M495.555,395.155l1.295,0.182l92.175,21.855l-94.38-17.33L495.555,395.155z M492.549,398.764l-6.158-1.311
						l2.023-6.486L492.549,398.764z M493.053,398.769l-4.119-7.765l5.009,3.136L493.053,398.769z M487.811,371.791l0.432,18.126
						l-12.426-13.476L487.811,371.791z M599.094,420.073l37.152,17.226l-53.333-6.637l8.904-12.504l4.749,0.869l-0.104,0.484
						L599.094,420.073z M643.751,455.129l-30.973-6.6l25.845-10.127l0.489,0.229L643.751,455.129z M644.225,455.181l-4.603-16.368
						l38.941,13.055L644.225,455.181z M644.011,456.414l13.445,77.627l-23.655-41.739L644.011,456.414z M581.577,472.688
						L581,450.947l31.68,10.704l0.016-0.057l0.993,14.215l-0.401-0.099l-0.016,0.068L581.577,472.688z M581.197,473.078
						l17.679,57.696l-21.32-23.894l-19.348-38.702L581.197,473.078z M554.651,446.084l25.767,4.572h0.062l-22.724,16.971
						l-34.328-8.53L554.651,446.084z M522.637,458.962l-42.176-1.571l72.405-11.042l-30.229,12.597V458.962z M513.796,520.565
						l8.93-59.668l11.521,103.087L513.796,520.565z M519.215,560.946l-5.201-38.879l20.092,42.665l-14.506-3.121L519.215,560.946z
						 M502.441,531.872l11.078-10.137l5.113,38.202L502.441,531.872z M419.821,538.654l-0.135-0.192l-19.296-21.195l7.079-5.373
						l45.983,60.182l-22.531-11.812L419.821,538.654z M421.933,546.659l6.938,13.507l-17.237-10.168L421.933,546.659z
						 M421.73,546.258l-9.986,3.235l6.819-9.409L421.73,546.258z M388.245,523.919l11.073-5.196l10.543,11.578l0.91,19.145
						l-24.477-21.158L388.245,523.919z M379.673,536.979l-6.371-11.432l32.767-13.143l-6.065,4.603l-0.848-0.166l-11.963,5.612
						l-0.432,0.442l-6.429,14.392L379.673,536.979z M340.197,611.741l9.159,2.294l0.234,9.685l-9.253-11.302L340.197,611.741z
						 M321.863,498.917l5.612,3.037l0.848-0.005l6.143-3.36l14.36,93.974l0.047,1.831l-36.788-67.88L321.863,498.917z
						 M277.882,545.853l17.148-33.022l16.347,13.658L277.882,545.853z M274.179,552.983l3.324-6.397l33.771-19.525l-34.322,69.519
						l-3.303-43.596H274.179z M250.035,504.758l-0.12-0.099l5.461-44.506l50.139,28.83l-0.12,0.042l-31.992,61.613L250.035,504.758z
						 M231.129,499.828l17.486,6.054l22.693,44.553l-65.347,41.75L231.129,499.828z M220.882,496.28l9.825,3.402l-25.049,91.915
						l-7.422-50.69L220.882,496.28z M178.254,559.344l39.622-61.056l-28.435,56.042L178.254,559.344z M164.112,564.421
						l-8.452-26.978l20.909,23.915l1.03,0.224l6.283-2.814l20.196,33.797l-0.499-0.099l0.078-0.12L164.112,564.421z
						 M185.353,588.762l-20.248-23.104l37.734,26.656L185.353,588.762z M187.283,590.962l13.294,2.699l-9.19,1.987L187.283,590.962z
						 M186.565,590.817l3.849,4.395l-12.764-6.205L186.565,590.817z M168.918,576.852l-4.421-11.208l20.139,22.974l-10.475-2.127
						L168.918,576.852z M171.763,585.792l-55.741-18.703l24.435-38.847L171.763,585.792z M128.624,529.984l0.265-0.39l4.676-14.028
						l6.553,12.046l-19.135,8.915L128.624,529.984z M105.36,445.091l-1.16,58.034l-17.621,44.501L105.36,445.091z M105.391,442.469
						L86.547,545.348l8.618-104.117L105.391,442.469z M94.64,441.273l-25.044,57.27l-15.115-49.411L94.64,441.273z M94.911,440.737
						l-28.591-9.679l38.228,1.227L94.911,440.737z M337.846,446.048l-0.192-0.042l-86.974-2.616l190.986-52.251l-103.825,54.857
						L337.846,446.048z M399.261,460.112l-59.023-13.513l134.164,10.839L399.261,460.112z M494.416,486.705l-15.921-28.944
						l43.742,1.628L494.416,486.705z M513.442,519.935l-18.802-32.83l27.8-27.296L513.442,519.935z M417.449,471.003l36.481,100.975
						l-46.181-60.443L417.449,471.003z M407.349,511.301l-26.869-8.816l36.486-31.358L407.349,511.301z M380.162,502.85
						l26.703,8.759l-33.573,13.466L380.162,502.85z M356.918,526.411l15.921-0.775l6.153,11.026L356.918,526.411z M355.197,525.61
						l24.425-22.495l-6.829,22.079l-16.737,0.817L355.197,525.61z M351.093,487.621l0.182-0.104l0.109-0.198l-0.645-16.789
						l29.022,31.847l-24.997,23.036l-0.166-0.078l-2.335-37.069L351.093,487.621z M308.901,489.893l18.636,4.296l0.218,5.898
						L308.901,489.893z M333.31,455.852l-27.4,32.85l-50.035-28.773L333.31,455.852z M255.215,459.519l-0.026,0.01l-13.221-8.608
						l87.645,4.681L255.215,459.519z M210.844,490.58l-16.873-31.561l47.107-8.301l-0.042,0.125l13.736,8.946L210.844,490.58z
						 M210.87,491.199l8.499,3.974l-40.096,61.795L210.87,491.199z M134.699,510.781l-0.031,0.005l-4.104-4.546l62.736-46.826
						L177.406,559.62L134.699,510.781z M147.458,528.07l7.479,8.545l7.807,24.924L147.458,528.07z M103.019,534.67l-16.524,14.371
						l17.653-44.589L103.019,534.67z M115.003,497.602l0.156,0.104l-11.64,35.472l1.118-29.875L115.003,497.602z M131.194,454.749
						l-15.583,41.786l-0.244,0.364l-10.387,5.706L131.194,454.749z M132.021,452.32l-27.363,49.947l1.196-59.735L132.021,452.32z
						 M105.401,442.027l-9.924-1.196l9.445-8.28L105.401,442.027z M132.66,452.029l-0.25-0.026l-0.078-0.031l-26.594-19.614
						l141.424,11.266L132.66,452.029z M242.805,450.042l6.507-6.252l83.328,2.502L242.805,450.042z M193.732,459.514l16.784,31.399
						l-32.492,67.625L193.732,459.514z M147.328,465.859l-14.355-13.357l58.971,6.392L147.328,465.859z M147.354,466.301l45.489-7.1
						l-62.164,46.399L147.354,466.301z M135.105,452.294l111.31-8.171l-52.797,14.506L135.105,452.294z M105.849,442.085
						l-0.479-9.456l25.449,18.776l-24.898-9.31L105.849,442.085z M130.122,505.778l-13.934-9.513l16.269-43.638l14.496,13.492
						L130.122,505.778z M242.124,450.079l-43.872,7.739l50.17-13.788L242.124,450.079z M333.664,455.379l-91.259-4.873l95.046-3.968
						L333.664,455.379z M337.872,446.677L349.751,469l-15.676-13.455L337.872,446.677z M350.615,469.687l-12.275-23.072
						l59.881,13.715L350.615,469.687z M416.617,470.056l-28.331,1.69l11.068-11.089L416.617,470.056z M438.982,474.056
						l15.172,97.235l-36.413-100.793L438.982,474.056z M417.481,470.015l-15.926-8.665l34.952,11.848L417.481,470.015z
						 M387.896,472.215l29.152-1.742l-36.637,31.493L387.896,472.215z M387.439,472.21l-7.479,29.73l-28.934-31.753L387.439,472.21z
						 M387.631,471.773l-35.357-1.961l46.431-9.128L387.631,471.773z M350.235,470.004l-22.157,23.338l5.883-37.308L350.235,470.004
						z M306.608,488.65l-0.099,0.031l26.952-32.32l-5.893,37.381l-20.134-4.645L306.608,488.65z M328.198,499.999l-0.224-5.903
						l20.441-21.533l-19.754,27.181L328.198,499.999z M343.552,491.599l-13.981,7.646l20.732-28.528l0.635,16.488L343.552,491.599z
						 M439.211,473.645l-38.754-13.133l76.457-2.72L439.211,473.645z M493.927,486.736l-54.097-12.873l38.187-16.056
						L493.927,486.736z M127.288,528.798l-0.697,0.593l-23.02,5.05l11.968-36.476l13.403,9.123l4.078,4.52l-0.317,0.957
						l-0.593,0.322l0.296,0.551L127.288,528.798z M134.335,513.267l0.047-0.156l12.061,13.793l16.176,35.42l-7.51-10.87
						L134.335,513.267z M167.186,573.663l-10.085-18.542l6.501,9.414l-0.01,0.01L167.186,573.663z M249.515,504.316l-28.783-9.965
						l-1.082,0.442l-0.01,0.021l-8.431-3.943l43.716-30.645L249.515,504.316z M298.437,506.272l1.893-3.646l10.87,23.14
						l-15.889-13.279L298.437,506.272z M311.804,525.995l-11.219-23.863l5.971-11.495l14.917,8.067L311.804,525.995z
						 M348.742,589.069l-13.861-90.708l15.484-8.473l-3.115,38.317v0.094L348.742,589.069z M500.741,531.024l-0.031-0.005
						l-45.911,41.536l-15.343-98.328l54.758,13.034l18.734,32.705l-0.057-0.062L500.741,531.024z M554.557,445.642l-74.324,11.339
						l110.353-38.473L554.557,445.642z M582.393,430.626l-25.241,13.617l33.537-25.262L582.393,430.626z M611.281,448.409
						l-30.838,1.81l-25.153-4.468l27.202-14.683L611.281,448.409z M611.806,448.825l0.863,12.353l-31.295-10.574L611.806,448.825z
						 M581.13,472.615l-22.802-4.863l22.235-16.607L581.13,472.615z M633.484,491.807l-21.075-42.904l31.373,6.683L633.484,491.807z
						 M638.067,438.147l-26.037,10.194l-28.482-17.159l54.014,6.725L638.067,438.147z M147.557,405.292l0.078,0.125l4.671,3.599
						l-21.21,9.357L145.679,398L147.557,405.292z M176.766,398.223l-23.998,10.59l-4.801-3.703l-1.919-7.469l0.26-0.068l32.32,0.562
						l-1.524,0.848L176.766,398.223z M108.496,431.256l20.082-9.768l-0.026-0.057l48.932-21.585l-0.203-0.458l2.164-1.201
						l68.889,45.089l-142.47-11.354l2.325-1.306L108.496,431.256z M45.151,484.583l-2.923-43.872l11.718,8.343L45.151,484.583z
						 M54.248,448.721l-11.531-8.207l49.744,0.733L54.248,448.721z M86.948,549.233l16.394-14.288l22.537-4.941l-19.692,16.852
						L86.948,549.233z M312.137,527.539l36.757,67.828l0.021,0.707l-31.155,3.318L312.137,527.539z M340.067,611.106l-0.395-0.348
						l9.263-13.882l0.406,16.701l-9.242-2.32L340.067,611.106z M350.495,587.774l-0.01,0.005l-1.467-59.475l2.252-27.655
						l1.592,25.319l0.51,0.749l13.273,6.163l-9.102,113.463L350.495,587.774z M411.218,549.467l-0.889-18.651l7.968,8.754
						l0.036,0.073L411.218,549.467z M380.682,639.879l30.214-88.487l-0.505,63.985l-29.329,24.373
						C380.937,639.791,380.807,639.837,380.682,639.879 M435.721,621.134l-24.882-5.883l0.504-64.213l25.2,69.607
						C436.215,620.848,435.934,621.009,435.721,621.134 M477.367,592.575L436.48,565.18l17.887,9.378l1.004-0.13l45.713-41.359
						l3.412,5.909L477.367,592.575z M615,475.986l-0.094,0.109l-0.765-0.182l-1.831-26.209l20.586,41.916L615,475.986z
						 M653.129,431.797l18.698,6.746l-31.649-0.827L653.129,431.797z M631.497,427.006l20.914,4.629l-13.195,6.033l-1.529-0.187
						L601.06,420.5l30.411,6.543L631.497,427.006z M506.478,394.91l24.867-11.677l-12.186,13.471L506.478,394.91z M517.093,376.503
						l0.442,0.192l-12.717,17.98l-10.688-1.508l-0.099,0.505l-5.342-3.344l-0.442-18.709l0.645-0.25l28.133,4.749L517.093,376.503z
						 M491.571,366.189l11.318-2.148l-17.2,6.668L491.571,366.189z M494.432,400.975l0.13-0.676l96.221,17.668l-112.631,39.269
						l-33.964-66.034l5.123,0.187L494.432,400.975z M282.584,327.212l11.786,41.854l-16.826-37.266L282.584,327.212z
						 M285.319,307.286l-2.762,18.979l-13.393-17.008L285.319,307.286z M268.358,308.945l-9.305,4.442l-0.629-17.055
						L268.358,308.945z M245.421,284.074l-0.687-26.307l8.02,5.108L245.421,284.074z M245.473,286.133l-0.021-0.806l7.474-21.637
						l4.962,31.498l-11.999-7.49L245.473,286.133z M272.889,237.294l5.966,14.672v0.078h-0.005l-25.168,10.22L272.889,237.294z
						 M279.364,221.899l-0.489,28.939l-5.695-14.012l2.242-16.945L279.364,221.899z M316.646,191.332l-0.047,0.109l0.109,0.047
						l-55.585,19.083l-0.083-0.042l7.209-57.01L316.646,191.332z M334.595,150.95l-17.762,39.966l-48.1-37.578L334.595,150.95z
						 M227.815,138.759L227.815,138.759l63.86-6.096l-23.644,20.191L227.815,138.759z M232.647,156.463l-4.598-17.153l39.55,13.861
						l-31.217,15.827L232.647,156.463z M230.068,153.686l4.364,16.264l0.042,0.109l-40.995,5.107l-21.47-53.582L230.068,153.686z
						 M171.279,120.867l-25.605-0.172l23.41-6.46L171.279,120.867z M226.333,139.757l0.484,1.805l-55.054-20.643l-3.49-10.517
						L226.333,139.757z M182.794,103.536l52.641-8.837l0.099,0.01l9.045,6.892l-61.696,1.982l-0.099,0.042L182.794,103.536z
						 M184.043,89.597l0.229-0.042l49.489,4.977l-50.924,8.546L184.043,89.597z M235.586,94.086l-15.791-17.044l49.905-6.657
						L235.586,94.086z M336.259,91.127l-12.238-7.339l-0.166-0.026l-35.097,8.774l-17.866-22.323l0.442-0.203l0.01-0.01
						l67.376,3.771L336.259,91.127z M339.146,73.422l-10.746-16.529l28.029,32.679L339.146,73.422z M340.155,94.06l-1.363-1.035
						l-2.028-1.597l-0.094-0.052l2.465-17.356l19.91,18.599l0.957,1.113L340.155,94.06z M340.472,94.497l19.764-0.322l-0.947,22.381
						L340.472,94.497z M397.763,139.726l-12.831,7.661l-38.062-28.164l0.042-0.12l-0.343-0.109l-0.374-0.27l-0.026,0.016
						l-9.305-26.625l1.82,1.383l1.092,0.858l19.4,22.739l-0.036,0.088l0.208,0.114l24.362,28.565l0.338-0.286l-23.598-27.665
						l37.313,20.815l-0.073,0.281L397.763,139.726z M406.335,168.821l-3.807,1.269l-0.39-3.948l4.14,2.517L406.335,168.821z
						 M402.907,173.991l-0.338-3.448l3.911-1.305l0.068,0.187l-0.016,1.16L402.907,173.991z M402.964,174.548l3.558-3.35
						l-0.135,8.707l-3.755-4.213l0.369-0.739L402.964,174.548z M376.267,180.909l0.109,0.536l20.368-4.218l-38.249,22.911
						L376.267,180.909z M375.799,180.763l-18.656,20.186l-1.384,0.827l-1.425-30.593L375.799,180.763z M376.246,179.661
						l-0.229,0.047l0.094,0.463l-0.057,0.224l-21.418-9.56l29.938-22.594L376.246,179.661z M401.061,173.305l0.114,1.191
						l-24.44,5.066l8.301-31.342L401.061,173.305z M400.962,172.332l-15.723-24.612l12.571-7.505L400.962,172.332z M346.511,120.341
						l0.218-0.676l37.849,28.013l-30.317,22.885L346.511,120.341z M319.049,190.292l18.079-40.668l9.081-28.336l7.646,49.541
						L319.049,190.292z M331.376,210.285l-13.346-18.209l0.192,0.088l0.531-1.196l34.686-19.385l-21.262,38.442L331.376,210.285z
						 M328.442,225.067l-3.781,1.571l7.734-14.698l5.222-1.727l-9.034,15.182L328.442,225.067z M327.204,267.383l-8.665-24.742
						l9.716-15.577l0.218-0.088l-1.254,40.34L327.204,267.383z M325.722,270.499l-7.994,14.948l-3.854-9.971L325.722,270.499z
						 M313.983,274.212l0.614,0.068l4.598-43.456l8.353-3.469l-9.44,15.141l-0.021,0.192l8.904,25.439l-0.936,1.753l-12.176,5.118
						L313.983,274.212z M259.465,294.871l13.731-10.184l1.056,0.52l38.915-14.225l-0.333,3.11l0.707,0.073l-0.135,1.019
						L259.465,294.871z M269.69,273.77l3.303,10.517l-14.251,10.569L269.69,273.77z M269.638,272.912l-11.359,21.881l-4.977-31.587
						L269.638,272.912z M270.512,271.747l-0.723,0.692l-0.01,0.042l-16.269-9.669l25.205-10.231L270.512,271.747z M288.034,254.937
						l-16.706,16.025l7.88-18.407L288.034,254.937z M286.469,228.421l0.728,0.452l3.407,0.177l-2.002,25.345l-0.192,0.182
						l-8.946-2.413l6.959-23.826L286.469,228.421z M297.625,223.137l19.536,10.049l-3.786,35.831l-38.858,14.21l-3.105-9.887
						l18.656-17.897l0.27-0.572l2.106-26.588l-0.837-0.952l-3.828-0.198l-0.713-1.29l0.546,0.281l0.676,0.052L297.625,223.137z
						 M288.523,224.234l28.794-32.377l13.611,18.573L288.523,224.234z M324.167,214.498l5.883-1.914l-6.689,12.717L324.167,214.498z
						 M319.616,228.728l-2.928-11.703l5.648-1.82l-0.952,12.79L319.616,228.728z M318.029,229.389l-0.541,0.723l-0.125,1.186
						l-17.33-8.915l16.233-5.222l2.939,11.744L318.029,229.389z M292.357,132.663l42.135,17.845l-65.836,2.387L292.357,132.663z
						 M239.253,111.427l54.7,10.153l-1.898,10.511L239.253,111.427z M227.467,138.343l-0.322-0.161l-17.439-20.862l80.867,15.005
						L227.467,138.343z M209.024,117.195l17.122,20.482l-54.669-27.639L209.024,117.195z M235.175,110.969l-26.037,5.794
						l-37.734-7.193l-0.073,0.39l-0.837-0.421L235.175,110.969z M200.161,106.033l-16.498-2.028l56.781-1.826L200.161,106.033z
						 M290.032,131.774l-79.827-14.813l26.781-5.945L290.032,131.774z M236.959,110.558l-34.759-4.275l42.036-4.021L236.959,110.558
						z M171.497,108.774l10.72-4.255l0.172-0.229l15.733,1.935L171.497,108.774z M200.156,106.475l32.419,3.989l-60.198-1.331
						L200.156,106.475z M245.229,102.101l0.057,0.021v0.01l46.784,18.646l-54.596-10.132l7.599-8.67L245.229,102.101z
						 M281.148,108.025l-35.69-6.309l-8.863-6.751L281.148,108.025z M288.185,93.077l-3.292,15.583l-47.835-14.022L288.185,93.077z
						 M336.207,91.61l0.369,32.689l-12.415-39.914L336.207,91.61z M345.221,118.568l-0.296,0.926l-7.89,5.914l-0.369-32.512
						l9.024,25.824L345.221,118.568z M335.485,148.948l-0.094,0.213l1.732-23.265l7.568-5.674L335.485,148.948z M336.66,126.083
						l-1.774,24.113l-41.791-17.705L336.66,126.083z M294.395,121.61l40.73,4.249l-42.629,6.273L294.395,121.61z M285.522,109.195
						l22.843,1.55l-14.1,10.288L285.522,109.195z M284.94,109.143l8.691,11.781l-46.171-18.407L284.94,109.143z M308.865,110.334
						l-23.119-1.571L323.21,84.75L308.865,110.334z M309.292,110.48l14.485-25.834L336.4,125.22L309.292,110.48z M309.011,110.829
						l26.989,14.678l-41.219-4.301L309.011,110.829z M322.814,84.479l-37.422,23.988l3.246-15.406h0.088l0.031-0.068L322.814,84.479
						z M288.268,92.63l-52.095,1.592l34.296-23.826L288.268,92.63z M229.912,153.093l-55.626-30.754l52.672,19.749L229.912,153.093z
						 M281.814,223.153l2.455,1.29l1.852,3.35l-6.824,23.374l0.51-29.038L281.814,223.153z M258.492,295.698l53.926-19.681
						l-43.669,32.71L258.492,295.698z M284.851,306.896l-14.875,1.815l20.545-9.211l-5.851,7.25L284.851,306.896z M311.981,392.362
						l-29.054-65.576l2.736-18.792l37.199,84.233L311.981,392.362z M400.566,197.266l-25.891-4.754l27.337-16.378l0.036-0.005
						v-0.016l0.073-0.047l0.213,21.163L400.566,197.266z M383.6,110.584l19.187,19.182l-42.738-12.769l22.75-6.98L383.6,110.584z
						 M234.031,94.117l-48.22-4.853l22.167-4.192l0.296-0.14L234.031,94.117z M162.744,150.139l-18.948-28.024l0.432-0.988
						l27.108,0.182l-1.571,36.112L162.744,150.139z M194.263,175.687l-0.302-0.135l40.741-5.071l5.726,9.586l-3.62,5.43
						l-42.535-9.861L194.263,175.687z M263.391,211.476l-0.244,0.135l-1.477-0.759l54.94-18.859l-28.539,32.086l0.25,0.224
						l-0.229,0.073l-5.456-2.793L263.391,211.476z M302.52,392.481l-1.217-7.984l-0.073-0.229l-5.643-12.498l-11.833-42.041
						l27.743,62.637L302.52,392.481z M168.143,395.269l2.377-0.276l7.5,2.689l-30.12-0.525l7.797-2.034L168.143,395.269z
						 M34.119,475.486l0.562-3.277l7.172-30.479l2.928,43.976l-10.538-9.362L34.119,475.486z M60.921,509.866l-21.169,2.907
						l5.196-26.443l19.562,12.363L60.921,509.866z M115.523,581.34l-2.174-0.973l-28.388-21.564l-0.765-0.837l31.306,9.492
						l6.824,19.145L115.523,581.34z M157.319,613.681l-2.361-1.826l-38.608-44.189l55.725,18.698l0.728,1.337l0.182,0.135
						l-15.598,25.834L157.319,613.681z M282.038,604.121l-4.749-6.418l37.818,2.049l-31.332,4.593L282.038,604.121z M340.54,613.358
						l9.071,11.084l0.198,8.051l-6.018-3.698L340.54,613.358z M369.219,683.069l-8.748-1.399l0.317-32.96
						c7.776-2.72,16.363-5.721,24.867-8.675l-16.342,43.024L369.219,683.069z M360.117,682.076l3.48,5.914l-7.672-5.914H360.117z
						 M364.777,688.9l-0.239-0.182l-3.864-6.569l8.4,1.347L364.777,688.9z M382.258,639.333l28.466-23.655l24.367,5.763
						C433.141,621.888,424.471,624.624,382.258,639.333 M434.379,641.408l-9.924-14.74c6.304-2.132,10.434-3.48,11.026-3.573
						l-0.005-0.026c1.066-0.239,5.638-2.892,33.594-22.802l19.842-6.871L434.379,641.408z M473.684,641.387l17.127-48.652
						l9.726-3.365L473.684,641.387z M529.571,579.317l-56.578,64.369l28.149-54.524L529.571,579.317z M434.899,641.538
						l55.122-48.527l0.26-0.088l-17.944,50.956l-1.727,0.39L434.899,641.538z M434.244,641.939l8.629,6.949l-13.117-6.897
						L434.244,641.939z M444.906,649.959l-9.893-7.968l34.12,2.611l-24.128,5.409L444.906,649.959z M575.866,559.573l-8.717,1.337
						l40.444-20.836l-26.869,17.476L575.866,559.573z M614.838,498.574l1.571,35.768l-5.128,3.334l-45.006,23.182l11.063-27.681
						l0.01,0.01l0.671,0.333l22.599,0.442l0.879-0.681l9.752-41.245L614.838,498.574z M636.298,524.518l-2.517-31.353l23.572,41.594
						L636.298,524.518z M636.038,533.188l0.281-8.171l20.456,9.955L636.038,533.188z M690.978,479.819l-15.286-41.432l-0.531-0.525
						l-21.491-7.755l-21.424-4.749l-4.005-8.317l-0.562-0.473l-41.214-11.188l-58.144-7.807l3.365-3.682l1.68-12.238l-14.693-6.397
						l-1.961-10.777l-4.192-4.067l-21.247,4.026l-11.874-4.795l-0.681,12.389l-4.853-0.489l-7.516,3.365l-20.3,2.538l2.294,12.134
						l-101.698-3.688l-18.064-5.139l-0.042,0.14l0.021-2.679l-0.062-0.333l-25.772-64.843l-0.218-0.322l-11.604-10.87l1.805-2.236
						l25.361-11.432l0.416-0.39l10.189-19.052l0.083-0.224l7.51-32.679l16.03-30.494l2.013-0.655l0.182-0.083l8.639-5.175
						l0.01,0.426l40.767-0.884l0.848-0.692l3.318-14.62l0.244-14.366l-0.047-0.307l-7.755-21.933l-0.25,0.083l-0.78-7.973
						l5.794-8.369l-0.099-1.134l-20.383-20.383l-22.849-15.988L317.936,41.97l-0.78-0.302l-19.941,2.434l-0.494,0.229l-26.38,24.18
						l-52.896,7.053l-0.432,0.187l-9.581,7.62l-24.378,4.608l-0.718,0.791l-1.285,14.303l-13.445,5.336l-0.005,0.052l-0.016-0.042
						l-23.931,10.189l-0.463,0.463l-3.766,8.639l0.172,0.973l29.688,30.796l21.814,16.706l26.318,11.848l0.4,0.073l20.217-0.869
						l16.763,16.914l4.317,7.235l0.359,0.333l2.549,1.306l-1.784,20.831l-17.122,22.063l-0.187,0.567l0.775,29.797l3.573,13.497
						l0.114,0.26l9.305,14.178l19.281,18.428l22.531,49.9l-25.647-0.478l1.919-5.451l-0.099-0.785l-2.382-3.547l-0.276-0.265
						l-11.578-6.98l-0.437-0.125l-2.382-0.057l-0.598,0.213l-2.809,2.408l-3.433-0.4l-0.947,0.598l-2.372,7.068l-2.595,1.222
						l-0.442,0.478l-1.81,4.624l-12.779,1.8l-0.505,0.25l-3.766,3.771l-57.467,6.605l-74.829-0.884l-23.26,5.56l-0.369,0.192
						l-11.078,9.529l-0.307,0.588l-2.148,23.405l-15.874,1.274l-0.801,0.733l-7.089,41.427l-0.005,0.281l5.539,38.327l0.999,0.754
						l21.933-3.012l19.676,44.808l0.156,0.239l16.836,18.391l0.291,0.208l16.743,7.49l42.015,32.507l0.671,0.172l87.416-12.831
						l32.778,2.705l22.126,13.336l0.369,0.12L311.559,620l0.765-0.307l7.682-8.967l18.459,1.394l14.709,69.805l0.328,0.52
						l10.636,8.197l0.468,0.182l8.868,0.666l0.65-0.213l10.335-9.014l0.239-0.333l19.478-48.038l18.859,6.569l21.429,11.271
						l0.609,0.078l47.414-10.631l0.364-0.177l27.915-22.375l0.193-0.213l29.979-46.514l30.541-12.748l36.257-23.561l0.224-0.208
						l9.898-13.122l6.787,12.353l0.463,0.4l18.688,7.115l30.13,8.421l1.108-0.676l5.981-29.693l0.016-40.054L690.978,479.819z"/>
				</g>
			</g>
		</g>
	</g>
</g>
</svg>
